<?xml version="1.0" standalone="no"?>
<!DOCTYPE svg PUBLIC "-//W3C//DTD SVG 1.1//EN" "http://www.w3.org/Graphics/SVG/1.1/DTD/svg11.dtd" >
<svg xmlns="http://www.w3.org/2000/svg" xmlns:xlink="http://www.w3.org/1999/xlink" version="1.1">
<metadata>
Created by FontForge 20170924 at Thu Mar 22 15:45:52 1928
 By www-data
(c)1991,1993 Tilde Ltd. AG Fonts collection.
</metadata>
<defs>
<font id="AGOpusHighResolution-Bold" horiz-adv-x="556" >
  <font-face 
    font-family="AGOpusHighResolution"
    font-weight="700"
    font-stretch="normal"
    units-per-em="1000"
    panose-1="0 0 0 0 0 0 0 0 0 0"
    ascent="800"
    descent="-200"
    x-height="479"
    cap-height="684"
    bbox="-33 -263 1099 935"
    underline-thickness="38"
    underline-position="-160"
    unicode-range="U+0020-2122"
  />
<missing-glyph horiz-adv-x="800" 
d="M50 0v800h700v-800h-700zM700 50v700h-600v-700h600z" />
    <glyph glyph-name=".notdef" horiz-adv-x="800" 
d="M50 0v800h700v-800h-700zM700 50v700h-600v-700h600z" />
    <glyph glyph-name=".null" horiz-adv-x="0" 
 />
    <glyph glyph-name="nonmarkingreturn" horiz-adv-x="278" 
 />
    <glyph glyph-name="space" unicode=" " horiz-adv-x="278" 
 />
    <glyph glyph-name="exclam" unicode="!" horiz-adv-x="333" 
d="M88 71q0 33 24.5 57.5t57.5 24.5t57.5 -24.5t24.5 -57.5q0 -34 -24 -58t-58 -24t-58 24t-24 58zM182 218h-28q-11 51 -21 105q-16 88 -32 177q-5 26 -10 59t-5 58q0 35 24 57t59 22q39 0 60 -23t21 -62q0 -18 -10 -75q-6 -33 -15 -79l-21 -114q-6 -31 -11 -58.5
t-11 -66.5z" />
    <glyph glyph-name="quotedbl" unicode="&#x22;" horiz-adv-x="333" 
d="M124 619v-169q1 -5 1 -14q0 -21 -9.5 -33.5t-29.5 -12.5q-40 0 -40 46q1 9 1 14v169q0 44 7 62t32 18q21 0 29.5 -19.5t8.5 -60.5zM287 619v-169q1 -5 1 -14q0 -21 -9.5 -33.5t-29.5 -12.5q-40 0 -40 42q0 11 1 18v169q0 44 8 62t31 18q21 0 29.5 -19.5t8.5 -60.5z" />
    <glyph glyph-name="numbersign" unicode="#" 
d="M498 283v-73h-105l-32 -210h-75l32 210h-108l-32 -210h-75l32 210h-103v73h115l16 104h-103v73h114l30 196h75l-30 -196h107l29 196h75l-29 -196h93v-73h-104l-16 -104h94zM345 387h-107l-16 -104h107z" />
    <glyph glyph-name="dollar" unicode="$" 
d="M303 -121l-7 2l-27 3q-21 0 -34 -5l1 19l5 88q-56 0 -106.5 16.5t-92.5 49.5q12 59 25 118h19q14 -52 57 -88.5t98 -45.5v237q-103 20 -147 56q-58 47 -58 143q0 71 37.5 117t106.5 69q19 6 33 8.5t30 2.5l-3 82l7 -1l26 -3l34 4l-6 -81q50 0 93.5 -12.5t80.5 -41.5
q-14 -30 -21.5 -49.5t-15.5 -50.5h-14q-13 41 -46.5 70t-78.5 37v-219q102 -22 152 -61q66 -51 66 -143q0 -90 -65 -151.5t-153 -61.5q0 -18 2 -61.5t2 -46.5zM241 421l2 201q-42 -6 -66.5 -33.5t-24.5 -68.5q0 -40 25 -65q22 -21 64 -34zM299 257v-220l12 1q39 9 62.5 38.5
t23.5 70.5q0 40 -20.5 64.5t-61.5 39.5z" />
    <glyph glyph-name="percent" unicode="%" horiz-adv-x="1000" 
d="M287 -30l347 724q16 -2 25 -2h14q10 2 15 2l-348 -724q-16 2 -24 2h-14q-10 -2 -15 -2zM556 162q0 71 50.5 118.5t122.5 47.5q35 0 64.5 -10.5t52.5 -33t36 -50.5t13 -59q0 -33 -7.5 -60t-26 -51t-35 -35.5t-45.5 -22.5q-14 -5 -36.5 -6t-26.5 -1q-74 0 -118 44t-44 119z
M723 29q45 0 62 53q10 32 10 91q0 47 -11 77q-16 44 -56 44q-45 0 -62 -49q-11 -31 -11 -87t9 -83q16 -46 59 -46zM95 507q0 73 50 119t124 46q71 0 118 -44t47 -115q0 -34 -7.5 -58.5t-28.5 -49.5t-34 -34t-43 -20q-11 -4 -30.5 -6t-33.5 -2q-74 0 -118 45t-44 119z
M263 374q46 0 62 56q9 31 9 94q0 60 -18.5 87.5t-48.5 27.5q-35 0 -52.5 -28.5t-17.5 -64.5l-3 -50q0 -52 10 -79q16 -43 59 -43z" />
    <glyph glyph-name="ampersand" unicode="&#x26;" horiz-adv-x="722" 
d="M366 390l11 -14l145 -176q33 38 65 91q27 45 54 99l55 -57q-37 -52 -66 -89q-33 -42 -73 -84q45 -50 67 -74q44 -49 70 -73v-13q-53 5 -96 5q-44 0 -97 -5l-48 66q-41 -36 -99 -58t-113 -22q-47 0 -79.5 9t-64.5 35q-56 46 -56 122q0 70 57 127q45 44 121 79
q-29 43 -39 59q-34 57 -34 111q0 68 55 110.5t127 42.5q65 0 110 -27q55 -33 55 -94q0 -41 -24 -78q-29 -45 -103 -92zM337 426q29 23 53.5 60.5t24.5 69.5q0 31 -18.5 54t-49.5 23q-72 0 -72 -73q0 -29 22 -70q11 -20 40 -64zM248 319q-33 -22 -53 -51q-23 -33 -23 -69
q0 -45 32 -86q14 -17 28 -27t37 -19q8 -3 20.5 -5t33.5 -2q26 0 55.5 11.5t46.5 29.5q-42 49 -90 108q-44 55 -87 110z" />
    <glyph glyph-name="quotesingle" unicode="'" horiz-adv-x="278" 
d="M178 619v-169q1 -5 1 -14q0 -21 -9.5 -33.5t-29.5 -12.5q-40 0 -40 46q1 9 1 14v169q0 44 8 62t31 18q21 0 29.5 -19.5t8.5 -60.5z" />
    <glyph glyph-name="parenleft" unicode="(" horiz-adv-x="333" 
d="M274 700l26 -25q-72 -77 -103 -187q-26 -92 -26 -214q0 -115 27 -203q31 -101 101 -178l-27 -24q-108 87 -156 182q-51 100 -51 235q0 133 52 233q49 94 157 181z" />
    <glyph glyph-name="parenright" unicode=")" horiz-adv-x="333" 
d="M59 -133l-25 25q75 85 104 189q24 86 24 217q0 115 -27 201q-31 97 -100 175l26 24q102 -77 155 -181t53 -232q0 -136 -49.5 -232.5t-160.5 -185.5z" />
    <glyph glyph-name="asterisk" unicode="*" horiz-adv-x="444" 
d="M88 615l110 -84l-14 139q12 -2 20.5 -2h18.5h14h11q10 2 14 2l-16 -139l109 86q19 -39 41 -69l-128 -55l128 -53q-13 -20 -21 -35q-4 -8 -19 -36l-110 80l16 -136h-27t-26 1q-16 0 -25 -1l14 136l-106 -84l-29 50l-15 18l132 60l-132 53q24 31 40 69z" />
    <glyph glyph-name="plus" unicode="+" horiz-adv-x="606" 
d="M260 298v207h86v-207h209v-86h-209v-212h-86v212h-209v86h209z" />
    <glyph glyph-name="comma" unicode="," horiz-adv-x="278" 
d="M182 5l-52 -76q-42 -58 -84 -117l-24 11q24 107 52 207q5 20 12 44t13 38q18 39 57 39q28 0 49.5 -17.5t21.5 -45.5q0 -21 -23 -54q-17 -22 -22 -29z" />
    <glyph glyph-name="hyphen" unicode="-" horiz-adv-x="333" 
d="M42 207v107h250v-107h-250z" />
    <glyph glyph-name="period" unicode="." horiz-adv-x="278" 
d="M142 -11q-34 0 -58 24t-24 58q0 33 24.5 57.5t57.5 24.5t58 -24t25 -58t-24 -58t-59 -24z" />
    <glyph glyph-name="slash" unicode="/" horiz-adv-x="389" 
d="M422 755l-356 -886q-11 0 -33 1t-33 1q-22 0 -33 -2l356 886q11 0 33 -1t33 -1h16q12 2 17 2z" />
    <glyph glyph-name="zero" unicode="0" 
d="M278 -13q-65 0 -110.5 25t-76 78.5t-41.5 110t-11 127.5q0 63 11 126t37 106q66 110 194 110t187 -101q48 -82 48 -219q0 -123 -19 -185t-55 -105q-24 -29 -47 -42t-63 -25q-11 -3 -28 -4.5t-26 -1.5zM190 318q0 -41 0.5 -79.5t7 -89.5t17.5 -75q20 -44 64 -44
q43 0 61 50q7 18 17 86q4 29 6 80t2 86q0 69 -1.5 98.5t-7 80.5t-18.5 78q-19 41 -57 41q-36 0 -56 -33.5t-27 -104.5t-7 -126z" />
    <glyph glyph-name="one" unicode="1" 
d="M221 551l-7 5q-50 -29 -110 -56q-8 14 -17.5 25.5t-23.5 24.5v8q70 22 146 56q58 26 142 69l19 -7q0 -62 -3 -146q-7 -195 -7 -245v-60q0 -37 3 -112t3 -113l-9 1q-29 2 -43 3t-26 1q-16 0 -44.5 -2.5t-34.5 -2.5l6 78q0 71 2.5 181.5t2.5 127.5z" />
    <glyph glyph-name="two" unicode="2" 
d="M47 0v43q83 78 125 124q73 80 111 149q48 87 48 166q0 60 -21 96q-26 45 -82 45q-47 0 -73 -50q-21 -41 -21 -94l-10 -2q-31 33 -78 66q24 65 80 95.5t130 30.5q100 0 160 -40q71 -48 71 -143q0 -69 -37 -122q-21 -31 -53 -63q-11 -11 -37 -33l-123 -108q-11 -11 -13 -12
q-12 -12 -23 -26l131 2l155 6q-2 -8 -3 -24t-1 -25v-16v-28t4 -37l-58 2l-162 3l-162 -3z" />
    <glyph glyph-name="three" unicode="3" 
d="M104 149l13 -1q8 -52 32 -82q28 -35 78 -35q52 0 83 47q27 41 27 96q0 63 -25 101q-30 46 -89 46q-7 0 -22 -2t-22 -2v50l10 -1q8 -1 22 -1q56 0 83 41q23 36 23 100q0 48 -16 79q-22 42 -65 42q-46 0 -70 -37q-18 -28 -27 -84l-14 -1q-22 23 -33 34q-21 22 -34 33
q33 54 85 77q44 19 114 19q45 0 77 -6.5t67 -26.5q29 -16 47 -49.5t18 -68.5q0 -61 -34 -99q-29 -33 -91 -55l-13 -5q-5 -7 2 -10q22 -4 26 -5q32 -6 52 -12.5t38 -24.5q32 -29 40 -71q2 -11 4 -23.5t2 -23.5q0 -35 -16 -71t-42.5 -60t-56.5 -39t-68 -24q-16 -4 -35 -6
t-39 -2q-60 0 -106 16q-56 19 -87 61l33 44t29 42z" />
    <glyph glyph-name="four" unicode="4" 
d="M122 386l72 109q40 58 59 87q35 52 56 88l9 -1q5 -1 24 -3.5t33 -2.5q36 0 65 7q0 -26 -1 -43q-4 -67 -4 -74l-2 -98l-2 -190l85 6q-2 -14 -3 -27t-1 -30q0 -14 0.5 -22t3.5 -36l-85 6l3 -103l3 -42l2 -17l-9 1q-17 1 -31.5 2.5t-35.5 1.5q-16 0 -43.5 -2.5t-32.5 -2.5
q3 30 6 72t3 90h-262q3 21 3.5 27t0.5 20q0 12 -1.5 26.5t-2.5 22.5zM105 275l5 -6h185v281h-7q-17 -24 -69 -102q-41 -61 -114 -173z" />
    <glyph glyph-name="five" unicode="5" 
d="M82 144h14q12 -48 35 -77q30 -37 74 -37q65 0 95 53q24 42 24 113q0 32 -6 56.5t-22 44.5t-38 31.5t-46 11.5q-25 0 -47 -10.5t-40 -29.5l-24 14q0 21 3.5 63.5t3.5 57.5q0 70 -2.5 118.5t-10.5 102.5l8 7q25 -4 58.5 -6t63.5 -2q26 0 86 2t64 2l75 5q-3 -32 -6 -63
q0 -12 0.5 -22.5t4.5 -41.5q-28 0 -90.5 4t-80.5 4l-115 -3q-4 -30 -6 -81.5t-2 -88.5l6 -3q43 23 101 23q49 0 84.5 -10t68.5 -38q63 -54 63 -138q0 -50 -23.5 -93.5t-65.5 -73.5q-34 -25 -84 -38.5t-97 -13.5q-49 0 -94.5 13.5t-81.5 41.5q14 24 27 50q7 14 23 52z" />
    <glyph glyph-name="six" unicode="6" 
d="M420 625l-6 -6q-13 5 -28.5 7t-31.5 2q-33 0 -64 -20q-25 -16 -47.5 -45t-31.5 -56q-10 -37 -16 -61q-12 -47 -12 -95l7 -4q45 50 113 50q89 0 147 -51t58 -140q0 -99 -68 -160t-168 -61q-26 0 -56.5 6.5t-50.5 16.5q-47 24 -75 65t-40.5 89t-12.5 101q0 104 31 193
q37 104 109 160q26 19 54.5 30t60 16.5t42.5 6t18 0.5q30 0 50 -5q9 -20 18 -39zM185 197q0 -68 12 -105q20 -63 73 -63q47 0 68 56q15 39 15 96q0 65 -12 101q-20 58 -72 58q-46 0 -68 -51q-16 -38 -16 -92z" />
    <glyph glyph-name="seven" unicode="7" 
d="M193 0l-9 1q-8 0 -25 2t-25 2q-12 0 -33.5 -2.5t-25.5 -2.5l-4 7l105 157l75 118q32 49 77 122q33 54 76 125l-5 7q-68 0 -124 -2q-194 -7 -209 -7l3.5 38.5t1.5 27.5q0 21 -1 33t-4 38l230 -8h122h104l7 -11q-69 -116 -120 -210q-61 -111 -113 -215q-55 -110 -103 -220z
" />
    <glyph glyph-name="eight" unicode="8" 
d="M249 333q-24 -11 -38 -45q-17 -41 -17 -105q0 -61 15 -100q22 -59 72 -59q46 0 68 58q17 44 17 99q0 39 -4 69t-17 50q-25 40 -66 40q-16 0 -30 -7zM380 370v-7q62 -10 100 -57t38 -110q0 -20 -5 -45t-12.5 -43.5t-17.5 -31.5q-13 -17 -39.5 -39.5t-75 -36t-87.5 -13.5
q-48 0 -90.5 11t-76.5 35.5t-52.5 65t-18.5 84.5q0 64 39 117t101 63v7q-49 10 -82.5 49t-33.5 89q0 82 68 126q58 37 145 37q50 0 82.5 -7t66.5 -30.5t50 -50t16 -66.5q0 -55 -30.5 -94t-84.5 -53zM204 498q0 -24 3.5 -43.5t13 -36t25.5 -27.5t34 -11q42 0 63 46
q16 35 16 83q0 51 -14 80q-20 41 -65 41q-44 0 -63 -47q-13 -32 -13 -85z" />
    <glyph glyph-name="nine" unicode="9" 
d="M97 64l7 7q27 -19 41 -27q26 -14 47 -14q86 0 135 95q39 76 39 171v10l-7 3q-45 -50 -119 -50q-84 0 -140.5 50t-56.5 133q0 58 13.5 95.5t53.5 77.5q31 30 69.5 43.5t85.5 13.5q59 0 108.5 -20t82.5 -63q28 -38 42 -90t14 -105q0 -78 -18 -151t-57 -131t-104 -91.5
t-136 -33.5q-21 0 -30 1t-27 7q-4 2 -11 3.5t-11 13.5t-7 21.5t-14 30.5zM364 459q0 68 -12 105q-20 63 -73 63q-46 0 -68 -56q-16 -40 -16 -95l3 -45q5 -51 18 -76q20 -39 64 -39q46 0 68 51q16 38 16 92z" />
    <glyph glyph-name="colon" unicode=":" horiz-adv-x="278" 
d="M170 311q-33 0 -57.5 24.5t-24.5 58.5q0 33 24.5 57.5t57.5 24.5t57.5 -24.5t24.5 -57.5q0 -34 -23.5 -58.5t-58.5 -24.5zM170 -11q-34 0 -58 24t-24 58q0 33 24.5 57.5t57.5 24.5t57.5 -24.5t24.5 -57.5q0 -34 -24 -58t-58 -24z" />
    <glyph glyph-name="semicolon" unicode=";" horiz-adv-x="278" 
d="M100 394q0 33 24.5 57.5t57.5 24.5t57.5 -24.5t24.5 -57.5q0 -34 -23.5 -58.5t-58.5 -24.5q-33 0 -57.5 24.5t-24.5 58.5zM74 -188l-24 11l45 185q6 24 12 47.5t16.5 48.5t25 36t39.5 11q28 0 47.5 -18.5t19.5 -43.5q0 -16 -10 -32q-40 -60 -84 -123q-18 -26 -87 -122z
" />
    <glyph glyph-name="less" unicode="&#x3c;" horiz-adv-x="606" 
d="M160 255l398 -183v-84l-509 230v74l509 230v-84z" />
    <glyph glyph-name="equal" unicode="=" horiz-adv-x="606" 
d="M555 396v-86h-504v86h504zM555 200v-86h-504v86h504z" />
    <glyph glyph-name="greater" unicode="&#x3e;" horiz-adv-x="606" 
d="M48 72l398 183l-398 183v84l509 -230v-74l-509 -230v84z" />
    <glyph glyph-name="question" unicode="?" horiz-adv-x="444" 
d="M212 -11q-34 0 -58 24t-24 58q0 33 24.5 57.5t57.5 24.5t57.5 -24.5t24.5 -57.5q0 -34 -24 -58t-58 -24zM308 263l9 -5l-6 -15q-7 -16 -10 -27q-30 -4 -60 -7q-28 0 -54.5 8.5t-46 25t-31 39t-11.5 46.5q0 39 16 68q12 22 44 54l49 54q19 22 25 32q10 17 10 38
q0 31 -21 49t-54 18q-61 0 -88 -53h-13l-3 67q20 16 56 26.5t66 10.5q25 0 41 -1.5t39.5 -8t41.5 -16t34 -28.5q33 -40 33 -86q0 -71 -79 -149t-79 -109q0 -20 14.5 -32.5t35.5 -12.5q9 0 22 4.5t20 9.5z" />
    <glyph glyph-name="at" unicode="@" horiz-adv-x="750" 
d="M640 173h65q-44 -86 -127 -138.5t-178 -52.5q-150 0 -255 99t-105 252q0 155 100.5 260.5t252.5 105.5q137 0 229 -87q88 -84 88 -200q0 -55 -16.5 -103.5t-51 -85.5t-71.5 -59q-47 -28 -85 -28q-34 0 -53 25t-19 60q-29 -42 -49 -57q-28 -22 -68 -22q-60 0 -94 40
t-34 105q0 85 62.5 155.5t145.5 70.5q33 0 55 -19t28 -52l16 62h95l-75 -283q-4 -16 -4 -25q0 -13 4.5 -19.5t16.5 -6.5q22 0 51 27q20 19 39 45q52 74 52 168q0 91 -65 158q-73 75 -191 75q-129 0 -214 -85t-85 -218q0 -136 90 -221q87 -82 221 -82q69 0 128 37t101 99z
M316 172q28 0 56 34q21 25 35.5 59.5t24 73.5t9.5 71q0 28 -10 47q-13 25 -38 25q-51 0 -93 -91q-35 -77 -35 -138q0 -34 9 -53q13 -28 42 -28z" />
    <glyph glyph-name="A" unicode="A" horiz-adv-x="667" 
d="M12 0v8l74 171q59 133 109.5 256.5t98.5 254.5q9 -2 20.5 -3.5t17.5 -1.5q13 0 20.5 1.5l17.5 3.5l7 -17q44 -115 84 -218q49 -124 87 -218q32 -79 91 -217l5 -11v-9q-19 0 -31 1q-49 4 -54 4q-16 0 -29 -0.5t-55 -4.5q-23 76 -32 103q-16 50 -37 101l-110 3l-122 -2
l-5 -14q-22 -63 -33 -94q-21 -61 -30 -97q-22 4 -31.5 4.5t-15.5 0.5q-22 0 -47 -5zM203 274l-3 -9h183q-40 110 -89 233q-26 -61 -47.5 -113t-43.5 -111z" />
    <glyph glyph-name="B" unicode="B" horiz-adv-x="611" 
d="M372 370v-9q32 0 65.5 -12t59.5 -33q55 -48 55 -120q0 -76 -53 -134q-23 -24 -56 -38q-25 -11 -66 -19q-11 -2 -29.5 -3.5t-37.5 -1.5l-147 3l-87 -3q4 28 6 66t2 72q0 48 2 158t2 117q0 44 -4 135t-4 137l113 -3l144 2q86 0 137 -33q62 -40 62 -121q0 -67 -50 -111
q-44 -39 -114 -49zM230 387h16q34 0 55.5 4t43 22t32 45t10.5 58q0 21 -8.5 48.5t-22.5 38.5q-33 27 -76 27h-19.5t-27.5 -4q0 -23 -2 -77t-2 -58zM230 59l49 -2q28 0 51 10.5t38 33.5q27 41 27 88q0 73 -33.5 107.5t-99.5 34.5h-15q-12 -2 -18 -2l-1 -144z" />
    <glyph glyph-name="C" unicode="C" horiz-adv-x="667" 
d="M609 120l13 -5l-22 -85q-43 -22 -94 -32.5t-104 -10.5q-47 0 -81 5q-3 1 -50 10q-23 5 -54.5 19.5t-53 28.5t-41.5 34q-16 16 -33 38q-32 43 -47.5 92t-15.5 106q0 93 25.5 160t89.5 124q54 47 128.5 69.5t154.5 22.5q53 0 107 -12.5t97 -35.5q-5 -20 -11.5 -48.5
t-11.5 -53.5h-14q-28 40 -72 64t-94 24q-116 0 -179 -95q-55 -83 -55 -205q0 -57 14 -109.5t45 -93t79 -63t101 -22.5q46 0 95 20.5t84 53.5z" />
    <glyph glyph-name="D" unicode="D" horiz-adv-x="778" 
d="M79 685l122 -3l105 2q17 0 53.5 -1t55.5 -1q60 -5 79.5 -8.5t59.5 -19.5q34 -13 52.5 -26t41.5 -40q40 -46 60.5 -105t20.5 -123q0 -85 -28.5 -151.5t-90.5 -122.5q-55 -50 -115 -68t-142 -18q-27 0 -81 1t-81 1l-25 1l-87 -3q0 73 2 131q7 204 7 219v101l-5 146zM236 60
l72 -2q74 0 115 16q51 20 89 76q30 43 43 96.5t13 114.5q0 55 -16 108.5t-50 92t-80 52t-109 13.5q-12 0 -36 -2t-36 -2q0 -103 -1.5 -176.5t-3 -177.5t-1.5 -146z" />
    <glyph glyph-name="E" unicode="E" horiz-adv-x="500" 
d="M74 671v13q26 0 79 -3t80 -3q48 0 129 2.5t97 2.5q-4 -19 -4 -43q0 -6 0.5 -13.5t1.5 -17.5l2 -12q-38 0 -114 6t-114 6l-2 -104l-1 -111l227 8q-2 -16 -3.5 -27.5t-1.5 -19.5q0 -13 1.5 -21t3.5 -17q-29 0 -88 4t-90 4l-49 1l-1 -127l1 -126q106 0 231 13q-4 -19 -4 -43
q0 -6 0.5 -13.5t1.5 -17.5l2 -12q-30 0 -90 3t-91 3l-118 -3l-89 -3l3 57l5 187l1 152v117q0 38 -1 58q-5 99 -5 100z" />
    <glyph glyph-name="F" unicode="F" horiz-adv-x="500" 
d="M74 671v13q26 0 79 -3t80 -3q48 0 129 2.5t97 2.5q-4 -19 -4 -43q0 -6 0.5 -13.5t1.5 -17.5l2 -12q-38 0 -114 6t-114 6l-2 -104l-1 -111l227 8q-2 -16 -3.5 -27.5t-1.5 -19.5q0 -13 1.5 -21t3.5 -17q-29 0 -88 4t-90 4l-49 1v-115l7 -211q-15 0 -45 2.5t-38 2.5
q-17 0 -46 -2.5t-35 -2.5l3 57l5 187l1 152v117q0 38 -1 58q-5 99 -5 100z" />
    <glyph glyph-name="G" unicode="G" horiz-adv-x="778" 
d="M668 534h-14q-34 49 -84.5 73.5t-112.5 24.5q-61 0 -111.5 -27.5t-85.5 -78.5q-29 -43 -42 -95t-13 -111q0 -63 22.5 -124t66.5 -98q28 -22 45.5 -30t55.5 -17q26 -6 53 -6q33 0 67 7q18 3 28 5.5t13 5.5l2 10v38t1 38q0 27 -2 58q-5 78 -5 97q12 0 37 -2t38 -2
q14 0 46.5 2t34.5 2q-4 -33 -6 -77.5t-2 -85.5l3 -112q-71 -19 -136 -31t-126 -12q-171 0 -279 81q-120 90 -120 256q0 178 120 278q112 93 293 93q66 0 125.5 -14.5t115.5 -45.5q-8 -21 -16 -48t-12 -52z" />
    <glyph glyph-name="H" unicode="H" horiz-adv-x="778" 
d="M80 684q17 0 46 -2.5t35 -2.5q18 0 47 2.5t35 2.5q0 -27 -3.5 -76t-3.5 -63v-43v-92q26 0 87.5 -2t66.5 -2q27 0 87.5 2t64.5 2l-1 141q0 30 -1 49q-4 76 -4 84q17 0 46.5 -2.5t35.5 -2.5q15 0 45 2.5t38 2.5q0 -28 -2 -51q-7 -79 -7 -85l-3 -233q0 -65 2 -118
q7 -184 7 -197q-17 0 -45.5 2.5t-34.5 2.5q-19 0 -51.5 -2.5t-37.5 -2.5l9 138l3 144l1 48l-153 3l-153 -3v-121q0 -41 3.5 -114.5t3.5 -94.5q-16 0 -44.5 2.5t-34.5 2.5q-19 0 -50.5 -2.5t-37.5 -2.5q0 56 4 137q9 183 9 230q0 66 -2 119q-7 186 -7 198z" />
    <glyph glyph-name="I" unicode="I" horiz-adv-x="333" 
d="M243 684q0 -22 -2 -49q-5 -67 -5 -84q0 -33 -3 -98t-3 -98q0 -34 3 -103t3 -104q0 -18 5 -92q2 -30 2 -56q-16 0 -44.5 2.5t-34.5 2.5q-40 0 -88 -5q0 56 4 137q9 183 9 230v54l-2 129q0 28 -1 55.5t-6 78.5q17 0 46 -2.5t35 -2.5q18 0 47 2.5t35 2.5z" />
    <glyph glyph-name="J" unicode="J" horiz-adv-x="333" 
d="M29 -159l-15 47q77 16 77 92q4 42 5 80t1 88l1 178l2 136l-2 98l-5 124q15 0 45 -2.5t38 -2.5q42 0 83 6q-3 -33 -5.5 -72.5t-2.5 -57.5l-2 -121l-1 -37l3 -231v-27.5t1 -26.5q0 -50 -6 -87.5t-26 -69.5q-31 -51 -81 -80q-46 -26 -110 -34z" />
    <glyph glyph-name="K" unicode="K" horiz-adv-x="611" 
d="M71 0l7 180v301l-6 203q17 0 46.5 -2.5t35.5 -2.5q39 0 77 6l-6 -224l-2 -93q78 90 131 155q66 80 125 161q32 -5 55 -5q26 0 56 5l-1 -8l-163 -175q-22 -24 -34 -37l-55 -66l263 -386v-12q-19 0 -50.5 2.5t-37.5 2.5q-38 0 -86 -5l-97 152l-106 161l6 -313
q-17 0 -46 2.5t-35 2.5q-17 0 -44.5 -2.5t-32.5 -2.5z" />
    <glyph glyph-name="L" unicode="L" horiz-adv-x="500" 
d="M75 665l-1 19q17 0 46 -2.5t35 -2.5q18 0 47 2.5t35 2.5q0 -30 -4 -95t-4 -84l-1 -117v-189l2 -126l54 2q48 0 88 3q58 6 87 8q-4 -19 -4 -43v-18.5t4 -24.5l-169 6q-34 0 -68 -1l-68 -2l-83 -3q0 67 2 121q7 189 7 203l1 120q0 36 -3 110t-3 111z" />
    <glyph glyph-name="M" unicode="M" horiz-adv-x="889" 
d="M96 384l41 300q8 0 22.5 -2.5t17.5 -2.5q14 0 24.5 2t16.5 3q48 -105 74 -159q10 -21 78 -157q39 -79 79 -157l59 115q93 181 174 358l11 -2q9 -2 16.5 -2h16.5q24 0 41 4q20 -182 34 -296t21 -172l24 -174q1 -4 4 -19t3 -23q-17 0 -46.5 2.5t-35.5 2.5q-17 0 -46 -2.5
t-35 -2.5q0 97 -14.5 221t-27.5 240q-38 -77 -75.5 -153.5t-74.5 -152.5q-25 -52 -72 -155q-16 2 -24 2q-4 0 -14 -2l-77 160q-38 79 -70 145q-36 72 -72 145l-21 -177l-10 -113l-7 -98l-4 -62q-22 4 -31.5 4.5t-15.5 0.5q-21 0 -46 -5q0 9 1 15t6 22q5 24 14 75q6 38 14 83
t15.5 101t11.5 88z" />
    <glyph glyph-name="N" unicode="N" horiz-adv-x="778" 
d="M171 0l-7 1l-39 4q-21 0 -46 -5q9 98 13.5 227t4.5 249l-1 161l-2 47q25 -5 45 -5t45 5q37 -40 145 -156q72 -77 145 -156q92 -100 144 -159l1 220l-1 111q0 20 -3 60t-3 61l-1 19q15 -2 26 -3.5t19 -1.5q7 0 22 2t23 2l-3 -55q0 -22 -2 -47q-5 -64 -5 -80
q0 -46 -2.5 -99.5t-3.5 -88.5v-102v-211l-11 2q-15 3 -29 3q-19 0 -42 -5q-73 87 -106 124q-57 66 -109 123q-39 43 -112 120l-109 114l-3 -134v-91q0 -32 5 -160q2 -51 2 -96z" />
    <glyph glyph-name="O" unicode="O" horiz-adv-x="833" 
d="M801 343q0 -77 -30.5 -147t-88 -120t-125.5 -72t-150 -22q-78 0 -149.5 24t-123 75t-74.5 115t-23 143q0 78 30 147t88 118.5t127 71.5t149 22q66 0 124.5 -16t107.5 -51q41 -28 64 -56q27 -32 43.5 -72t23.5 -78.5t7 -81.5zM412 41q60 0 104.5 30t75.5 85q23 43 33 95.5
t10 110.5q0 111 -48 187q-57 91 -162 91q-38 0 -61.5 -6.5t-51.5 -27.5q-46 -34 -68.5 -80t-31.5 -101.5t-9 -114.5q0 -110 48 -183q56 -86 161 -86z" />
    <glyph glyph-name="P" unicode="P" 
d="M69 684l93 -3q22 0 72.5 2t53.5 2q27 0 54 -0.5t54 -6.5q62 -14 99 -58.5t37 -107.5q0 -46 -11.5 -81.5t-41.5 -66t-64 -44.5q-24 -10 -76 -19q-17 -3 -43.5 -4t-29.5 -1h-44q0 -35 1 -70t2 -69q0 -27 3 -79t3 -78q-15 0 -45 2.5t-38 2.5q-18 0 -47 -2.5t-35 -2.5l4 53
q0 24 2.5 63t2.5 46l1 152q0 46 -2 153t-2 115v25q0 38 -3 77zM226 627l-3 -120v-84l-1 -72q22 0 34 1t32 6q46 13 67 52q18 33 18 84q0 37 -10 67t-35 50q-13 10 -28 13.5t-38 3.5q-10 0 -19 -0.5t-17 -0.5z" />
    <glyph glyph-name="Q" unicode="Q" horiz-adv-x="833" 
d="M412 41q60 0 104.5 30t75.5 85q23 43 33 95.5t10 110.5q0 111 -48 187q-57 91 -162 91q-38 0 -61.5 -6.5t-51.5 -27.5q-46 -34 -68.5 -80t-31.5 -101.5t-9 -114.5q0 -110 48 -183q56 -86 161 -86zM514 -93l-108 75q-168 0 -267 93q-102 96 -102 264q0 78 30 147t88 118.5
t127 71.5t149 22q66 0 124.5 -16t107.5 -51q41 -28 64 -56q27 -32 43.5 -72t23.5 -78.5t7 -81.5q0 -122 -68.5 -213.5t-185.5 -129.5q56 -36 155 -95q48 -29 97 -58q-14 -2 -20 -5q-24 -6 -57 -22q-11 -5 -56 -27q-48 37 -75 58q-39 30 -77 56z" />
    <glyph glyph-name="R" unicode="R" horiz-adv-x="611" 
d="M297 205l-31 54l-29 51q-4 5 -7 6q-5 -2 -5 -6l2 -178l1 -27q0 -20 3.5 -57t3.5 -48q-17 0 -46 2.5t-35 2.5q-17 0 -46 -2.5t-35 -2.5l1 19l4 66q0 45 2.5 115t2.5 82l-1 181q0 38 -2 82q-5 111 -5 139l69 -2q36 0 72 1l72 2q69 0 101 -2.5t60 -18.5q45 -26 66.5 -60
t21.5 -86q0 -71 -42 -118t-114 -62q39 -68 109 -176q47 -72 68 -105l36 -57q-19 0 -51.5 2.5t-39.5 2.5q-40 0 -90 -5zM228 628v-119l-1 -78l-1 -72q9 -1 25 -1q131 0 131 144q0 24 -5 50q-10 48 -44 64q-25 12 -77 12h-28z" />
    <glyph glyph-name="S" unicode="S" horiz-adv-x="500" 
d="M404 549h-15q-16 41 -44 63t-71 22q-30 0 -45.5 -4.5t-34.5 -22.5q-30 -27 -30 -69q0 -45 63 -85q63 -35 127 -69q76 -44 97 -92q9 -18 13 -41.5t4 -47.5q0 -21 -7 -47t-17 -47q-16 -33 -44 -58q-24 -21 -62 -39q-32 -15 -63.5 -20.5t-71.5 -5.5q-43 0 -85 10.5t-76 31.5
q13 46 18.5 69.5t10.5 56.5h19q11 -51 48 -79t90 -28q50 0 83.5 26t33.5 75q0 24 -8.5 41t-28.5 36q-26 18 -52 32.5t-60 30.5q-20 9 -40.5 22.5t-39.5 26.5q-35 21 -52 62t-17 88q0 52 17.5 88.5t58.5 69.5q35 28 70.5 38.5t84.5 10.5q41 0 78 -9.5t71 -30.5l9 -7l-12 -36
q-11 -33 -20 -62z" />
    <glyph glyph-name="T" unicode="T" 
d="M355 610l-2 -73l-3 -249l1 -128q0 -37 2.5 -94t2.5 -66q-17 0 -46.5 2.5t-35.5 2.5q-18 0 -47 -2.5t-35 -2.5q0 28 3.5 78t3.5 64q0 79 2.5 200t2.5 139l-3 129q-15 0 -49.5 -2t-37.5 -2l-97 -10q5 18 5 43v16q-2 12 -2 17l-3 12l75 -2q31 0 104 -2t78 -2l103 1
q36 0 58 1q89 4 97 4q-3 -17 -3.5 -22.5t-0.5 -17.5q0 -27 4 -48q-92 14 -177 14z" />
    <glyph glyph-name="U" unicode="U" horiz-adv-x="778" 
d="M698 684q-4 -37 -6 -71t-2 -75l-3 -98l-3 -110q0 -112 -13 -161q-21 -80 -92 -129q-38 -28 -87 -40.5t-102 -12.5q-104 0 -176 35q-87 43 -113 133q-2 8 -4.5 24t-4 28t-2 21.5t-0.5 23.5v26l-2 124l-1 125l-1 115l-2 42q15 0 45 -2.5t38 -2.5q40 0 81 6l-5 -49
q0 -39 -4 -117t-4 -117v-45q0 -38 0.5 -75t7.5 -74.5t16.5 -61t35.5 -48.5q46 -43 114 -43q71 0 111 27t67 94q12 29 15 82t3 125q0 50 -4 150t-4 151q18 -3 26 -4t25 -1q15 0 24 1t26 4z" />
    <glyph glyph-name="V" unicode="V" horiz-adv-x="667" 
d="M655 684q-48 -114 -95 -225.5t-94 -230.5q-50 -126 -86 -228q-11 2 -16 2q-22 3 -28 3q-22 0 -45 -5q-40 110 -85 227q-55 142 -89 228q-19 47 -94 229q19 0 50.5 -2.5t37.5 -2.5q40 0 88 5q30 -103 85 -250q46 -124 93 -248q59 141 99 247q49 129 89 251l11 -2
q8 -1 17 -1.5t18 -0.5h26q13 3 18 4z" />
    <glyph glyph-name="W" unicode="W" horiz-adv-x="1000" 
d="M321 10l-3 -10q-15 3 -24.5 4t-26.5 1q-24 0 -52 -5q-28 107 -60 219q-42 144 -64 218l-68 218l-7 29q17 0 46 -2.5t35 -2.5q18 0 47 2.5t35 2.5q32 -135 64.5 -255.5t67.5 -244.5q31 92 59.5 170.5t58.5 161.5q34 97 55 168q18 -3 26 -4t25 -1q22 0 49 5
q20 -75 49 -162.5t57 -170.5q33 -98 53 -167q9 29 52 165q38 121 51 166q21 73 45 169q15 -2 26 -3.5t19 -1.5q22 0 45 5v-8q-58 -157 -119 -336t-110 -340q-15 3 -24.5 4t-26.5 1q-24 0 -52 -5q-26 97 -48 167t-52 154.5t-59 164.5q-85 -238 -169 -476z" />
    <glyph glyph-name="X" unicode="X" horiz-adv-x="611" 
d="M240 316l-205 368q18 0 50 -2.5t39 -2.5q19 0 50.5 2.5t38.5 2.5q26 -56 76 -151q24 -46 48 -91q30 47 74 120q36 61 73 122q28 -5 50 -5q15 0 26.5 1t22.5 5v-7l-93 -130l-116 -165l13 -23q49 -89 99 -177q55 -100 96 -183q-19 0 -32 1q-50 4 -55 4q-18 0 -49 -2.5
t-37 -2.5q-29 59 -81 158q-34 64 -50 95l-92 -144l-42 -75l-19 -34l-45 5q-24 0 -51 -5q105 158 211 316z" />
    <glyph glyph-name="Y" unicode="Y" horiz-adv-x="611" 
d="M21 684q19 0 51.5 -2.5t38.5 -2.5q45 0 89 6l42 -88l45 -94l43 -87q8 -18 11 -23t9 -10l16 20l17 31q7 13 30 59q10 20 29 59l37 82l22 50l12 -2q17 -3 33 -3q22 0 49 5l-208 -380l-2 -115q0 -29 3 -70q7 -95 7 -119q-19 0 -31 1q-49 4 -54 4q-38 0 -85 -5q11 119 11 228
l1 56q-29 50 -72 130q-20 38 -71 134q-43 82 -73 136z" />
    <glyph glyph-name="Z" unicode="Z" horiz-adv-x="611" 
d="M19 0v17q98 152 182 292q95 157 172 302l-78 -1q-49 0 -88 -2q-138 -7 -147 -7q5 15 5 38v16q-2 12 -2 17l-3 12l144 -3l132 -2l115 2l131 3v-17q-48 -75 -120 -194q-65 -108 -116 -196q-58 -100 -115 -199l4 -5q55 0 129 3q173 7 217 7l-2 -11q-2 -16 -3 -32q0 -6 2 -16
l3 -24l-105 3l-145 2l-203 -2z" />
    <glyph glyph-name="bracketleft" unicode="[" horiz-adv-x="333" 
d="M293 685v-35v-15l-110 5l-4 -145l-1 -92l-1 -136v-117q0 -33 3 -98t3 -98v-26l110 4v-50l-128 3l-90 -3v20q0 78 3.5 216.5t3.5 178.5l-2 207l-5 156v25l66 -2h43z" />
    <glyph glyph-name="backslash" unicode="\" horiz-adv-x="520" 
d="M124 755l372 -755h-35.5t-34.5 1q-20 0 -30 -1l-372 755q18 0 35.5 -0.5t34.5 -0.5h19q7 1 11 1z" />
    <glyph glyph-name="bracketright" unicode="]" horiz-adv-x="333" 
d="M35 -118v34v16l110 -5l3 144l2 173l1 117l-1 61l-5 191v26l-110 -4v50l60 -2l67 -1l90 3v-20l-4 -194l-3 -202l3 -189l4 -173v-25l-66 2h-43z" />
    <glyph glyph-name="asciicircum" unicode="^" horiz-adv-x="606" 
d="M147 278h-95l206 403h90l206 -403h-95l-156 294z" />
    <glyph glyph-name="underscore" unicode="_" horiz-adv-x="500" 
d="M500 -129h-500v48h500v-48z" />
    <glyph glyph-name="grave" unicode="`" horiz-adv-x="333" 
d="M118 694l129 -149h-56l-131 81q-30 20 -34 23q-18 16 -18 37q0 19 12.5 31.5t31.5 12.5q22 0 35.5 -8t30.5 -28z" />
    <glyph glyph-name="a" unicode="a" horiz-adv-x="500" 
d="M196 214q-18 -15 -25 -34.5t-7 -47.5q0 -33 12.5 -54.5t42.5 -21.5q42 0 60 33q14 26 14 72q0 16 1 48t1 48l-40 -17q-20 -8 -30 -11q-19 -7 -29 -15zM78 361h-7l-13 60q35 32 84.5 49.5t100.5 17.5q74 0 123 -29q61 -36 61 -105l1 -67l-3 -146l1 -57q0 -11 7 -24.5
t17 -17.5q4 -1 10 -2t11 -1h11q2 -1 2 -14v-10q-10 -6 -25 -11.5t-23 -8.5q-10 -2 -21.5 -4t-20.5 -2q-35 0 -61 19t-38 52q-19 -33 -53.5 -52.5t-74.5 -19.5q-64 0 -103.5 34t-39.5 97q0 34 15.5 63.5t43.5 46t61 26.5q4 1 63 16q23 6 37 10q22 7 36 16q8 7 10.5 15.5
t2.5 22.5q0 34 -28.5 58.5t-64.5 24.5q-30 0 -58 -11.5t-53 -33.5z" />
    <glyph glyph-name="b" unicode="b" 
d="M74 -2h-22q0 43 3 108t3 66l1 208l1 186q0 31 -3 94t-3 95q17 -2 36 -4t35 -2t37 2t38 4l-2 -63l-1 -57l-2 -127l-3 -97q20 38 55.5 59.5t78.5 21.5q93 0 148 -74q49 -66 49 -163q0 -55 -12 -100q-15 -55 -45 -90q-66 -78 -169 -78q-42 0 -78.5 18t-58.5 52
q-28 -17 -44 -28q-28 -21 -42 -31zM192 237q0 -84 10 -124q20 -79 78 -79q16 0 33 10t25.5 21.5t13.5 24.5t9 29q8 26 11 58t3 63q0 78 -11 117q-20 71 -78 71q-57 0 -80 -72q-14 -45 -14 -119z" />
    <glyph glyph-name="c" unicode="c" horiz-adv-x="500" 
d="M480 444l-38 -103h-24q-6 44 -32 72t-70 28q-63 0 -95 -68q-25 -53 -25 -124q0 -47 6 -79t26.5 -61.5t49.5 -42.5t67 -13q28 0 57 13t47 34l17 -14l-24 -59q-18 -16 -61 -27t-74 -11q-56 0 -101 13q-55 16 -89 50q-72 73 -72 179q0 119 72 189t191 70q45 0 91 -11.5
t81 -34.5z" />
    <glyph glyph-name="d" unicode="d" 
d="M353 753l14 -1l61 -3q12 0 37 2t38 2l-4 -97q0 -32 -2 -104.5t-2 -77.5l-2 -295q0 -29 3 -89t3 -90l-14 1q-13 2 -25 3t-29 1q-15 0 -40 -2.5t-29 -2.5q0 17 3.5 46.5t3.5 37.5q-19 -46 -55 -71.5t-86 -25.5q-103 0 -154 77q-43 65 -43 174q0 54 9.5 93t37.5 80
q24 35 64.5 57.5t81.5 22.5q45 0 80 -17.5t56 -55.5v79l-2 115q0 32 -1 52q-4 81 -4 89zM275 425q-56 0 -80 -71q-16 -48 -16 -119t13 -113q22 -71 75 -71q57 0 81 74q16 48 16 121q0 68 -14 111q-22 68 -75 68z" />
    <glyph glyph-name="e" unicode="e" horiz-adv-x="500" 
d="M181 286h155q-1 3 -1 6.5v4.5q0 8 -1 12q0 48 -12 85q-18 55 -57 55q-48 0 -69 -61q-15 -43 -15 -102zM469 238h-288l4 -57q0 -22 15 -52.5t33.5 -46.5t40 -23t48.5 -7q31 0 61 12t56 33l12 -9l-22 -56q-64 -45 -143 -45q-64 0 -109 16t-84 60q-32 35 -45 82.5t-13 104.5
q0 107 61.5 174.5t167.5 67.5q110 0 161 -73q44 -63 44 -181z" />
    <glyph glyph-name="f" unicode="f" horiz-adv-x="315" 
d="M83 422h-74q4 12 5 19t1 15t-3 17h71q7 52 18.5 93.5t33.5 79.5q32 56 69 83t91 27q20 0 48 -5q-2 -10 -3 -31.5t-1 -31.5v-21l-1 -44l-13 -5q-24 12 -45.5 20t-42.5 8q-22 0 -33.5 -1.5t-21.5 -11.5l-6 -6q-6 -7 -6 -15q0 -14 10 -45q5 -17 32 -87l2 -7h101
q-2 -13 -3.5 -22.5t-1.5 -16.5q1 -8 1 -12h-93v-132l1 -149l3 -141q-16 0 -42.5 2.5t-31.5 2.5q-15 0 -41 -2.5t-32 -2.5q3 20 4 51.5t1 58.5l3 214v98z" />
    <glyph glyph-name="g" unicode="g" horiz-adv-x="500" 
d="M123 -73q-3 -7 -4 -17t-1 -20q0 -55 41 -85q37 -27 93 -27q25 0 48.5 8.5t40.5 25.5q12 13 23 36t11 41q0 63 -46 84q-29 13 -102 13q-44 0 -65 -9q-30 -13 -39 -50zM480 441l-90 3q53 -45 53 -112q0 -40 -18.5 -76t-52.5 -57q-30 -18 -65 -24.5t-75 -6.5h-17
q-20 0 -27 -7.5t-9.5 -13.5t-2.5 -12q0 -24 18 -39q9 -5 17.5 -8.5t21.5 -4.5t24 -1l86 -3q34 0 60 -7t47 -26q17 -16 28 -43.5t11 -52.5q0 -103 -82 -161q-73 -52 -181 -52q-77 0 -130 27q-69 35 -69 106q0 40 22 69t60 43q12 7 16 12l-8 5q-49 17 -49 74q0 31 26.5 57.5
t58.5 37.5l7 2l1 7q-127 30 -127 160q0 39 21 73.5t56 53.5q29 15 66 21t80 6l103 -4h121l-1 -14v-32zM174 320q0 -58 19 -88q16 -26 45 -26q40 0 56 49q10 31 10 84q0 43 -11 72q-16 42 -51 42q-42 0 -58 -49q-10 -30 -10 -84z" />
    <glyph glyph-name="h" unicode="h" 
d="M203 755l-9 -236l-2 -108q28 32 67 54q43 25 81 25q69 0 117 -47q25 -24 33 -54t8 -73v-138v-125l1 -53q-17 0 -28 1q-43 4 -47 4q-15 0 -41 -2.5t-32 -2.5l5 64l3 92q0 15 1 44.5t1 43.5q0 32 -1.5 56t-5.5 45q-7 25 -28 42.5t-47 17.5q-60 0 -78 -66q-9 -32 -9 -114
q0 -52 2.5 -132.5t2.5 -92.5q-15 0 -41 2.5t-31 2.5q-15 0 -41 -2.5t-31 -2.5l3 64l4 249l1 116q0 53 -4 162t-4 164q17 -3 43.5 -4t30.5 -1h19q14 0 28.5 1t28.5 4z" />
    <glyph glyph-name="i" unicode="i" horiz-adv-x="278" 
d="M63 0l3 66l4 96l3 152q0 27 -3 82t-3 83l9 -1l72 -3q11 0 35 2t36 2l-7 -129q0 -33 -2 -110.5t-2 -83.5q0 -52 1 -83t7 -73q-17 0 -46.5 2.5t-35.5 2.5q-15 0 -40.5 -2.5t-30.5 -2.5zM64 663q0 31 23 55t55 24q33 0 56 -23t23 -56t-23 -56t-56 -23t-55.5 23.5t-22.5 55.5
z" />
    <glyph glyph-name="j" unicode="j" horiz-adv-x="278" 
d="M3 -205l-11 34q38 12 57.5 40.5t19.5 102.5l2 72v44v151v78l-3 119l-2 43l14 -1l67 -3q28 0 42 1q18 3 26 3q0 -26 -4 -80t-4 -81l-1 -88l2 -120v-29.5t1 -29.5q0 -30 -4 -72.5t-16 -69.5q-15 -35 -55 -66q-29 -23 -62 -35.5t-69 -12.5zM141 584q-32 0 -54 23t-22 54
q0 32 22 54t54 22q31 0 54 -22t23 -54t-22.5 -54.5t-54.5 -22.5z" />
    <glyph glyph-name="k" unicode="k" horiz-adv-x="500" 
d="M316 297l80 -128l98 -161v-8q-16 0 -43.5 2.5t-32.5 2.5q-18 0 -46 -2.5t-32 -2.5l-27 49l-34 60l-54 86q-10 16 -11 17q-8 10 -18 11l-3 -26l-1 -52l1 -62q0 -15 2.5 -45t2.5 -38q-15 0 -41 2.5t-31 2.5q-15 0 -41 -2.5t-31 -2.5v25q0 27 3.5 83t3.5 76l2 181l-2 191
q0 34 -2 74q-5 100 -5 125q18 -3 46.5 -4t32.5 -1q22 0 33.5 1t37.5 4q0 -41 -2 -88q-5 -118 -5 -148l-1 -84l-2 -127l3 -42q3 -3 9 -1q46 47 95 104q43 50 89 109l48 -2l45 2v-8q-27 -33 -83 -87q-60 -58 -84 -86z" />
    <glyph glyph-name="l" unicode="l" horiz-adv-x="278" 
d="M204 441q0 -91 2 -165q7 -257 7 -276q-16 0 -43.5 2.5t-32.5 2.5q-16 0 -43.5 -2.5t-32.5 -2.5q0 41 3.5 122t3.5 111v69v122l-2 164l-3 116q0 8 -2 25t-2 26q18 -3 44.5 -4t30.5 -1q19 0 38.5 1t38.5 4l-3 -42l-2 -109z" />
    <glyph glyph-name="m" unicode="m" horiz-adv-x="833" 
d="M49 479l9 -1l60 -3q11 0 35 2t36 2l-5 -74q23 36 65 60.5t84 24.5q48 0 82.5 -23.5t50.5 -68.5q28 42 64 66q41 27 88 27q35 0 64 -10.5t52 -35.5t32 -57t9 -74l-1 -161l1 -153l-9 1q-26 2 -38 3t-23 1q-15 0 -41 -2.5t-31 -2.5l2 51q0 43 2.5 115.5t2.5 87.5v20v39
q-3 16 -4 23q-4 32 -23 53t-50 21q-46 0 -67 -37q-10 -16 -13.5 -30.5t-3.5 -33.5v-11l-2 -80q0 -37 2 -124t2 -94q-15 0 -40 2.5t-31 2.5q-15 0 -41 -2.5t-32 -2.5q0 38 3 88q7 118 7 147l-3 71q0 42 -15 68q-19 33 -60 33q-46 0 -66 -39q-15 -30 -15 -81l-2 -56
q0 -38 3 -115t3 -116q-15 0 -41 2.5t-32 2.5q-16 0 -41 -2.5t-29 -2.5q0 49 2 161.5t2 120.5q0 33 -2 112t-2 85z" />
    <glyph glyph-name="n" unicode="n" 
d="M54 459l-1 20q12 0 41.5 -2t32.5 -2q27 0 40 1q17 3 25 3l-3 -73q31 39 67 60q40 24 85 24q73 0 125 -56q23 -26 30 -69q3 -20 3 -77l-1 -122l1 -166q-17 0 -45.5 2.5t-34.5 2.5q-15 0 -39 -2.5t-29 -2.5l4 52q0 25 2.5 66.5t2.5 49.5l1 75q0 76 -8 103q-17 59 -74 59
q-60 0 -78 -66q-9 -32 -9 -114q0 -52 2.5 -132.5t2.5 -92.5q-15 0 -41 2.5t-31 2.5q-15 0 -41 -2.5t-31 -2.5l3 52l2 125l1 114v40q0 27 -2.5 73t-2.5 55z" />
    <glyph glyph-name="o" unicode="o" 
d="M274 -14q-111 0 -177 65t-66 176q0 57 15.5 104t51.5 86q30 33 80 53.5t97 20.5q51 0 101 -16.5t81 -50t47.5 -80t16.5 -95.5q0 -117 -64 -188q-68 -75 -183 -75zM281 448q-46 0 -72 -50q-20 -38 -25 -92q0 -13 -2 -38t-2 -38q0 -77 14 -124q23 -76 80 -76q38 0 60 32
q15 22 26 68q5 20 9 64.5t4 70.5q0 12 -1.5 27t-2.5 23q0 48 -19 85q-24 48 -69 48z" />
    <glyph glyph-name="p" unicode="p" 
d="M282 54q31 0 51 24q14 17 28 52q7 20 10.5 50.5t3.5 57.5q0 37 -2.5 62t-10 54.5t-25.5 50.5q-22 25 -49 25q-57 0 -81 -75q-16 -50 -16 -122q0 -69 14 -112q22 -67 77 -67zM185 395q21 46 56.5 72t84.5 26q101 0 152 -74q45 -65 45 -170q0 -64 -12 -109.5t-49 -88.5
q-55 -62 -139 -62q-20 0 -42.5 5.5t-37 15t-28 23t-21.5 28.5q0 -27 1 -82t1 -83q0 -36 2.5 -91.5t2.5 -63.5q-33 4 -75 4h-31.5t-43.5 -4q0 74 2 133q7 208 7 223l2 154l-2 98q0 22 -2 74t-2 56q17 -2 32.5 -3t35.5 -1q28 0 42 1q18 3 26 3q0 -17 -3.5 -46.5t-3.5 -37.5z
" />
    <glyph glyph-name="q" unicode="q" 
d="M374 395l-1 13l-6 71q17 -2 32.5 -3t35.5 -1q28 0 42 1q18 3 26 3q0 -51 -1 -83q-4 -127 -4 -139l1 -160l2 -176q0 -31 3.5 -94t3.5 -86q-33 4 -75 4h-31.5t-43.5 -4q0 36 2.5 91.5t2.5 63.5q0 27 1 82t1 83q-20 -37 -59 -58q-10 -5 -32.5 -9.5t-37.5 -4.5q-96 0 -154 80
q-25 34 -35.5 76.5t-10.5 89.5q0 53 9 97t33 82q50 79 148 79q55 0 89.5 -23.5t58.5 -74.5zM184 246q0 -17 0.5 -26.5t3.5 -43.5q0 -43 22 -79q26 -43 67 -43q54 0 76 65q15 45 15 112q0 74 -15 122q-24 75 -82 75q-53 0 -74 -69q-13 -43 -13 -113z" />
    <glyph glyph-name="r" unicode="r" horiz-adv-x="389" 
d="M363 353l-9 -8q-9 7 -23 10t-28 3q-34 0 -58.5 -17.5t-33.5 -48.5q-4 -11 -5 -29.5t-1 -43.5v-43q0 -52 1 -92.5t5 -83.5q-15 0 -41 2.5t-32 2.5q-15 0 -40.5 -2.5t-30.5 -2.5q0 42 3 126t3 127q0 38 -3 113t-3 113q16 -2 31 -3t35 -1q28 0 42 1q18 3 26 3l-2 -123
q21 57 56 92q41 41 94 41q12 0 19 -1q-2 -18 -4 -37.5t-2 -34.5z" />
    <glyph glyph-name="s" unicode="s" horiz-adv-x="389" 
d="M46 126h25q14 -39 43.5 -60.5t70.5 -21.5q16 0 29 3t24 12q24 18 24 43q0 28 -40 51q-49 23 -65 30l-51 24q-34 15 -54.5 50.5t-20.5 74.5q0 47 21.5 82.5t64.5 54.5q18 8 43.5 14.5t42.5 6.5q38 0 77 -12.5t68 -34.5l-24 -87h-28q-6 34 -33.5 58.5t-61.5 24.5
q-30 0 -52 -14t-22 -43q0 -27 31 -46q12 -8 55 -25q79 -32 105 -54q44 -38 44 -107q0 -81 -69 -127q-26 -17 -57.5 -24.5t-66.5 -7.5q-78 0 -138 41z" />
    <glyph glyph-name="t" unicode="t" horiz-adv-x="333" 
d="M219 654l10 -5q-5 -61 -7.5 -96.5t-2.5 -79.5h88v-51h-88q0 -36 -3 -109t-3 -110l2 -72q0 -45 11.5 -66.5t44.5 -21.5q5 0 11.5 0.5t20.5 3.5l12 6v-39l-7 -4q-24 -8 -50.5 -13.5t-46.5 -5.5q-74 0 -105 43q-27 37 -27 114q0 33 2.5 89.5t2.5 68.5q0 19 1 58t1 58h-70v41
v10h70q0 20 -2 68t-2 52q28 11 69 29q29 13 68 32z" />
    <glyph glyph-name="u" unicode="u" 
d="M358 0l3 73q-40 -44 -65 -60q-35 -22 -85 -22q-42 0 -76.5 14.5t-57.5 47.5q-15 21 -20.5 51t-5.5 65v39l1 218l-1 53q14 0 46 -2t34 -2q28 0 42 1q18 3 26 3q-6 -57 -8 -130t-2 -140q0 -32 1.5 -49.5t9.5 -33.5q10 -25 27.5 -38.5t43.5 -13.5q59 0 77 66q10 36 10 114
q0 52 -1 84q-4 129 -4 141q12 0 36 -2t36 -2t36 2t36 2q0 -19 -2 -65t-2 -49l-2 -160v-51q0 -28 2.5 -75.5t2.5 -58.5l1 -20q-17 0 -28 1q-43 4 -47 4q-21 0 -37.5 -2t-26.5 -3z" />
    <glyph glyph-name="v" unicode="v" horiz-adv-x="500" 
d="M19 472v7q12 0 37 -2t38 -2q19 0 38 1t38 4l112 -347q37 98 63 171q32 91 59 175l12 -2q18 -2 28 -2q16 0 25.5 2t13.5 2q1 -5 -2.5 -12.5t-4.5 -10.5q-13 -27 -32 -72q-10 -23 -19 -45l-68 -168q-37 -94 -61 -171q-13 2 -28.5 3.5t-24.5 1.5q-12 0 -31 -2.5t-22 -2.5
l-54 158q-43 122 -56 157.5t-61 156.5z" />
    <glyph glyph-name="w" unicode="w" horiz-adv-x="778" 
d="M17 472v7q12 0 41.5 -2t32.5 -2q18 0 36.5 1t36.5 4l100 -343q35 107 54 170q23 78 48 172l10 -1l46 -3q24 0 35 1q14 3 21 3l102 -342q56 166 102 343l11 -3q18 -2 27 -2q16 0 25.5 2t13.5 2v-7l-7 -19q-18 -44 -41 -106q-9 -24 -63 -180l-20 -60l-18 -57l-15 -50l-10 1
q-12 2 -22 3t-24 1q-18 0 -32 -2t-23 -3l-99 326q-30 -92 -52 -162q-31 -97 -49 -164l-11 1q-12 2 -22 3t-24 1q-19 0 -34 -2t-24 -3q-37 134 -70 238q-36 115 -82 234z" />
    <glyph glyph-name="x" unicode="x" horiz-adv-x="500" 
d="M30 0v8q38 50 78 104q34 46 76 106q-34 60 -75 128q-35 59 -79 126v7q14 0 46.5 -2t34.5 -2q20 0 40.5 1t40.5 4q21 -39 43.5 -80.5t42.5 -76.5q25 36 53 77q24 36 51 79l12 -2q8 -1 15.5 -1.5t17.5 -0.5q7 0 15.5 0.5t23.5 3.5v-7q-29 -35 -60 -73q-36 -45 -97 -125
l55 -94l108 -180q-17 0 -46.5 2.5t-35.5 2.5q-17 0 -46 -2.5t-35 -2.5l-93 169q-28 -42 -55 -84q-33 -51 -53 -85q-16 2 -26.5 3.5t-12.5 1.5q-12 0 -22.5 -2t-16.5 -3z" />
    <glyph glyph-name="y" unicode="y" horiz-adv-x="500" 
d="M94 -257l127 256l-200 473l1 7q12 0 37 -2t38 -2q12 0 42 2t32 2q20 -56 43 -117q28 -74 77 -193l38 102q1 3 48 129q18 47 28 79q9 -2 18 -3t21 -1q16 0 25.5 2t13.5 2v-7l-97 -221q-64 -146 -108 -252q-49 -118 -100 -256l-11 2q-14 3 -27 3q-15 0 -27 -2t-19 -3z" />
    <glyph glyph-name="z" unicode="z" horiz-adv-x="500" 
d="M462 479v-38l-88 -124q-70 -99 -90 -128q-49 -71 -87 -131q53 0 96 2q150 7 161 7v-67q-35 0 -108 3t-110 3q-54 0 -103.5 -0.5t-110.5 -5.5v41q63 88 133 189q59 85 129 191q-48 0 -87 -2q-135 -7 -145 -7q4 16 4 37v15q-2 10 -2 15q51 0 128 -3t78 -3q34 0 101 3t101 3
z" />
    <glyph glyph-name="braceleft" unicode="{" horiz-adv-x="333" 
d="M116 427v188q0 41 6 61q10 33 37 50.5t58.5 23t70.5 5.5h20q-54 -14 -74.5 -42.5t-20.5 -83.5v-185q0 -60 -17 -87q-21 -33 -81 -47q60 -13 81 -49q17 -28 17 -91v-175q0 -54 21 -83.5t74 -41.5q-110 0 -148 27q-44 31 -44 128v167q0 55 -16 78q-19 27 -75 40
q21 5 37.5 13.5t29.5 23t18.5 30.5t5.5 50z" />
    <glyph glyph-name="bar" unicode="|" horiz-adv-x="606" 
d="M259 0v755h87v-755h-87z" />
    <glyph glyph-name="braceright" unicode="}" horiz-adv-x="333" 
d="M217 598v-166q0 -55 17.5 -80t73.5 -37q-21 -5 -37.5 -13.5t-31.5 -25.5t-18.5 -33.5t-3.5 -44.5v-188q0 -41 -6 -61q-10 -33 -39 -51.5t-69 -24.5q-22 -3 -78 -3q54 13 74.5 41.5t20.5 83.5v186q0 60 17 87q21 33 81 47q-60 13 -81 48q-17 29 -17 92v175q0 54 -21 83.5
t-74 41.5q110 0 148 -27q44 -32 44 -130z" />
    <glyph glyph-name="asciitilde" unicode="~" horiz-adv-x="606" 
d="M507 349l48 -55q-28 -51 -57 -77q-39 -36 -87 -36q-33 0 -88 24q-23 10 -44 19t-43.5 17.5t-40.5 8.5q-31 0 -58 -30q-14 -16 -38 -58l-48 55q38 70 75 97q32 23 70 23t117 -34.5t100 -34.5q29 0 56 27q19 19 38 54z" />
    <glyph glyph-name="c128" horiz-adv-x="815" 
d="M610 209q0 62 -37 94q-33 28 -88 28q-68 0 -135 -37v-6l1 -128q0 -37 2.5 -94t2.5 -66q-17 0 -46.5 2.5t-35.5 2.5q-18 0 -47 -2.5t-35 -2.5q0 28 3.5 78t3.5 64q0 79 2.5 200t2.5 139l-3 129q-15 0 -49.5 -2t-37.5 -2l-97 -10q5 18 5 43v16q-2 12 -2 17l-3 12l75 -2
q31 0 104 -2t78 -2l103 1q36 0 58 1q89 4 97 4q-3 -17 -3.5 -22.5t-0.5 -17.5q0 -27 4 -48q-92 14 -177 14l-2 -73l-3 -177q48 29 98.5 43t99.5 14q91 0 152 -48.5t61 -134.5q2 -16 4 -38.5t2 -57.5q0 -54 -8 -102t-28 -81q-31 -51 -81 -80q-46 -26 -110 -34l-15 47
q55 12 72 67q12 39 12 145v65t1 44z" />
    <glyph glyph-name="c129" horiz-adv-x="481" 
d="M74 671v13q26 0 79 -3t80 -3q48 0 129 2.5t97 2.5q-4 -19 -4 -43q0 -6 0.5 -13.5t1.5 -17.5l2 -12q-38 0 -114 6t-114 6l-2 -104l-1 -111v-183q0 -59 2 -111.5t5 -99.5q-15 0 -45 2.5t-38 2.5q-17 0 -46 -2.5t-35 -2.5l3 57l5 187l1 152v117q0 38 -1 58q-5 99 -5 100z
M358 831l-132 -81h-55l128 149q10 11 14 15q9 9 18 13q7 7 18.5 7.5t15.5 0.5q17 0 32 -12q12 -12 12 -32q0 -13 -5 -21q-1 -2 -14 -18z" />
    <glyph glyph-name="quotesinglbase" unicode="&#x201a;" horiz-adv-x="278" 
d="M52 -192l-24 10q13 59 24 104q4 16 28 103q5 21 12.5 46.5t12.5 35.5q19 39 57 39q28 0 49.5 -17.5t21.5 -45.5q0 -21 -34 -69l-26 -36l-89 -127z" />
    <glyph glyph-name="florin" unicode="&#x192;" horiz-adv-x="370" 
d="M364 479q-5 -18 -5 -33q0 -18 5 -35q-36 4 -69 7t-70 3h-27l-2 -71v-194q0 -52 1 -83t7 -73q-17 0 -46.5 2.5t-35.5 2.5q-15 0 -40.5 -2.5t-30.5 -2.5l3 66l4 96l1 152q0 27 -3 82t-3 83q33 -2 72 -4t75 -2h21q75 0 143 6zM306 626l-132 -81h-55l128 149q10 11 14 15
q9 9 18 13q7 7 18.5 7.5t15.5 0.5q17 0 32 -12q12 -12 12 -32q0 -13 -5 -21q-1 -2 -14 -18z" />
    <glyph glyph-name="quotedblbase" unicode="&#x201e;" horiz-adv-x="500" 
d="M52 -192l-24 10q13 59 24 104q4 16 28 103q5 21 12.5 46.5t12.5 35.5q19 39 57 39q28 0 49.5 -17.5t21.5 -45.5q0 -21 -34 -69l-26 -36l-89 -127zM259 -192l-24 10q13 59 24 104q4 16 28 103q5 21 12.5 46.5t12.5 35.5q19 39 57 39q28 0 49.5 -17.5t21.5 -45.5
q0 -21 -34 -69l-26 -36l-89 -127z" />
    <glyph glyph-name="ellipsis" unicode="&#x2026;" horiz-adv-x="1000" 
d="M166 -14q-34 0 -57.5 24.5t-23.5 57.5q0 32 24 57t57 25t58 -24t25 -58t-24 -58t-59 -24zM499 -14q-34 0 -57.5 24.5t-23.5 57.5q0 32 24 57t57 25t58 -24t25 -58t-24 -58t-59 -24zM832 -14q-34 0 -57.5 24.5t-23.5 57.5q0 32 24 57t57 25t58 -24t25 -58t-24 -58t-59 -24
z" />
    <glyph glyph-name="dagger" unicode="&#x2020;" 
d="M333 569l-3 -99l95 2l72 4q-2 -14 -3 -26t-1 -28q0 -13 1 -27t3 -27l-97 4l-70 2v-103q0 -47 3.5 -142t3.5 -129q-15 2 -30.5 3.5t-34.5 1.5q-16 0 -33 -1t-33 -4l6 119l3 117l-1 138q-27 0 -82 -3t-83 -3l3 54l-3 54q27 0 82 -3t83 -3l-1 56l-6 160q11 -2 32.5 -3
t33.5 -1h16h31q12 3 18 4z" />
    <glyph glyph-name="daggerdbl" unicode="&#x2021;" 
d="M503 128l-170 5q0 -18 1 -37l2 -38l3 -58l-7 1q-7 2 -24.5 3t-32.5 1q-16 0 -32 -1t-32 -4l4 65l6 68l-86 -2l-81 -3q1 9 2.5 23t1.5 30q0 12 -1.5 27t-2.5 23l167 -8v230l-80 -2l-87 -4q3 17 5 29.5t2 22.5q0 13 -3 28.5t-4 23.5q27 0 83 -3t84 -3q0 56 -1.5 77.5
t-6.5 62.5l7 -1q6 -1 24.5 -2t33.5 -1h17h24q17 3 25 4l-4 -45l-6 -95l73 2l98 4q-2 -14 -4 -30t-2 -29l3 -45l-70 3l-99 3l-1 -118v-112l81 4l90 4l-3 -50z" />
    <glyph glyph-name="perthousand" unicode="&#x2030;" horiz-adv-x="1000" 
d="M557 694l-396 -723q-14 3 -26 3q-13 0 -27 -3l395 723q16 -2 25 -2h14q10 2 15 2zM9 509q0 69 41 116t109 47q67 0 105 -45t38 -114q0 -94 -74 -146q-13 -9 -36.5 -14.5t-43.5 -5.5t-35 4.5t-35.5 16.5t-35.5 32q-10 14 -23 44q-5 13 -7.5 36.5t-2.5 28.5zM139 377
q6 -2 16 -2q38 0 51 61q7 32 7 93q0 42 -8 71q-13 46 -45 46q-37 0 -53 -55q-11 -38 -11 -86q0 -33 6 -68.5t22 -49.5q3 -4 7 -6zM369 150q0 69 41 116.5t109 47.5q67 0 105 -46t38 -114q0 -25 -1 -30q-5 -11 -6 -18q-4 -20 -13.5 -38t-24.5 -35q-11 -13 -23.5 -20.5
t-33 -15.5t-52.5 -8q-16 0 -35.5 5t-33.5 14q-22 13 -36 31q-9 12 -23 42q-5 10 -8 31.5t-3 37.5zM484 28q12 -12 33 -12q36 0 49 62q7 34 7 92q0 42 -8 71q-13 46 -45 46q-37 0 -53 -55q-11 -38 -11 -86q0 -38 5 -69.5t23 -48.5zM703 150q0 69 40.5 116.5t108.5 47.5
q67 0 105 -46t38 -114q0 -55 -29 -100q-16 -24 -29 -35t-38.5 -20.5t-57.5 -9.5q-37 0 -72 21q-18 11 -29 24t-28 52q-5 10 -7 29t-2 35zM872 23q23 21 30 68q4 25 4 79q0 46 -7 71q-13 46 -46 46q-29 0 -44.5 -31t-15.5 -63q-1 -10 -2.5 -23.5t-1.5 -29.5q0 -47 9 -77
q14 -47 47 -47q13 0 27 7z" />
    <glyph glyph-name="Scaron" unicode="&#x160;" horiz-adv-x="907" 
d="M577 330l-3 -120v-84l-1 -70q22 0 34 1t32 6q46 13 67 51q18 32 18 83q0 37 -10 67t-35 50q-13 10 -28 13.5t-38 3.5q-10 0 -19 -0.5t-17 -0.5zM428 603q-38 5 -47.5 5h-16.5q-16 0 -30 -3q-16 -40 -41 -99l-42 -98l-85 -217q-22 -56 -35.5 -97.5t-25.5 -91.5
q-17 3 -37 3h-12q-22 0 -47 -5v8l74 171q61 138 108 252q53 128 100 257q8 -1 68.5 -5.5t69.5 -4.5q29 0 88 3t70 3q0 -30 -4 -95t-4 -84l-1 -119l61 2q27 0 54 -0.5t54 -6.5q62 -14 99 -58.5t37 -107.5q0 -46 -11.5 -81.5t-41.5 -65.5q-33 -35 -80 -51.5t-102 -16.5l-137 3
l-87 -3q4 32 4.5 76.5t0.5 61.5l3 275q0 27 -2 98.5t-2 91.5z" />
    <glyph glyph-name="guilsinglleft" unicode="&#x2039;" horiz-adv-x="333" 
d="M215 82l-15 -11q-52 82 -78 122q-30 46 -49 73q50 75 80 122q10 16 47 75q15 -15 39 -29q7 -4 26 -15q-63 -79 -112 -152q64 -88 70 -96.5t43 -54.5q-13 -6 -24.5 -14t-26.5 -20z" />
    <glyph glyph-name="OE" unicode="&#x152;" horiz-adv-x="962" 
d="M632 330l-3 -120v-84l-1 -70q22 0 34 1t32 6q46 13 67 51q18 32 18 83q0 37 -10 67t-35 50q-13 10 -28 13.5t-38 3.5q-10 0 -19 -0.5t-17 -0.5zM487 330l-128 3l-133 -3v-121q0 -41 3.5 -114.5t3.5 -94.5q-16 0 -44.5 2.5t-34.5 2.5q-19 0 -50.5 -2.5t-37.5 -2.5
q0 56 4 137q9 183 9 230q0 66 -2 119q-7 186 -7 198q17 0 46 -2.5t35 -2.5q18 0 47 2.5t35 2.5q0 -27 -3.5 -76t-3.5 -63v-43v-92q26 0 76.5 -2t57.5 -2q25 0 73 2t54 2q0 39 -3.5 128t-3.5 127l-1 19q17 0 46 -2.5t35 -2.5q18 0 47 2.5t35 2.5q0 -30 -4 -95t-4 -84l-1 -119
l61 2q27 0 54 -0.5t54 -6.5q62 -14 99 -58.5t37 -107.5q0 -46 -11.5 -81.5t-41.5 -65.5q-33 -35 -80 -51.5t-102 -16.5l-137 3l-87 -3q4 32 4.5 76.5t0.5 61.5z" />
    <glyph glyph-name="c141" horiz-adv-x="611" 
d="M71 0l7 180v301l-6 203q17 0 46.5 -2.5t35.5 -2.5q39 0 77 6l-6 -224l-2 -93q78 90 131 155q66 80 125 161q32 -5 55 -5q26 0 56 5l-1 -8l-163 -175q-22 -24 -34 -37l-55 -66l263 -386v-12q-19 0 -50.5 2.5t-37.5 2.5q-38 0 -86 -5l-97 152l-106 161l6 -313
q-17 0 -46 2.5t-35 2.5q-17 0 -44.5 -2.5t-32.5 -2.5zM414 831l-132 -81h-55l128 149q10 11 14 15q9 9 18 13q7 7 18.5 7.5t15.5 0.5q17 0 32 -12q12 -12 12 -32q0 -13 -5 -21q-1 -2 -14 -18z" />
    <glyph glyph-name="c142" horiz-adv-x="815" 
d="M350 294v-6l1 -128q0 -37 2.5 -94t2.5 -66q-17 0 -46.5 2.5t-35.5 2.5q-18 0 -47 -2.5t-35 -2.5q0 28 3.5 78t3.5 64q0 79 2.5 200t2.5 139l-3 129q-15 0 -49.5 -2t-37.5 -2l-97 -10q5 18 5 43v16q-2 12 -2 17l-3 12l75 -2q31 0 104 -2t78 -2l103 1q36 0 58 1q89 4 97 4
q-3 -17 -3.5 -22.5t-0.5 -17.5q0 -27 4 -48q-92 14 -177 14l-2 -73l-3 -177q48 29 98.5 43t99.5 14q91 0 152 -48.5t61 -134.5q1 -37 1 -59q4 -157 4 -175q-17 0 -46 2.5t-35 2.5q-18 0 -47 -2.5t-35 -2.5q0 27 3.5 76t3.5 63l1 70q0 63 -35 92.5t-91 29.5q-68 0 -135 -37z
" />
    <glyph glyph-name="c143" horiz-adv-x="758" 
d="M323 6q-39 0 -124 -3t-133 -3q0 67 3 135q9 203 9 227q0 62 -2 121q-6 176 -6 201q17 0 46 -2.5t35 -2.5q18 0 47 2.5t35 2.5q0 -27 -3.5 -76t-3.5 -63q0 -33 -1 -95t-1 -90l2 -277q26 0 87.5 -2t66.5 -2q27 0 87 2t64 2v468q0 30 -1 49q-4 76 -4 84q17 0 46.5 -2.5
t35.5 -2.5q15 0 45 2.5t38 2.5q0 -28 -2 -51q-7 -79 -7 -85l-3 -233q0 -95 2.5 -165.5t9.5 -149.5q-56 0 -93 1q-146 4 -161 4l3 -80l-60 3l-60 -3q3 29 3 81z" />
    <glyph glyph-name="c144" 
d="M361 244q0 32 -1.5 56t-5.5 45q-7 25 -28 42.5t-47 17.5q-60 0 -78 -66q-9 -32 -9 -114q0 -52 2.5 -132.5t2.5 -92.5q-15 0 -41 2.5t-31 2.5q-15 0 -41 -2.5t-31 -2.5l3 64l4 249l1 116l-1 125h-51q4 12 5 19t1 15t-3 17h46l-5 150q17 -3 43.5 -4t30.5 -1h19q14 0 28.5 1
t28.5 4l-6 -150h151q-2 -13 -3.5 -22.5t-1.5 -16.5q1 -8 1 -12h-149l-1 -35l-2 -108q28 32 67 54q43 25 81 25q69 0 117 -47q25 -24 33 -54t8 -73q-1 -94 -1.5 -193.5t-0.5 -130.5q-5 -56 -17 -83q-15 -35 -55 -66q-29 -23 -62 -35.5t-69 -12.5l-11 34q38 12 57.5 40.5
t19.5 102.5l2 72v200z" />
    <glyph glyph-name="quoteleft" unicode="&#x2018;" horiz-adv-x="278" 
d="M218 705l24 -11l-46 -185q-6 -24 -13 -51.5t-14 -43.5q-10 -24 -23.5 -36t-38.5 -12q-30 0 -50 16t-20 46q0 17 11 36q10 13 13 18l59 85q24 35 49.5 72t48.5 66z" />
    <glyph glyph-name="quoteright" unicode="&#x2019;" horiz-adv-x="278" 
d="M67 370l-24 11l45 186q8 37 12 49q8 29 18 51t23.5 32.5t39.5 10.5q28 0 47.5 -18.5t19.5 -43.5q0 -16 -10 -32q-45 -68 -62 -93q-54 -79 -109 -153z" />
    <glyph glyph-name="quotedblleft" unicode="&#x201c;" horiz-adv-x="500" 
d="M238 705l25 -11l-24 -104q-6 -23 -28 -103q-6 -21 -11 -42q-8 -29 -14 -41q-10 -21 -22.5 -29.5t-35.5 -8.5q-30 0 -50 16t-20 46q0 12 6 23.5t15 26.5l50 73q19 29 39 58q27 40 70 96zM446 700l24 -10q-21 -90 -24 -104q-12 -48 -28 -104q-6 -21 -11 -42q-8 -30 -14 -40
q-10 -20 -23.5 -29.5t-34.5 -9.5q-30 0 -50 16.5t-20 46.5q0 14 11 34l20 30l52 75q38 58 59 87q7 10 39 50z" />
    <glyph glyph-name="quotedblright" unicode="&#x201d;" horiz-adv-x="500" 
d="M266 370l-24 11q26 113 52 208q5 20 12 44t13 38q19 39 61 39q27 0 47 -18t20 -45q0 -15 -11 -34q-5 -9 -21 -31l-46 -67q-27 -40 -49.5 -72.5t-53.5 -72.5zM59 375l-24 10l16 66q9 38 21.5 89t25.5 96q10 33 13.5 41.5t12.5 16.5q17 20 42 20q31 0 52.5 -16t21.5 -46
q0 -13 -6.5 -25.5t-18.5 -29.5l-58 -85l-55 -78l-21 -30q-12 -17 -22 -29z" />
    <glyph glyph-name="bullet" unicode="&#x2022;" horiz-adv-x="606" 
d="M304 510q71 0 121 -49t50 -121q0 -70 -50 -120t-121 -50t-121.5 49.5t-50.5 120.5t50.5 120.5t121.5 49.5z" />
    <glyph glyph-name="endash" unicode="&#x2013;" horiz-adv-x="500" 
d="M0 181v83h500v-83h-500z" />
    <glyph glyph-name="emdash" unicode="&#x2014;" horiz-adv-x="1000" 
d="M0 181v83h1000v-83h-1000z" />
    <glyph glyph-name="trademark" unicode="&#x2122;" horiz-adv-x="975" 
d="M912 621v-269q0 -32 7.5 -40.5t41.5 -8.5v-26h-173v26q34 0 42.5 7.5t8.5 40.5v278l-145 -352h-10l-151 352v-294q0 -21 11 -26.5t39 -5.5v-26h-131v26q24 0 32 2q18 5 18 32v284v13q0 14 -4.5 18.5t-22.5 4.5h-15v24h132l118 -279l118 279h133v-24h-19q-21 0 -25.5 -7
t-4.5 -29zM318 277h-197v26q35 0 49.5 11.5t14.5 33.5v301h-44q-42 0 -57.5 -14.5t-15.5 -55.5h-30v102h367v-102h-30q0 40 -16 55t-57 15h-44v-310q0 -17 13 -26.5t47 -9.5v-26z" />
    <glyph glyph-name="scaron" unicode="&#x161;" horiz-adv-x="722" 
d="M548 144q0 38 -16.5 58.5t-36 23t-32.5 2.5q-21 -1 -29 -1l-2 -93l2 -82q13 0 23.5 0.5t27.5 3.5q33 9 48 32t15 56zM445 479q-4 -44 -7 -91q0 -15 -2 -38l-3 -73l83 1q175 0 175 -122q0 -88 -66 -126q-52 -30 -146 -30l-99 2l-90 -2l3 66l3 96l3 152l-1 99q-18 2 -32 2
q-7 0 -19 -2q-7 -14 -18.5 -40.5t-23.5 -55.5q-44 -106 -64 -157q-31 -81 -54 -160l-41 3l-39 -3q52 114 108 241q63 143 99 238q33 -6 114 -6q37 0 71 2t46 4z" />
    <glyph glyph-name="guilsinglright" unicode="&#x203a;" horiz-adv-x="333" 
d="M125 457l15 12q30 -50 62 -99q44 -65 65 -97q-15 -22 -48 -73q-7 -11 -79 -124q-26 22 -30 25q-15 11 -35 19q4 5 41.5 54.5t71.5 97.5l-114 152q15 6 30 17.5t21 15.5z" />
    <glyph glyph-name="oe" unicode="&#x153;" horiz-adv-x="758" 
d="M585 144q0 38 -16.5 58.5t-36 23t-32.5 2.5q-21 -1 -29 -1l-2 -93l2 -82q13 0 23.5 0.5t27.5 3.5q33 9 48 32t15 56zM334 219l-68 3l-70 -3v-63q0 -52 1 -83t7 -73q-17 0 -46.5 2.5t-35.5 2.5q-15 0 -40.5 -2.5t-30.5 -2.5l3 66l4 96l3 152q0 27 -3 82t-3 83l9 -1l72 -3
q11 0 35 2t36 2l-8 -129l-3 -70l69 -3l71 3v34q0 27 -3 82t-3 83l9 -1l72 -3q11 0 35 2t36 2q-4 -44 -7 -91q0 -15 -2 -38l-3 -73l83 1q175 0 175 -122q0 -88 -66 -126q-52 -30 -146 -30l-99 2l-90 -2l3 66l3 96z" />
    <glyph glyph-name="c157" horiz-adv-x="500" 
d="M316 297l80 -128l98 -161v-8q-16 0 -43.5 2.5t-32.5 2.5q-18 0 -46 -2.5t-32 -2.5l-27 49l-34 60l-54 86q-10 16 -11 17q-8 10 -18 11l-3 -26l-1 -52l1 -62q0 -15 2.5 -45t2.5 -38q-15 0 -41 2.5t-31 2.5q-15 0 -41 -2.5t-31 -2.5v25q0 27 3.5 83t3.5 76v181l-7 115
q18 -3 46.5 -4t32.5 -1q22 0 33.5 1t37.5 4q-3 -34 -6.5 -81.5t-3.5 -83.5v-21t3 -28q3 -3 9 -1q46 47 95 104q43 50 89 109l48 -2l45 2v-8q-27 -33 -83 -87q-60 -58 -84 -86zM356 626l-132 -81h-55l128 149q10 11 14 15q9 9 18 13q7 7 18.5 7.5t15.5 0.5q17 0 32 -12
q12 -12 12 -32q0 -13 -5 -21q-1 -2 -14 -18z" />
    <glyph glyph-name="c158" 
d="M58 605l-5 150q17 -3 43.5 -4t30.5 -1h19q14 0 28.5 1t28.5 4l-6 -150h151q-2 -13 -3.5 -22.5t-1.5 -16.5q1 -8 1 -12h-149l-1 -35l-2 -108q28 32 67 54q43 25 81 25q69 0 117 -47q25 -24 33 -54t8 -73v-138v-125l1 -53q-17 0 -28 1q-43 4 -47 4q-15 0 -41 -2.5t-32 -2.5
l5 64l3 92q0 15 1 44.5t1 43.5q0 32 -1.5 56t-5.5 45q-7 25 -28 42.5t-47 17.5q-60 0 -78 -66q-9 -32 -9 -114q0 -52 2.5 -132.5t2.5 -92.5q-15 0 -41 2.5t-31 2.5q-15 0 -41 -2.5t-31 -2.5l3 64l4 249l1 116l-1 125h-51q4 12 5 19t1 15t-3 17h46z" />
    <glyph glyph-name="Ydieresis" unicode="&#x178;" 
d="M226 5l-175 -5l3 66l4 96l3 152q0 27 -3 82t-3 83l9 -1l72 -3q11 0 35 2t36 2l-8 -129q0 -47 -1.5 -120t-1.5 -74q0 -15 1 -47.5t1 -49.5h156l4 103l3 152q0 27 -3 82t-3 83l9 -1l72 -3q11 0 35 2t36 2l-7 -129q0 -33 -2 -110.5t-2 -83.5q0 -17 3 -78t3 -78q-33 0 -54 1
q-103 5 -118 5l3 -67q-20 3 -42 3h-13q-14 0 -28.5 -0.5t-26.5 -2.5z" />
    <glyph glyph-name="nonbreakingspace" unicode="&#xa0;" horiz-adv-x="500" 
 />
    <glyph glyph-name="exclamdown" unicode="&#xa1;" horiz-adv-x="648" 
d="M4 684q20 0 54 -2.5t39 -2.5q45 0 89 6l46 -88l49 -94q7 -14 18 -32q26 -44 31.5 -55.5t24 -43t24.5 -37.5l16 20l17 31q7 14 38 83q24 54 38 83l37 82l22 50l12 -2q17 -3 33 -3q22 0 49 5q-19 -36 -67 -123q-31 -57 -65 -121q-42 -80 -69 -136q-10 -20 -29 -61
q-22 -46 -25 -54q-17 -39 -38 -93.5t-33 -95.5q-25 0 -38.5 1t-26.5 2q-11 0 -40 -3q26 43 49.5 87.5t42.5 86.5q-4 13 -21.5 45t-35.5 65q-39 70 -84 145.5t-76 125.5q-41 64 -81 129zM521 831q-20 -47 -61 -76t-99 -29q-57 0 -98 29t-62 76l32 17q42 -63 129 -63
q42 0 74.5 15.5t52.5 47.5z" />
    <glyph glyph-name="cent" unicode="&#xa2;" horiz-adv-x="481" 
d="M94 -257l127 256l-200 473l1 7q12 0 37 -2t38 -2q12 0 42 2t32 2q20 -56 43 -117q28 -74 77 -193l38 102q1 3 48 129q18 47 28 79q9 -2 18 -3t21 -1q16 0 25.5 2t13.5 2v-7l-97 -221q-64 -146 -108 -252q-49 -118 -100 -256l-11 2q-14 3 -27 3q-15 0 -27 -2t-19 -3z
M438 630q-20 -47 -61 -76t-99 -29q-57 0 -98 29t-62 76l32 17q42 -63 129 -63q42 0 74.5 15.5t52.5 47.5z" />
    <glyph glyph-name="sterling" unicode="&#xa3;" horiz-adv-x="333" 
d="M29 -159l-15 47q77 16 77 92q4 42 5 80t1 88l1 178l2 136l-2 98l-5 124q15 0 45 -2.5t38 -2.5q42 0 83 6q-3 -33 -5.5 -72.5t-2.5 -57.5l-2 -121l-1 -37l3 -231v-27.5t1 -26.5q0 -50 -6 -87.5t-26 -69.5q-31 -51 -81 -80q-46 -26 -110 -34z" />
    <glyph glyph-name="currency" unicode="&#xa4;" 
d="M50 155l48 48q-21 32 -31.5 65.5t-10.5 69.5q0 41 9.5 74t32.5 65l-48 47l66 68l49 -48q30 21 67 32t75 11q73 0 134 -43l48 48l66 -68l-48 -47q44 -57 44 -138q0 -38 -10.5 -72.5t-32.5 -63.5l48 -48l-66 -67l-48 48q-61 -44 -137 -44q-40 0 -74.5 10t-66.5 34l-48 -48z
M307 482q-61 0 -103.5 -41.5t-42.5 -102.5q0 -59 43 -100t102 -41q58 0 99 42t41 101q0 56 -41 99t-98 43z" />
    <glyph glyph-name="yen" unicode="&#xa5;" horiz-adv-x="481" 
d="M447 726h15q-4 -19 -5 -31.5t-1 -31.5v-31t3 -35q-38 0 -114 6t-114 6l-2 -104l-1 -111v-183q0 -59 2 -111.5t5 -99.5q-15 0 -45 2.5t-38 2.5q-17 0 -46 -2.5t-35 -2.5l3 57l5 187l1 152v117q0 38 -1 58q-5 99 -5 100v13q26 0 79 -3t80 -3q94 0 126 5q61 10 88 43z" />
    <glyph glyph-name="brokenbar" unicode="&#xa6;" horiz-adv-x="606" 
d="M260 0v283h86v-283h-86zM260 472v283h86v-283h-86z" />
    <glyph glyph-name="section" unicode="&#xa7;" 
d="M426 565h-13l-6 16q-13 32 -44.5 49t-69.5 17q-31 0 -54.5 -19.5t-23.5 -51.5q0 -29 27 -52q11 -10 94 -51l78 -38q12 -6 22.5 -14t23.5 -21q40 -42 40 -98q0 -40 -22 -76q-18 -29 -53 -60q58 -40 58 -108q0 -53 -33 -97t-85 -64q-17 -6 -48.5 -12t-48.5 -6
q-50 0 -96 12.5t-85 38.5q14 52 18 105h18q25 -50 61 -76.5t88 -26.5q37 0 68.5 23t31.5 59q0 27 -16 45q-11 13 -40 29q-13 7 -38 18.5t-42 18.5q-30 13 -57.5 26t-59.5 34q-24 15 -36 48.5t-12 66.5q0 40 24 78.5t60 62.5q-46 37 -46 94q0 78 52.5 122t132.5 44
q60 0 93.5 -9.5t81.5 -43.5q-16 -28 -22 -40q-10 -20 -21 -43zM395 188q12 13 19.5 28t7.5 32q0 26 -28 50q-15 12 -94 52q-31 15 -60.5 30.5t-58.5 35.5q-33 -26 -33 -65q0 -37 54 -69q20 -12 87 -41l51 -24z" />
    <glyph glyph-name="dieresis" unicode="&#xa8;" horiz-adv-x="500" 
d="M74 671v13q26 0 79 -3t80 -3q48 0 129 2.5t97 2.5q-4 -19 -4 -43q0 -6 0.5 -13.5t1.5 -17.5l2 -12q-38 0 -114 6t-114 6l-2 -104l-1 -111l227 8q-2 -16 -3.5 -27.5t-1.5 -19.5q0 -13 1.5 -21t3.5 -17q-29 0 -88 4t-90 4l-49 1l-1 -127l1 -126q106 0 231 13q-4 -19 -4 -43
q0 -6 0.5 -13.5t1.5 -17.5l2 -12q-30 0 -90 3t-91 3l-118 -3l-89 -3l3 57l5 187l1 152v117q0 38 -1 58q-5 99 -5 100zM356 889q26 0 45 -19t19 -46q0 -26 -18.5 -45.5t-45.5 -19.5t-46 19t-19 46t19 46t46 19zM145 759q-24 0 -43 20t-19 45q0 26 18.5 45.5t43.5 19.5
q26 0 45.5 -18.5t19.5 -46.5q0 -27 -19 -46t-46 -19z" />
    <glyph glyph-name="ordfeminine" unicode="&#xaa;" horiz-adv-x="667" 
d="M199 325q0 -56 14 -104t45 -89t79 -63.5t101 -22.5q46 0 95 20.5t84 53.5l13 -5l-22 -85q-43 -22 -94 -32.5t-104 -10.5q-47 0 -81 5q-3 1 -50 10q-23 5 -54.5 19.5t-53 28.5t-41.5 34q-16 16 -33 38q-32 43 -47.5 92t-15.5 106q0 93 25.5 160t89.5 124q54 47 128.5 69.5
t154.5 22.5q53 0 107 -12.5t97 -35.5q-5 -20 -11.5 -48.5t-11.5 -53.5h-14q-28 40 -72 64t-94 24q-102 0 -163 -73q-54 -64 -67 -168h225q23 0 42 1t51 6q-5 -20 -5 -40q0 -19 5 -42q-38 7 -93 7h-229z" />
    <glyph glyph-name="guillemotleft" unicode="&#xab;" horiz-adv-x="500" 
d="M229 82l-15 -11q-21 33 -63 98t-64 97q16 24 48 73q5 8 79 124q15 -15 39 -29q7 -4 26 -15q-21 -26 -55.5 -73t-56.5 -79q64 -88 70 -96.5t43 -54.5q-13 -6 -24.5 -14t-26.5 -20zM377 82l-15 -11q-52 82 -78 122q-30 46 -49 73q50 75 80 122q10 16 47 75q12 -10 29.5 -22
t35.5 -22q-63 -79 -112 -152q64 -88 70 -96.5t43 -54.5q-13 -6 -24.5 -14t-26.5 -20z" />
    <glyph glyph-name="logicalnot" unicode="&#xac;" horiz-adv-x="606" 
d="M469 114v196h-418v86h504v-282h-86z" />
    <glyph glyph-name="minus" unicode="&#xad;" horiz-adv-x="333" 
d="M314 582h-294v72h294v-72z" />
    <glyph glyph-name="registered" unicode="&#xae;" horiz-adv-x="750" 
d="M375 -18q-144 0 -246 105t-102 255q0 148 101.5 252.5t246.5 104.5q144 0 245.5 -104.5t101.5 -252.5q0 -150 -101 -255t-246 -105zM375 644q-122 0 -205 -88t-83 -214q0 -127 83 -216t205 -89q121 0 204 89t83 216q0 126 -83 214t-204 88zM258 206v287q0 20 -4.5 24.5
t-24.5 4.5h-15v21h153q45 0 66 -2t40.5 -14t31.5 -34t12 -44q0 -42 -28 -69t-70 -34q27 -6 48 -35q11 -15 29 -55q16 -32 33 -63q11 -15 32 -15v-20h-69q-16 5 -17 5q-7 3 -14 11q-36 72 -71 144q-9 10 -18.5 12t-29.5 2h-15v-122q0 -16 2.5 -23.5t23.5 -7.5l17 -1v-20h-157
v20h14q20 0 25.5 4t5.5 24zM327 481v-123l19 -1q48 0 71 16q29 20 29 67q0 41 -21 61t-60 20l-21 -2q-10 0 -13.5 -7t-3.5 -19v-12z" />
    <glyph glyph-name="macron" unicode="&#xaf;" horiz-adv-x="333" 
d="M243 684q0 -22 -2 -49q-5 -67 -5 -84q0 -33 -3 -98t-3 -98q0 -34 3 -103t3 -104q0 -18 5 -92q2 -30 2 -56q-16 0 -44.5 2.5t-34.5 2.5q-40 0 -88 -5q0 56 4 137q9 183 9 230v54l-2 129q0 28 -1 55.5t-6 78.5q17 0 46 -2.5t35 -2.5q18 0 47 2.5t35 2.5zM272 889
q26 0 45 -19t19 -46q0 -26 -18.5 -45.5t-45.5 -19.5t-46 19t-19 46t19 46t46 19zM61 759q-24 0 -43 20t-19 45q0 26 18.5 45.5t43.5 19.5q26 0 45.5 -18.5t19.5 -46.5q0 -27 -19 -46t-46 -19z" />
    <glyph glyph-name="degree" unicode="&#xb0;" horiz-adv-x="400" 
d="M350 520q0 -62 -44 -106t-106 -44t-106 44t-44 106t44 106t106 44t106 -44t44 -106zM295 520q0 39 -28 67t-68 28q-38 0 -66 -28t-28 -67q0 -40 27.5 -67.5t67.5 -27.5t67.5 27.5t27.5 67.5z" />
    <glyph glyph-name="twosuperior" unicode="&#xb2;" horiz-adv-x="333" 
d="M243 684q0 -22 -2 -49q-5 -67 -5 -84q0 -33 -3 -98t-3 -98q0 -34 3 -103t3 -104q0 -18 5 -92q2 -30 2 -56q-16 0 -44.5 2.5t-34.5 2.5q-40 0 -88 -5q0 56 4 137q9 183 9 230v54l-2 129q0 28 -1 55.5t-6 78.5q17 0 46 -2.5t35 -2.5q18 0 47 2.5t35 2.5z" />
    <glyph glyph-name="threesuperior" unicode="&#xb3;" horiz-adv-x="278" 
d="M63 0l3 66l4 96l3 152q0 27 -3 82t-3 83l9 -1l72 -3q11 0 35 2t36 2l-7 -129q0 -33 -2 -110.5t-2 -83.5q0 -52 1 -83t7 -73q-17 0 -46.5 2.5t-35.5 2.5q-15 0 -40.5 -2.5t-30.5 -2.5zM64 663q0 31 23 55t55 24q33 0 56 -23t23 -56t-23 -56t-56 -23t-55.5 23.5t-22.5 55.5
z" />
    <glyph glyph-name="acute" unicode="&#xb4;" horiz-adv-x="370" 
d="M364 411q-36 4 -69 7t-70 3h-27l-2 -71v-194q0 -52 1 -83t7 -73q-17 0 -46.5 2.5t-35.5 2.5q-15 0 -40.5 -2.5t-30.5 -2.5l3 66l4 96l1 152q0 27 -3 82t-3 83q32 -2 70.5 -4t73.5 -2q77 0 106.5 10.5t51.5 35.5h10q-5 -29 -5 -39.5v-19.5q0 -29 4 -49z" />
    <glyph glyph-name="paragraph" unicode="&#xb6;" horiz-adv-x="700" 
d="M537 638v-681h49v-46h-363v46h74v374l-34 -2q-43 0 -78 9t-62 32t-42.5 62t-15.5 77q0 49 21 90t63 62q31 15 67 19t89 4h22h259v-46h-49zM446 638h-58v-681h58v681zM217 539v-68q0 -63 21 -89q18 -22 52 -22l7 1v277q-49 0 -64.5 -23.5t-15.5 -75.5z" />
    <glyph glyph-name="periodcentered" unicode="&#xb7;" horiz-adv-x="278" 
d="M138 182q-29 0 -50 21t-21 50q0 28 21 49t50 21t49.5 -20.5t20.5 -49.5t-20 -50t-50 -21z" />
    <glyph glyph-name="periodcentered" unicode="&#x2219;" horiz-adv-x="278" 
d="M138 182q-29 0 -50 21t-21 50q0 28 21 49t50 21t49.5 -20.5t20.5 -49.5t-20 -50t-50 -21z" />
    <glyph glyph-name="cedilla" unicode="&#xb8;" horiz-adv-x="500" 
d="M181 286h155q-1 3 -1 6.5v4.5q0 8 -1 12q0 48 -12 85q-18 55 -57 55q-48 0 -69 -61q-15 -43 -15 -102zM469 238h-288l4 -57q0 -22 15 -52.5t33.5 -46.5t40 -23t48.5 -7q31 0 61 12t56 33l12 -9l-22 -56q-64 -45 -143 -45q-64 0 -109 16t-84 60q-32 35 -45 82.5t-13 104.5
q0 107 61.5 174.5t167.5 67.5q110 0 161 -73q44 -63 44 -181zM356 684q26 0 45 -19t19 -46q0 -26 -18.5 -45.5t-45.5 -19.5t-46 19t-19 46t19 46t46 19zM145 554q-24 0 -43 20t-19 45q0 26 18.5 45.5t43.5 19.5q26 0 45.5 -18.5t19.5 -46.5q0 -27 -19 -46t-46 -19z" />
    <glyph glyph-name="onesuperior" unicode="&#xb9;" horiz-adv-x="1111" 
d="M939 699q32 0 65 -9.5t53 -29.5t31 -49t11 -57q0 -70 -42.5 -113.5t-118.5 -43.5q-73 0 -115.5 38.5t-42.5 105.5q0 33 10.5 62.5t33.5 51.5q19 20 51.5 32t63.5 12zM943 674q-30 0 -47 -30q-13 -23 -17 -56l-2 -45q0 -46 9 -75q15 -46 52 -46q24 0 39 20q10 14 17 41
q4 14 6 36.5t2 44.5l-2 30q-4 41 -19.5 60.5t-37.5 19.5zM790 277v50h299v-50h-299zM171 0l-7 1l-39 4q-21 0 -46 -5q9 98 13.5 227t4.5 249l-1 161l-2 47q25 -5 45 -5t45 5q37 -40 145 -156q72 -77 145 -156q92 -100 144 -159l1 220l-1 111q0 20 -3 60t-3 61l-1 19
q15 -2 26 -3.5t19 -1.5q7 0 22 2t23 2l-3 -55q0 -22 -2 -47q-5 -64 -5 -80q0 -46 -2.5 -99.5t-3.5 -88.5v-102v-211l-11 2q-15 3 -29 3q-19 0 -42 -5q-73 87 -106 124q-57 66 -109 123q-39 43 -112 120l-109 114l-3 -134v-91q0 -32 5 -160q2 -51 2 -96z" />
    <glyph glyph-name="ordmasculine" unicode="&#xba;" horiz-adv-x="481" 
d="M183 222q0 -32 7.5 -60t26.5 -55.5t48 -40.5t67 -13q28 0 57 13t47 34l17 -14l-24 -59q-18 -16 -61 -27t-74 -11q-56 0 -101 13q-55 16 -89 50q-72 73 -72 179q0 119 72 189t191 70q45 0 91 -11.5t81 -34.5l-34 -92h-29q-8 40 -33 63q-28 26 -68 26q-57 0 -90 -55
q-29 -48 -29 -109h109q12 0 22 0.5t40 4.5q-3 -17 -3 -32q0 -16 3 -33q-27 4 -40 4.5t-22 0.5h-110z" />
    <glyph glyph-name="guillemotright" unicode="&#xbb;" horiz-adv-x="500" 
d="M275 450l14 12q32 -54 62 -99q44 -65 66 -97q-33 -49 -65 -98l-63 -99l-22 18q-21 16 -42 26q39 50 57 75q23 30 55 77l-114 152q13 4 27 14q9 6 25 19zM127 450l14 12q32 -54 62 -99q44 -65 66 -97q-33 -49 -65 -98l-63 -99q-26 22 -30 25q-15 11 -35 19q4 5 41.5 54.5
t71.5 97.5l-114 152q15 6 25.5 13t26.5 20z" />
    <glyph glyph-name="onequarter" unicode="&#xbc;" horiz-adv-x="278" 
d="M3 -205l-11 34q38 12 57.5 40.5t19.5 102.5l2 72v44v151v78l-3 119l-2 43l14 -1l67 -3q28 0 42 1q18 3 26 3q0 -26 -4 -80t-4 -81l-1 -88l2 -120v-29.5t1 -29.5q0 -30 -4 -72.5t-16 -69.5q-15 -35 -55 -66q-29 -23 -62 -35.5t-69 -12.5zM141 584q-32 0 -54 23t-22 54
q0 32 22 54t54 22q31 0 54 -22t23 -54t-22.5 -54.5t-54.5 -22.5z" />
    <glyph glyph-name="onehalf" unicode="&#xbd;" horiz-adv-x="500" 
d="M404 549h-15q-16 41 -44 63t-71 22q-30 0 -45.5 -4.5t-34.5 -22.5q-30 -27 -30 -69q0 -45 63 -85q63 -35 127 -69q76 -44 97 -92q9 -18 13 -41.5t4 -47.5q0 -21 -7 -47t-17 -47q-16 -33 -44 -58q-24 -21 -62 -39q-32 -15 -63.5 -20.5t-71.5 -5.5q-43 0 -85 10.5t-76 31.5
q13 46 18.5 69.5t10.5 56.5h19q11 -51 48 -79t90 -28q50 0 83.5 26t33.5 75q0 24 -8.5 41t-28.5 36q-26 18 -52 32.5t-60 30.5q-20 9 -40.5 22.5t-39.5 26.5q-35 21 -52 62t-17 88q0 52 17.5 88.5t58.5 69.5q35 28 70.5 38.5t84.5 10.5q41 0 78 -9.5t71 -30.5l9 -7l-12 -36
q-11 -33 -20 -62z" />
    <glyph glyph-name="threequarters" unicode="&#xbe;" horiz-adv-x="389" 
d="M46 126h25q14 -39 43.5 -60.5t70.5 -21.5q16 0 29 3t24 12q24 18 24 43q0 28 -40 51q-49 23 -65 30l-51 24q-34 15 -54.5 50.5t-20.5 74.5q0 47 21.5 82.5t64.5 54.5q18 8 43.5 14.5t42.5 6.5q38 0 77 -12.5t68 -34.5l-24 -87h-28q-6 34 -33.5 58.5t-61.5 24.5
q-30 0 -52 -14t-22 -43q0 -27 31 -46q12 -8 55 -25q79 -32 105 -54q44 -38 44 -107q0 -81 -69 -127q-26 -17 -57.5 -24.5t-66.5 -7.5q-78 0 -138 41z" />
    <glyph glyph-name="questiondown" unicode="&#xbf;" horiz-adv-x="278" 
d="M63 0l3 66l4 96l3 152q0 27 -3 82t-3 83l9 -1l72 -3q11 0 35 2t36 2l-7 -129q0 -33 -2 -110.5t-2 -83.5q0 -52 1 -83t7 -73q-17 0 -46.5 2.5t-35.5 2.5q-15 0 -40.5 -2.5t-30.5 -2.5zM245 684q26 0 45 -19t19 -46q0 -26 -18.5 -45.5t-45.5 -19.5t-46 19t-19 46t19 46
t46 19zM34 554q-24 0 -43 20t-19 45q0 26 18.5 45.5t43.5 19.5q26 0 45.5 -18.5t19.5 -46.5q0 -27 -19 -46t-46 -19z" />
    <glyph glyph-name="Agrave" unicode="&#xc0;" horiz-adv-x="648" 
d="M6 0v8l74 171q59 133 109.5 256.5t98.5 254.5q9 -2 20.5 -3.5t17.5 -1.5q13 0 20.5 1.5l17.5 3.5l7 -17q44 -115 84 -218q49 -124 87 -218q32 -79 91 -217l5 -11v-9q-19 0 -31 1q-49 4 -54 4q-16 0 -29 -0.5t-55 -4.5q-23 76 -32 103q-16 50 -37 101l-110 3l-122 -2
l-5 -14q-22 -63 -33 -94q-21 -61 -30 -97q-22 4 -31.5 4.5t-15.5 0.5q-22 0 -47 -5zM197 274l-3 -9h183q-40 110 -89 233q-26 -61 -47.5 -113t-43.5 -111z" />
    <glyph glyph-name="Agrave" unicode="&#x410;" horiz-adv-x="648" 
d="M6 0v8l74 171q59 133 109.5 256.5t98.5 254.5q9 -2 20.5 -3.5t17.5 -1.5q13 0 20.5 1.5l17.5 3.5l7 -17q44 -115 84 -218q49 -124 87 -218q32 -79 91 -217l5 -11v-9q-19 0 -31 1q-49 4 -54 4q-16 0 -29 -0.5t-55 -4.5q-23 76 -32 103q-16 50 -37 101l-110 3l-122 -2
l-5 -14q-22 -63 -33 -94q-21 -61 -30 -97q-22 4 -31.5 4.5t-15.5 0.5q-22 0 -47 -5zM197 274l-3 -9h183q-40 110 -89 233q-26 -61 -47.5 -113t-43.5 -111z" />
    <glyph glyph-name="Aacute" unicode="&#xc1;" horiz-adv-x="592" 
d="M230 59l49 -2q28 0 51 10.5t38 33.5q27 41 27 88q0 73 -33.5 107.5t-99.5 34.5h-15q-12 -2 -18 -2l-1 -144zM232 609l-3 -118l1 -104h17h14h12h35t38 1h14q93 0 144 -54q48 -51 48 -138q0 -76 -53 -134q-23 -24 -56 -38q-25 -11 -66 -19q-11 -2 -29.5 -3.5t-37.5 -1.5
l-147 3l-87 -3q4 28 6 66t2 72q0 48 2 158t2 117q0 42 -4 128t-4 130v13q19 0 77 -3t76 -3q63 0 102 1q156 4 184 4q-4 -19 -4 -43q0 -6 0.5 -13.5t1.5 -17.5l2 -12q-38 0 -114 6t-114 6h-59z" />
    <glyph glyph-name="Aacute" unicode="&#x411;" horiz-adv-x="592" 
d="M230 59l49 -2q28 0 51 10.5t38 33.5q27 41 27 88q0 73 -33.5 107.5t-99.5 34.5h-15q-12 -2 -18 -2l-1 -144zM232 609l-3 -118l1 -104h17h14h12h35t38 1h14q93 0 144 -54q48 -51 48 -138q0 -76 -53 -134q-23 -24 -56 -38q-25 -11 -66 -19q-11 -2 -29.5 -3.5t-37.5 -1.5
l-147 3l-87 -3q4 28 6 66t2 72q0 48 2 158t2 117q0 42 -4 128t-4 130v13q19 0 77 -3t76 -3q63 0 102 1q156 4 184 4q-4 -19 -4 -43q0 -6 0.5 -13.5t1.5 -17.5l2 -12q-38 0 -114 6t-114 6h-59z" />
    <glyph glyph-name="Acircumflex" unicode="&#xc2;" horiz-adv-x="592" 
d="M372 370v-9q32 0 65.5 -12t59.5 -33q55 -48 55 -120q0 -76 -53 -134q-23 -24 -56 -38q-25 -11 -66 -19q-11 -2 -29.5 -3.5t-37.5 -1.5l-147 3l-87 -3q4 28 6 66t2 72q0 48 2 158t2 117q0 44 -4 135t-4 137l113 -3l144 2q86 0 137 -33q62 -40 62 -121q0 -67 -50 -111
q-44 -39 -114 -49zM230 387h16q34 0 55.5 4t43 22t32 45t10.5 58q0 21 -8.5 48.5t-22.5 38.5q-33 27 -76 27h-19.5t-27.5 -4q0 -23 -2 -77t-2 -58zM230 59l49 -2q28 0 51 10.5t38 33.5q27 41 27 88q0 73 -33.5 107.5t-99.5 34.5h-15q-12 -2 -18 -2l-1 -144z" />
    <glyph glyph-name="Acircumflex" unicode="&#x412;" horiz-adv-x="592" 
d="M372 370v-9q32 0 65.5 -12t59.5 -33q55 -48 55 -120q0 -76 -53 -134q-23 -24 -56 -38q-25 -11 -66 -19q-11 -2 -29.5 -3.5t-37.5 -1.5l-147 3l-87 -3q4 28 6 66t2 72q0 48 2 158t2 117q0 44 -4 135t-4 137l113 -3l144 2q86 0 137 -33q62 -40 62 -121q0 -67 -50 -111
q-44 -39 -114 -49zM230 387h16q34 0 55.5 4t43 22t32 45t10.5 58q0 21 -8.5 48.5t-22.5 38.5q-33 27 -76 27h-19.5t-27.5 -4q0 -23 -2 -77t-2 -58zM230 59l49 -2q28 0 51 10.5t38 33.5q27 41 27 88q0 73 -33.5 107.5t-99.5 34.5h-15q-12 -2 -18 -2l-1 -144z" />
    <glyph glyph-name="Atilde" unicode="&#xc3;" horiz-adv-x="481" 
d="M74 671v13q26 0 79 -3t80 -3q48 0 129 2.5t97 2.5q-4 -19 -4 -43q0 -6 0.5 -13.5t1.5 -17.5l2 -12q-38 0 -114 6t-114 6l-2 -104l-1 -111v-183q0 -59 2 -111.5t5 -99.5q-15 0 -45 2.5t-38 2.5q-17 0 -46 -2.5t-35 -2.5l3 57l5 187l1 152v117q0 38 -1 58q-5 99 -5 100z
" />
    <glyph glyph-name="Atilde" unicode="&#x413;" horiz-adv-x="481" 
d="M74 671v13q26 0 79 -3t80 -3q48 0 129 2.5t97 2.5q-4 -19 -4 -43q0 -6 0.5 -13.5t1.5 -17.5l2 -12q-38 0 -114 6t-114 6l-2 -104l-1 -111v-183q0 -59 2 -111.5t5 -99.5q-15 0 -45 2.5t-38 2.5q-17 0 -46 -2.5t-35 -2.5l3 57l5 187l1 152v117q0 38 -1 58q-5 99 -5 100z
" />
    <glyph glyph-name="Adieresis" unicode="&#xc4;" horiz-adv-x="703" 
d="M156 76q28 0 95.5 -2t79.5 -2h22h18h15h12q45 0 72 4q-12 48 -35 112q-14 38 -28 77q-20 57 -45 122q-14 37 -44 111q-23 -52 -45 -107q-25 -62 -46 -117q-29 -73 -41 -105q-23 -59 -30 -93zM641 74l42 -2q-6 -24 -6 -53q0 -31 6 -64h-15q-27 34 -78 42.5t-171 8.5h-62
q-133 0 -168 -2q-119 -7 -154 -49h-15q2 9 3.5 28t1.5 36t-1 26t-4 27h44l46 107q59 133 109.5 256.5t98.5 254.5q9 -2 20.5 -3.5t17.5 -1.5q13 0 20.5 1.5l17.5 3.5l7 -17q54 -142 117 -300q60 -150 123 -299z" />
    <glyph glyph-name="Adieresis" unicode="&#x414;" horiz-adv-x="703" 
d="M156 76q28 0 95.5 -2t79.5 -2h22h18h15h12q45 0 72 4q-12 48 -35 112q-14 38 -28 77q-20 57 -45 122q-14 37 -44 111q-23 -52 -45 -107q-25 -62 -46 -117q-29 -73 -41 -105q-23 -59 -30 -93zM641 74l42 -2q-6 -24 -6 -53q0 -31 6 -64h-15q-27 34 -78 42.5t-171 8.5h-62
q-133 0 -168 -2q-119 -7 -154 -49h-15q2 9 3.5 28t1.5 36t-1 26t-4 27h44l46 107q59 133 109.5 256.5t98.5 254.5q9 -2 20.5 -3.5t17.5 -1.5q13 0 20.5 1.5l17.5 3.5l7 -17q54 -142 117 -300q60 -150 123 -299z" />
    <glyph glyph-name="Aring" unicode="&#xc5;" horiz-adv-x="500" 
d="M74 671v13q26 0 79 -3t80 -3q48 0 129 2.5t97 2.5q-4 -19 -4 -43q0 -6 0.5 -13.5t1.5 -17.5l2 -12q-38 0 -114 6t-114 6l-2 -104l-1 -111l227 8q-2 -16 -3.5 -27.5t-1.5 -19.5q0 -13 1.5 -21t3.5 -17q-29 0 -88 4t-90 4l-49 1l-1 -127l1 -126q106 0 231 13q-4 -19 -4 -43
q0 -6 0.5 -13.5t1.5 -17.5l2 -12q-30 0 -90 3t-91 3l-118 -3l-89 -3l3 57l5 187l1 152v117q0 38 -1 58q-5 99 -5 100z" />
    <glyph glyph-name="Aring" unicode="&#x415;" horiz-adv-x="500" 
d="M74 671v13q26 0 79 -3t80 -3q48 0 129 2.5t97 2.5q-4 -19 -4 -43q0 -6 0.5 -13.5t1.5 -17.5l2 -12q-38 0 -114 6t-114 6l-2 -104l-1 -111l227 8q-2 -16 -3.5 -27.5t-1.5 -19.5q0 -13 1.5 -21t3.5 -17q-29 0 -88 4t-90 4l-49 1l-1 -127l1 -126q106 0 231 13q-4 -19 -4 -43
q0 -6 0.5 -13.5t1.5 -17.5l2 -12q-30 0 -90 3t-91 3l-118 -3l-89 -3l3 57l5 187l1 152v117q0 38 -1 58q-5 99 -5 100z" />
    <glyph glyph-name="AE" unicode="&#xc6;" horiz-adv-x="906" 
d="M375 682l80 -3q37 0 75 6q0 -39 -2 -129t-2 -95l-2 -93q78 90 131 155q66 80 125 161q32 -5 55 -5q26 0 56 5l-1 -8l-163 -175q-22 -24 -34 -37l-55 -66l263 -386v-12q-19 0 -50.5 2.5t-37.5 2.5q-38 0 -86 -5l-97 152l-106 161l8 -313q-17 0 -28 1q-44 4 -49 4
q-17 0 -46 -2.5t-35 -2.5l6 313l-106 -161l-97 -152q-42 4 -59 4.5t-27 0.5q-19 0 -50.5 -2.5t-37.5 -2.5v12l263 386q-22 26 -43 52q-17 20 -46 51l-163 175l-1 8q26 -4 35.5 -4.5t20.5 -0.5q13 0 24 1t31 4q33 -45 82 -107q28 -35 86 -105q51 -62 88 -104l-2 93z" />
    <glyph glyph-name="AE" unicode="&#x416;" horiz-adv-x="906" 
d="M375 682l80 -3q37 0 75 6q0 -39 -2 -129t-2 -95l-2 -93q78 90 131 155q66 80 125 161q32 -5 55 -5q26 0 56 5l-1 -8l-163 -175q-22 -24 -34 -37l-55 -66l263 -386v-12q-19 0 -50.5 2.5t-37.5 2.5q-38 0 -86 -5l-97 152l-106 161l8 -313q-17 0 -28 1q-44 4 -49 4
q-17 0 -46 -2.5t-35 -2.5l6 313l-106 -161l-97 -152q-42 4 -59 4.5t-27 0.5q-19 0 -50.5 -2.5t-37.5 -2.5v12l263 386q-22 26 -43 52q-17 20 -46 51l-163 175l-1 8q26 -4 35.5 -4.5t20.5 -0.5q13 0 24 1t31 4q33 -45 82 -107q28 -35 86 -105q51 -62 88 -104l-2 93z" />
    <glyph glyph-name="Ccedilla" unicode="&#xc7;" horiz-adv-x="536" 
d="M492 195q0 -95 -80 -156q-75 -57 -185 -57q-95 0 -178 49l-11 80l13 6q40 -38 80.5 -56.5t79.5 -18.5q56 0 91 37t35 100q0 82 -42 117q-34 28 -97 28h-24.5t-26.5 -2q3 20 3 38q0 19 -3 37l38 -2q68 0 101 38q30 34 30 94q0 52 -31 82t-77 30q-39 0 -75.5 -22.5
t-61.5 -69.5h-16q0 21 -1.5 37.5t-10.5 70.5q90 44 197 44q97 0 158 -38q68 -42 68 -122q0 -71 -45 -115q-40 -39 -114 -54v-9q77 0 127 -38q58 -44 58 -128z" />
    <glyph glyph-name="Ccedilla" unicode="&#x417;" horiz-adv-x="536" 
d="M492 195q0 -95 -80 -156q-75 -57 -185 -57q-95 0 -178 49l-11 80l13 6q40 -38 80.5 -56.5t79.5 -18.5q56 0 91 37t35 100q0 82 -42 117q-34 28 -97 28h-24.5t-26.5 -2q3 20 3 38q0 19 -3 37l38 -2q68 0 101 38q30 34 30 94q0 52 -31 82t-77 30q-39 0 -75.5 -22.5
t-61.5 -69.5h-16q0 21 -1.5 37.5t-10.5 70.5q90 44 197 44q97 0 158 -38q68 -42 68 -122q0 -71 -45 -115q-40 -39 -114 -54v-9q77 0 127 -38q58 -44 58 -128z" />
    <glyph glyph-name="Egrave" unicode="&#xc8;" horiz-adv-x="758" 
d="M690 0q-11 2 -36 3.5t-50 1.5l-73 -4l-7 -1q0 32 5 160q2 51 2 96v91l-3 134q-30 -36 -56 -68q-33 -41 -65 -84q-44 -58 -118 -160q-107 -147 -123 -169q-25 5 -44 5q-13 0 -27 -3l-11 -2v211v102q0 46 -2.5 99t-3.5 89q0 22 -2 47q-5 64 -5 80l-3 55l82 -4l82 5l-1 -19
q0 -20 -3 -60t-3 -61l-1 -111l1 -220q36 43 87 107q24 31 49 62q56 72 111 145.5t113 156.5q25 -5 45 -5t45 5l-2 -47l-1 -161q0 -143 3.5 -250.5t14.5 -225.5z" />
    <glyph glyph-name="Egrave" unicode="&#x418;" horiz-adv-x="758" 
d="M690 0q-11 2 -36 3.5t-50 1.5l-73 -4l-7 -1q0 32 5 160q2 51 2 96v91l-3 134q-30 -36 -56 -68q-33 -41 -65 -84q-44 -58 -118 -160q-107 -147 -123 -169q-25 5 -44 5q-13 0 -27 -3l-11 -2v211v102q0 46 -2.5 99t-3.5 89q0 22 -2 47q-5 64 -5 80l-3 55l82 -4l82 5l-1 -19
q0 -20 -3 -60t-3 -61l-1 -111l1 -220q36 43 87 107q24 31 49 62q56 72 111 145.5t113 156.5q25 -5 45 -5t45 5l-2 -47l-1 -161q0 -143 3.5 -250.5t14.5 -225.5z" />
    <glyph glyph-name="Eacute" unicode="&#xc9;" horiz-adv-x="758" 
d="M539 831q-20 -47 -61 -76t-99 -29q-57 0 -98 29t-62 76l32 17q42 -63 129 -63q42 0 74.5 15.5t52.5 47.5zM690 0q-11 2 -36 3.5t-50 1.5l-73 -4l-7 -1q0 32 5 160q2 51 2 96v91l-3 134q-30 -36 -56 -68q-33 -41 -65 -84q-44 -58 -118 -160q-107 -147 -123 -169
q-25 5 -44 5q-13 0 -27 -3l-11 -2v211v102q0 46 -2.5 99t-3.5 89q0 22 -2 47q-5 64 -5 80l-3 55l82 -4l82 5l-1 -19q0 -20 -3 -60t-3 -61l-1 -111l1 -220q36 43 87 107q24 31 49 62q56 72 111 145.5t113 156.5q25 -5 45 -5t45 5l-2 -47l-1 -161q0 -143 3.5 -250.5
t14.5 -225.5z" />
    <glyph glyph-name="Eacute" unicode="&#x419;" horiz-adv-x="758" 
d="M539 831q-20 -47 -61 -76t-99 -29q-57 0 -98 29t-62 76l32 17q42 -63 129 -63q42 0 74.5 15.5t52.5 47.5zM690 0q-11 2 -36 3.5t-50 1.5l-73 -4l-7 -1q0 32 5 160q2 51 2 96v91l-3 134q-30 -36 -56 -68q-33 -41 -65 -84q-44 -58 -118 -160q-107 -147 -123 -169
q-25 5 -44 5q-13 0 -27 -3l-11 -2v211v102q0 46 -2.5 99t-3.5 89q0 22 -2 47q-5 64 -5 80l-3 55l82 -4l82 5l-1 -19q0 -20 -3 -60t-3 -61l-1 -111l1 -220q36 43 87 107q24 31 49 62q56 72 111 145.5t113 156.5q25 -5 45 -5t45 5l-2 -47l-1 -161q0 -143 3.5 -250.5
t14.5 -225.5z" />
    <glyph glyph-name="Ecircumflex" unicode="&#xca;" horiz-adv-x="611" 
d="M71 0l7 180v301l-6 203q17 0 46.5 -2.5t35.5 -2.5q39 0 77 6l-6 -224l-2 -93q78 90 131 155q66 80 125 161q32 -5 55 -5q26 0 56 5l-1 -8l-163 -175q-22 -24 -34 -37l-55 -66l263 -386v-12q-19 0 -50.5 2.5t-37.5 2.5q-38 0 -86 -5l-97 152l-106 161l6 -313
q-17 0 -46 2.5t-35 2.5q-17 0 -44.5 -2.5t-32.5 -2.5z" />
    <glyph glyph-name="Ecircumflex" unicode="&#x41a;" horiz-adv-x="611" 
d="M71 0l7 180v301l-6 203q17 0 46.5 -2.5t35.5 -2.5q39 0 77 6l-6 -224l-2 -93q78 90 131 155q66 80 125 161q32 -5 55 -5q26 0 56 5l-1 -8l-163 -175q-22 -24 -34 -37l-55 -66l263 -386v-12q-19 0 -50.5 2.5t-37.5 2.5q-38 0 -86 -5l-97 152l-106 161l6 -313
q-17 0 -46 2.5t-35 2.5q-17 0 -44.5 -2.5t-32.5 -2.5z" />
    <glyph glyph-name="Edieresis" unicode="&#xcb;" horiz-adv-x="648" 
d="M291 498q-20 -46 -34 -80q-2 -5 -58 -144l-33 -83q-22 -56 -35.5 -97.5t-25.5 -91.5q-17 3 -37 3h-12q-22 0 -47 -5v8l74 171q59 133 109.5 256.5t98.5 254.5q9 -2 20.5 -3.5t17.5 -1.5q13 0 20.5 1.5l17.5 3.5l7 -17q44 -115 84 -218q49 -124 87 -218q32 -79 91 -217
l5 -11v-9q-19 0 -31 1q-49 4 -54 4h-27.5t-27.5 1h-16q-12 -2 -17 -2q-15 48 -29.5 96t-35.5 104q-30 87 -70 188q-21 54 -42 106z" />
    <glyph glyph-name="Edieresis" unicode="&#x41b;" horiz-adv-x="648" 
d="M291 498q-20 -46 -34 -80q-2 -5 -58 -144l-33 -83q-22 -56 -35.5 -97.5t-25.5 -91.5q-17 3 -37 3h-12q-22 0 -47 -5v8l74 171q59 133 109.5 256.5t98.5 254.5q9 -2 20.5 -3.5t17.5 -1.5q13 0 20.5 1.5l17.5 3.5l7 -17q44 -115 84 -218q49 -124 87 -218q32 -79 91 -217
l5 -11v-9q-19 0 -31 1q-49 4 -54 4h-27.5t-27.5 1h-16q-12 -2 -17 -2q-15 48 -29.5 96t-35.5 104q-30 87 -70 188q-21 54 -42 106z" />
    <glyph glyph-name="Igrave" unicode="&#xcc;" horiz-adv-x="889" 
d="M96 384l41 300q8 0 22.5 -2.5t17.5 -2.5q14 0 24.5 2t16.5 3q48 -105 74 -159q10 -21 78 -157q39 -79 79 -157l59 115q93 181 174 358l11 -2q9 -2 16.5 -2h16.5q24 0 41 4q20 -182 34 -296t21 -172l24 -174q1 -4 4 -19t3 -23q-17 0 -46.5 2.5t-35.5 2.5q-17 0 -46 -2.5
t-35 -2.5q0 97 -14.5 221t-27.5 240q-38 -77 -75.5 -153.5t-74.5 -152.5q-25 -52 -72 -155q-16 2 -24 2q-4 0 -14 -2l-77 160q-38 79 -70 145q-36 72 -72 145l-21 -177l-10 -113l-7 -98l-4 -62q-22 4 -31.5 4.5t-15.5 0.5q-21 0 -46 -5q0 9 1 15t6 22q5 24 14 75q6 38 14 83
t15.5 101t11.5 88z" />
    <glyph glyph-name="Igrave" unicode="&#x41c;" horiz-adv-x="889" 
d="M96 384l41 300q8 0 22.5 -2.5t17.5 -2.5q14 0 24.5 2t16.5 3q48 -105 74 -159q10 -21 78 -157q39 -79 79 -157l59 115q93 181 174 358l11 -2q9 -2 16.5 -2h16.5q24 0 41 4q20 -182 34 -296t21 -172l24 -174q1 -4 4 -19t3 -23q-17 0 -46.5 2.5t-35.5 2.5q-17 0 -46 -2.5
t-35 -2.5q0 97 -14.5 221t-27.5 240q-38 -77 -75.5 -153.5t-74.5 -152.5q-25 -52 -72 -155q-16 2 -24 2q-4 0 -14 -2l-77 160q-38 79 -70 145q-36 72 -72 145l-21 -177l-10 -113l-7 -98l-4 -62q-22 4 -31.5 4.5t-15.5 0.5q-21 0 -46 -5q0 9 1 15t6 22q5 24 14 75q6 38 14 83
t15.5 101t11.5 88z" />
    <glyph glyph-name="Iacute" unicode="&#xcd;" horiz-adv-x="758" 
d="M70 684q17 0 46 -2.5t35 -2.5q18 0 47 2.5t35 2.5q0 -27 -3.5 -76t-3.5 -63v-43v-92q26 0 87.5 -2t66.5 -2q27 0 87.5 2t64.5 2l-1 141q0 30 -1 49q-4 76 -4 84q17 0 46.5 -2.5t35.5 -2.5q15 0 45 2.5t38 2.5q0 -28 -2 -51q-7 -79 -7 -85l-3 -233q0 -65 2 -118
q7 -184 7 -197q-17 0 -45.5 2.5t-34.5 2.5q-19 0 -51.5 -2.5t-37.5 -2.5l9 138l3 144l1 48l-153 3l-153 -3v-121q0 -41 3.5 -114.5t3.5 -94.5q-16 0 -44.5 2.5t-34.5 2.5q-19 0 -50.5 -2.5t-37.5 -2.5q0 56 4 137q9 183 9 230q0 66 -2 119q-7 186 -7 198z" />
    <glyph glyph-name="Iacute" unicode="&#x41d;" horiz-adv-x="758" 
d="M70 684q17 0 46 -2.5t35 -2.5q18 0 47 2.5t35 2.5q0 -27 -3.5 -76t-3.5 -63v-43v-92q26 0 87.5 -2t66.5 -2q27 0 87.5 2t64.5 2l-1 141q0 30 -1 49q-4 76 -4 84q17 0 46.5 -2.5t35.5 -2.5q15 0 45 2.5t38 2.5q0 -28 -2 -51q-7 -79 -7 -85l-3 -233q0 -65 2 -118
q7 -184 7 -197q-17 0 -45.5 2.5t-34.5 2.5q-19 0 -51.5 -2.5t-37.5 -2.5l9 138l3 144l1 48l-153 3l-153 -3v-121q0 -41 3.5 -114.5t3.5 -94.5q-16 0 -44.5 2.5t-34.5 2.5q-19 0 -50.5 -2.5t-37.5 -2.5q0 56 4 137q9 183 9 230q0 66 -2 119q-7 186 -7 198z" />
    <glyph glyph-name="Icircumflex" unicode="&#xce;" horiz-adv-x="833" 
d="M801 343q0 -77 -30.5 -147t-88 -120t-125.5 -72t-150 -22q-78 0 -149.5 24t-123 75t-74.5 115t-23 143q0 78 30 147t88 118.5t127 71.5t149 22q66 0 124.5 -16t107.5 -51q41 -28 64 -56q27 -32 43.5 -72t23.5 -78.5t7 -81.5zM412 41q60 0 104.5 30t75.5 85q23 43 33 95.5
t10 110.5q0 111 -48 187q-57 91 -162 91q-38 0 -61.5 -6.5t-51.5 -27.5q-46 -34 -68.5 -80t-31.5 -101.5t-9 -114.5q0 -110 48 -183q56 -86 161 -86z" />
    <glyph glyph-name="Icircumflex" unicode="&#x41e;" horiz-adv-x="833" 
d="M801 343q0 -77 -30.5 -147t-88 -120t-125.5 -72t-150 -22q-78 0 -149.5 24t-123 75t-74.5 115t-23 143q0 78 30 147t88 118.5t127 71.5t149 22q66 0 124.5 -16t107.5 -51q41 -28 64 -56q27 -32 43.5 -72t23.5 -78.5t7 -81.5zM412 41q60 0 104.5 30t75.5 85q23 43 33 95.5
t10 110.5q0 111 -48 187q-57 91 -162 91q-38 0 -61.5 -6.5t-51.5 -27.5q-46 -34 -68.5 -80t-31.5 -101.5t-9 -114.5q0 -110 48 -183q56 -86 161 -86z" />
    <glyph glyph-name="Idieresis" unicode="&#xcf;" horiz-adv-x="758" 
d="M70 684q67 0 104 -1q186 -5 206 -5q68 0 172 3t139 3q0 -28 -2 -51q-7 -79 -7 -85l-3 -233q0 -65 2 -118q7 -184 7 -197q-17 0 -45.5 2.5t-34.5 2.5q-19 0 -51.5 -2.5t-37.5 -2.5l9 138q0 143 1 244t2 172l1 47q-35 0 -57 1q-87 4 -96 4q-35 0 -90 -2.5t-63 -2.5v-392
q0 -41 3.5 -114.5t3.5 -94.5q-16 0 -44.5 2.5t-34.5 2.5q-19 0 -50.5 -2.5t-37.5 -2.5q0 56 4 137q9 183 9 230q0 66 -2 119q-7 186 -7 198z" />
    <glyph glyph-name="Idieresis" unicode="&#x41f;" horiz-adv-x="758" 
d="M70 684q67 0 104 -1q186 -5 206 -5q68 0 172 3t139 3q0 -28 -2 -51q-7 -79 -7 -85l-3 -233q0 -65 2 -118q7 -184 7 -197q-17 0 -45.5 2.5t-34.5 2.5q-19 0 -51.5 -2.5t-37.5 -2.5l9 138q0 143 1 244t2 172l1 47q-35 0 -57 1q-87 4 -96 4q-35 0 -90 -2.5t-63 -2.5v-392
q0 -41 3.5 -114.5t3.5 -94.5q-16 0 -44.5 2.5t-34.5 2.5q-19 0 -50.5 -2.5t-37.5 -2.5q0 56 4 137q9 183 9 230q0 66 -2 119q-7 186 -7 198z" />
    <glyph glyph-name="Eth" unicode="&#xd0;" 
d="M69 684l93 -3q22 0 72.5 2t53.5 2q27 0 54 -0.5t54 -6.5q62 -14 99 -58.5t37 -107.5q0 -46 -11.5 -81.5t-41.5 -66t-64 -44.5q-24 -10 -76 -19q-17 -3 -43.5 -4t-29.5 -1h-44q0 -35 1 -70t2 -69q0 -27 3 -79t3 -78q-15 0 -45 2.5t-38 2.5q-18 0 -47 -2.5t-35 -2.5l4 53
q0 24 2.5 63t2.5 46l1 152q0 46 -2 153t-2 115v25q0 38 -3 77zM226 627l-3 -120v-84l-1 -72q22 0 34 1t32 6q46 13 67 52q18 33 18 84q0 37 -10 67t-35 50q-13 10 -28 13.5t-38 3.5q-10 0 -19 -0.5t-17 -0.5z" />
    <glyph glyph-name="Eth" unicode="&#x420;" 
d="M69 684l93 -3q22 0 72.5 2t53.5 2q27 0 54 -0.5t54 -6.5q62 -14 99 -58.5t37 -107.5q0 -46 -11.5 -81.5t-41.5 -66t-64 -44.5q-24 -10 -76 -19q-17 -3 -43.5 -4t-29.5 -1h-44q0 -35 1 -70t2 -69q0 -27 3 -79t3 -78q-15 0 -45 2.5t-38 2.5q-18 0 -47 -2.5t-35 -2.5l4 53
q0 24 2.5 63t2.5 46l1 152q0 46 -2 153t-2 115v25q0 38 -3 77zM226 627l-3 -120v-84l-1 -72q22 0 34 1t32 6q46 13 67 52q18 33 18 84q0 37 -10 67t-35 50q-13 10 -28 13.5t-38 3.5q-10 0 -19 -0.5t-17 -0.5z" />
    <glyph glyph-name="Ntilde" unicode="&#xd1;" horiz-adv-x="667" 
d="M617 120l13 -5l-22 -85q-43 -22 -94 -32.5t-104 -10.5q-47 0 -81 5q-3 1 -50 10q-23 5 -54.5 19.5t-53 28.5t-41.5 34q-16 16 -33 38q-32 43 -47.5 92t-15.5 106q0 93 25.5 160t89.5 124q54 47 128.5 69.5t154.5 22.5q53 0 107 -12.5t97 -35.5q-5 -20 -11.5 -48.5
t-11.5 -53.5h-14q-28 40 -72 64t-94 24q-116 0 -179 -95q-55 -83 -55 -205q0 -57 14 -109.5t45 -93t79 -63t101 -22.5q46 0 95 20.5t84 53.5z" />
    <glyph glyph-name="Ntilde" unicode="&#x421;" horiz-adv-x="667" 
d="M617 120l13 -5l-22 -85q-43 -22 -94 -32.5t-104 -10.5q-47 0 -81 5q-3 1 -50 10q-23 5 -54.5 19.5t-53 28.5t-41.5 34q-16 16 -33 38q-32 43 -47.5 92t-15.5 106q0 93 25.5 160t89.5 124q54 47 128.5 69.5t154.5 22.5q53 0 107 -12.5t97 -35.5q-5 -20 -11.5 -48.5
t-11.5 -53.5h-14q-28 40 -72 64t-94 24q-116 0 -179 -95q-55 -83 -55 -205q0 -57 14 -109.5t45 -93t79 -63t101 -22.5q46 0 95 20.5t84 53.5z" />
    <glyph glyph-name="Ograve" unicode="&#xd2;" 
d="M355 610l-2 -73l-3 -249l1 -128q0 -37 2.5 -94t2.5 -66q-17 0 -46.5 2.5t-35.5 2.5q-18 0 -47 -2.5t-35 -2.5q0 28 3.5 78t3.5 64q0 79 2.5 200t2.5 139l-3 129q-15 0 -49.5 -2t-37.5 -2l-97 -10q5 18 5 43v16q-2 12 -2 17l-3 12l75 -2q31 0 104 -2t78 -2l103 1
q36 0 58 1q89 4 97 4q-3 -17 -3.5 -22.5t-0.5 -17.5q0 -27 4 -48q-92 14 -177 14z" />
    <glyph glyph-name="Ograve" unicode="&#x422;" 
d="M355 610l-2 -73l-3 -249l1 -128q0 -37 2.5 -94t2.5 -66q-17 0 -46.5 2.5t-35.5 2.5q-18 0 -47 -2.5t-35 -2.5q0 28 3.5 78t3.5 64q0 79 2.5 200t2.5 139l-3 129q-15 0 -49.5 -2t-37.5 -2l-97 -10q5 18 5 43v16q-2 12 -2 17l-3 12l75 -2q31 0 104 -2t78 -2l103 1
q36 0 58 1q89 4 97 4q-3 -17 -3.5 -22.5t-0.5 -17.5q0 -27 4 -48q-92 14 -177 14z" />
    <glyph glyph-name="Oacute" unicode="&#xd3;" horiz-adv-x="648" 
d="M4 684q20 0 54 -2.5t39 -2.5q45 0 89 6l46 -88l49 -94q7 -14 18 -32q26 -44 31.5 -55.5t24 -43t24.5 -37.5l16 20l17 31q7 14 38 83q24 54 38 83l37 82l22 50l12 -2q17 -3 33 -3q22 0 49 5q-19 -36 -67 -123q-31 -57 -65 -121q-42 -80 -69 -136q-10 -20 -29 -61
q-22 -46 -25 -54q-17 -39 -38 -93.5t-33 -95.5q-25 0 -38.5 1t-26.5 2q-11 0 -40 -3q26 43 49.5 87.5t42.5 86.5q-4 13 -21.5 45t-35.5 65q-39 70 -84 145.5t-76 125.5q-41 64 -81 129z" />
    <glyph glyph-name="Oacute" unicode="&#x423;" horiz-adv-x="648" 
d="M4 684q20 0 54 -2.5t39 -2.5q45 0 89 6l46 -88l49 -94q7 -14 18 -32q26 -44 31.5 -55.5t24 -43t24.5 -37.5l16 20l17 31q7 14 38 83q24 54 38 83l37 82l22 50l12 -2q17 -3 33 -3q22 0 49 5q-19 -36 -67 -123q-31 -57 -65 -121q-42 -80 -69 -136q-10 -20 -29 -61
q-22 -46 -25 -54q-17 -39 -38 -93.5t-33 -95.5q-25 0 -38.5 1t-26.5 2q-11 0 -40 -3q26 43 49.5 87.5t42.5 86.5q-4 13 -21.5 45t-35.5 65q-39 70 -84 145.5t-76 125.5q-41 64 -81 129z" />
    <glyph glyph-name="Ocircumflex" unicode="&#xd4;" horiz-adv-x="869" 
d="M360 109q0 39 2.5 122t2.5 108q0 49 -3 126t-3 110q-85 -15 -124 -67q-44 -59 -44 -181q0 -85 39 -142q44 -64 130 -76zM679 372q0 81 -39 133q-43 58 -130 72q0 -39 -2.5 -116.5t-2.5 -103.5q0 -71 1.5 -138.5t2.5 -106.5q84 18 127 89t43 171zM515 56l4 -56
q-16 0 -44.5 2.5t-34.5 2.5q-19 0 -50.5 -2.5t-37.5 -2.5l4 54q-152 0 -240 77q-91 80 -91 221q0 121 86 192.5t246 85.5l-4 54q17 0 46 -2.5t35 -2.5q18 0 47 2.5t35 2.5l-2 -52q174 0 260 -89q71 -73 71 -188q0 -120 -88 -201.5t-242 -97.5z" />
    <glyph glyph-name="Ocircumflex" unicode="&#x424;" horiz-adv-x="869" 
d="M360 109q0 39 2.5 122t2.5 108q0 49 -3 126t-3 110q-85 -15 -124 -67q-44 -59 -44 -181q0 -85 39 -142q44 -64 130 -76zM679 372q0 81 -39 133q-43 58 -130 72q0 -39 -2.5 -116.5t-2.5 -103.5q0 -71 1.5 -138.5t2.5 -106.5q84 18 127 89t43 171zM515 56l4 -56
q-16 0 -44.5 2.5t-34.5 2.5q-19 0 -50.5 -2.5t-37.5 -2.5l4 54q-152 0 -240 77q-91 80 -91 221q0 121 86 192.5t246 85.5l-4 54q17 0 46 -2.5t35 -2.5q18 0 47 2.5t35 2.5l-2 -52q174 0 260 -89q71 -73 71 -188q0 -120 -88 -201.5t-242 -97.5z" />
    <glyph glyph-name="Otilde" unicode="&#xd5;" horiz-adv-x="611" 
d="M240 316l-205 368q18 0 50 -2.5t39 -2.5q19 0 50.5 2.5t38.5 2.5q26 -56 76 -151q24 -46 48 -91q30 47 74 120q36 61 73 122q28 -5 50 -5q15 0 26.5 1t22.5 5v-7l-93 -130l-116 -165l13 -23q49 -89 99 -177q55 -100 96 -183q-19 0 -32 1q-50 4 -55 4q-18 0 -49 -2.5
t-37 -2.5q-29 59 -81 158q-34 64 -50 95l-92 -144l-42 -75l-19 -34l-45 5q-24 0 -51 -5q105 158 211 316z" />
    <glyph glyph-name="Otilde" unicode="&#x425;" horiz-adv-x="611" 
d="M240 316l-205 368q18 0 50 -2.5t39 -2.5q19 0 50.5 2.5t38.5 2.5q26 -56 76 -151q24 -46 48 -91q30 47 74 120q36 61 73 122q28 -5 50 -5q15 0 26.5 1t22.5 5v-7l-93 -130l-116 -165l13 -23q49 -89 99 -177q55 -100 96 -183q-19 0 -32 1q-50 4 -55 4q-18 0 -49 -2.5
t-37 -2.5q-29 59 -81 158q-34 64 -50 95l-92 -144l-42 -75l-19 -34l-45 5q-24 0 -51 -5q105 158 211 316z" />
    <glyph glyph-name="Odieresis" unicode="&#xd6;" horiz-adv-x="758" 
d="M400 6q-77 0 -118 -1q-204 -5 -216 -5q0 67 3 135q9 203 9 227q0 62 -2 121q-6 176 -6 201q17 0 46 -2.5t35 -2.5q18 0 47 2.5t35 2.5q0 -27 -3.5 -76t-3.5 -63q0 -33 -1 -95t-1 -90l2 -277q26 0 87.5 -2t66.5 -2q27 0 87 2t64 2v468q0 30 -1 49q-4 76 -4 84
q17 0 46.5 -2.5t35.5 -2.5q15 0 45 2.5t38 2.5q0 -28 -2 -51q-7 -79 -7 -85l-3 -233q0 -42 2 -138.5t2 -102.5l55 -2q-6 -24 -6 -53q0 -31 6 -64h-15q-27 33 -79.5 42t-165.5 9h-78z" />
    <glyph glyph-name="Odieresis" unicode="&#x426;" horiz-adv-x="758" 
d="M400 6q-77 0 -118 -1q-204 -5 -216 -5q0 67 3 135q9 203 9 227q0 62 -2 121q-6 176 -6 201q17 0 46 -2.5t35 -2.5q18 0 47 2.5t35 2.5q0 -27 -3.5 -76t-3.5 -63q0 -33 -1 -95t-1 -90l2 -277q26 0 87.5 -2t66.5 -2q27 0 87 2t64 2v468q0 30 -1 49q-4 76 -4 84
q17 0 46.5 -2.5t35.5 -2.5q15 0 45 2.5t38 2.5q0 -28 -2 -51q-7 -79 -7 -85l-3 -233q0 -42 2 -138.5t2 -102.5l55 -2q-6 -24 -6 -53q0 -31 6 -64h-15q-27 33 -79.5 42t-165.5 9h-78z" />
    <glyph glyph-name="multiply" unicode="&#xd7;" horiz-adv-x="703" 
d="M478 551q0 30 -1 49q-4 76 -4 84q17 0 46.5 -2.5t35.5 -2.5q15 0 45 2.5t38 2.5q0 -28 -2 -51q-7 -79 -7 -85l-3 -233q0 -65 2 -118q7 -184 7 -197q-17 0 -45.5 2.5t-34.5 2.5q-19 0 -51.5 -2.5t-37.5 -2.5l9 138l3 144l-1 53q-102 -68 -215 -68q-91 0 -150 47
q-63 50 -63 136q-1 37 -1 59q-4 157 -4 175q17 0 46 -2.5t35 -2.5q18 0 47 2.5t35 2.5q0 -27 -3.5 -76t-3.5 -63l-1 -70q0 -63 37 -94q33 -28 89 -28q37 0 78 12.5t74 34.5z" />
    <glyph glyph-name="multiply" unicode="&#x427;" horiz-adv-x="703" 
d="M478 551q0 30 -1 49q-4 76 -4 84q17 0 46.5 -2.5t35.5 -2.5q15 0 45 2.5t38 2.5q0 -28 -2 -51q-7 -79 -7 -85l-3 -233q0 -65 2 -118q7 -184 7 -197q-17 0 -45.5 2.5t-34.5 2.5q-19 0 -51.5 -2.5t-37.5 -2.5l9 138l3 144l-1 53q-102 -68 -215 -68q-91 0 -150 47
q-63 50 -63 136q-1 37 -1 59q-4 157 -4 175q17 0 46 -2.5t35 -2.5q18 0 47 2.5t35 2.5q0 -27 -3.5 -76t-3.5 -63l-1 -70q0 -63 37 -94q33 -28 89 -28q37 0 78 12.5t74 34.5z" />
    <glyph glyph-name="Oslash" unicode="&#xd8;" horiz-adv-x="925" 
d="M535 80l155 3l2 191l-1 277q0 30 -1 49q-4 76 -4 84q17 0 46.5 -2.5t35.5 -2.5q15 0 45 2.5t38 2.5q0 -28 -2 -51q-7 -79 -7 -85l-3 -233q0 -65 2 -118q7 -184 7 -197q-80 0 -126 1q-232 5 -257 5q-67 0 -198 -3t-191 -3q0 67 3 135q9 203 9 227q0 62 -2 121
q-6 176 -6 201q17 0 46 -2.5t35 -2.5q18 0 47 2.5t35 2.5q0 -27 -3.5 -76t-3.5 -63q0 -33 -1 -95t-1 -90l2 -277l148 -3q0 49 4 141t4 146l-2 183q0 28 -1 55.5t-6 78.5q17 0 46 -2.5t35 -2.5q18 0 47 2.5t35 2.5q0 -22 -2 -49q-5 -67 -5 -84q0 -33 -3 -98t-3 -98v-207z" />
    <glyph glyph-name="Oslash" unicode="&#x428;" horiz-adv-x="925" 
d="M535 80l155 3l2 191l-1 277q0 30 -1 49q-4 76 -4 84q17 0 46.5 -2.5t35.5 -2.5q15 0 45 2.5t38 2.5q0 -28 -2 -51q-7 -79 -7 -85l-3 -233q0 -65 2 -118q7 -184 7 -197q-80 0 -126 1q-232 5 -257 5q-67 0 -198 -3t-191 -3q0 67 3 135q9 203 9 227q0 62 -2 121
q-6 176 -6 201q17 0 46 -2.5t35 -2.5q18 0 47 2.5t35 2.5q0 -27 -3.5 -76t-3.5 -63q0 -33 -1 -95t-1 -90l2 -277l148 -3q0 49 4 141t4 146l-2 183q0 28 -1 55.5t-6 78.5q17 0 46 -2.5t35 -2.5q18 0 47 2.5t35 2.5q0 -22 -2 -49q-5 -67 -5 -84q0 -33 -3 -98t-3 -98v-207z" />
    <glyph glyph-name="Ugrave" unicode="&#xd9;" horiz-adv-x="925" 
d="M465 6q-67 0 -198 -3t-191 -3q0 67 3 135q9 203 9 227q0 62 -2 121q-6 176 -6 201q17 0 46 -2.5t35 -2.5q18 0 47 2.5t35 2.5q0 -27 -3.5 -76t-3.5 -63q0 -33 -1 -95t-1 -90l2 -277l148 -3q0 49 4 141t4 146l-2 183q0 28 -1 55.5t-6 78.5q17 0 46 -2.5t35 -2.5
q18 0 47 2.5t35 2.5q0 -22 -2 -49q-5 -67 -5 -84q0 -33 -3 -98t-3 -98v-207l2 -68l155 3l2 191l-1 277q0 30 -1 49q-4 76 -4 84q17 0 46.5 -2.5t35.5 -2.5q15 0 45 2.5t38 2.5q0 -28 -2 -51q-7 -79 -7 -85l-3 -233q0 -38 3 -90q7 -121 7 -151l56 -2q-6 -24 -6 -53
q0 -31 6 -64h-15q-27 34 -78 42.5t-171 8.5h-62h-114z" />
    <glyph glyph-name="Ugrave" unicode="&#x429;" horiz-adv-x="925" 
d="M465 6q-67 0 -198 -3t-191 -3q0 67 3 135q9 203 9 227q0 62 -2 121q-6 176 -6 201q17 0 46 -2.5t35 -2.5q18 0 47 2.5t35 2.5q0 -27 -3.5 -76t-3.5 -63q0 -33 -1 -95t-1 -90l2 -277l148 -3q0 49 4 141t4 146l-2 183q0 28 -1 55.5t-6 78.5q17 0 46 -2.5t35 -2.5
q18 0 47 2.5t35 2.5q0 -22 -2 -49q-5 -67 -5 -84q0 -33 -3 -98t-3 -98v-207l2 -68l155 3l2 191l-1 277q0 30 -1 49q-4 76 -4 84q17 0 46.5 -2.5t35.5 -2.5q15 0 45 2.5t38 2.5q0 -28 -2 -51q-7 -79 -7 -85l-3 -233q0 -38 3 -90q7 -121 7 -151l56 -2q-6 -24 -6 -53
q0 -31 6 -64h-15q-27 34 -78 42.5t-171 8.5h-62h-114z" />
    <glyph glyph-name="Uacute" unicode="&#xda;" horiz-adv-x="593" 
d="M261 330l-3 -120v-84l-1 -70q22 0 34 1t32 6q46 13 67 51q18 32 18 83q0 37 -10 67t-35 50q-13 10 -28 13.5t-38 3.5q-10 0 -19 -0.5t-17 -0.5zM112 606l-95 -10q5 18 5 43v16q-2 12 -2 17l-3 12l101 -6h18q63 0 135 6q0 -30 -4 -95t-4 -84l-1 -119l61 2q27 0 54 -0.5
t54 -6.5q62 -14 99 -58.5t37 -107.5q0 -46 -11.5 -81.5t-41.5 -65.5q-33 -35 -80 -51.5t-102 -16.5l-137 3l-87 -3q4 32 4.5 76.5t0.5 61.5l3 275q0 27 -2 101t-2 92z" />
    <glyph glyph-name="Uacute" unicode="&#x42a;" horiz-adv-x="593" 
d="M261 330l-3 -120v-84l-1 -70q22 0 34 1t32 6q46 13 67 51q18 32 18 83q0 37 -10 67t-35 50q-13 10 -28 13.5t-38 3.5q-10 0 -19 -0.5t-17 -0.5zM112 606l-95 -10q5 18 5 43v16q-2 12 -2 17l-3 12l101 -6h18q63 0 135 6q0 -30 -4 -95t-4 -84l-1 -119l61 2q27 0 54 -0.5
t54 -6.5q62 -14 99 -58.5t37 -107.5q0 -46 -11.5 -81.5t-41.5 -65.5q-33 -35 -80 -51.5t-102 -16.5l-137 3l-87 -3q4 32 4.5 76.5t0.5 61.5l3 275q0 27 -2 101t-2 92z" />
    <glyph glyph-name="Ucircumflex" unicode="&#xdb;" horiz-adv-x="851" 
d="M783 684q0 -22 -2 -49q-5 -67 -5 -84q0 -33 -3 -98t-3 -98q0 -34 3 -103t3 -104q0 -18 5 -92q2 -30 2 -56q-16 0 -44.5 2.5t-34.5 2.5q-40 0 -88 -5q0 56 4 137q9 183 9 230v54l-2 129q0 28 -1 55.5t-6 78.5q17 0 46 -2.5t35 -2.5q18 0 47 2.5t35 2.5zM230 386l61 2
q27 0 54 -0.5t54 -6.5q62 -14 99 -58.5t37 -107.5q0 -46 -11.5 -81.5t-41.5 -65.5q-33 -35 -80 -51.5t-102 -16.5l-137 3l-87 -3q4 32 4.5 76.5t0.5 61.5l3 275q0 12 -3.5 105t-3.5 147l-1 19q17 0 46 -2.5t35 -2.5q18 0 47 2.5t35 2.5q0 -30 -4 -95t-4 -84zM229 330
l-3 -120v-84l-1 -70q22 0 34 1t32 6q46 13 67 51q18 32 18 83q0 37 -10 67t-35 50q-13 10 -28 13.5t-38 3.5q-10 0 -19 -0.5t-17 -0.5z" />
    <glyph glyph-name="Ucircumflex" unicode="&#x42b;" horiz-adv-x="851" 
d="M783 684q0 -22 -2 -49q-5 -67 -5 -84q0 -33 -3 -98t-3 -98q0 -34 3 -103t3 -104q0 -18 5 -92q2 -30 2 -56q-16 0 -44.5 2.5t-34.5 2.5q-40 0 -88 -5q0 56 4 137q9 183 9 230v54l-2 129q0 28 -1 55.5t-6 78.5q17 0 46 -2.5t35 -2.5q18 0 47 2.5t35 2.5zM230 386l61 2
q27 0 54 -0.5t54 -6.5q62 -14 99 -58.5t37 -107.5q0 -46 -11.5 -81.5t-41.5 -65.5q-33 -35 -80 -51.5t-102 -16.5l-137 3l-87 -3q4 32 4.5 76.5t0.5 61.5l3 275q0 12 -3.5 105t-3.5 147l-1 19q17 0 46 -2.5t35 -2.5q18 0 47 2.5t35 2.5q0 -30 -4 -95t-4 -84zM229 330
l-3 -120v-84l-1 -70q22 0 34 1t32 6q46 13 67 51q18 32 18 83q0 37 -10 67t-35 50q-13 10 -28 13.5t-38 3.5q-10 0 -19 -0.5t-17 -0.5z" />
    <glyph glyph-name="Udieresis" unicode="&#xdc;" 
d="M230 386l61 2q27 0 54 -0.5t54 -6.5q62 -14 99 -58.5t37 -107.5q0 -46 -11.5 -81.5t-41.5 -65.5q-33 -35 -80 -51.5t-102 -16.5l-137 3l-87 -3q4 32 4.5 76.5t0.5 61.5l3 275q0 12 -3.5 105t-3.5 147l-1 19q17 0 46 -2.5t35 -2.5q18 0 47 2.5t35 2.5q0 -30 -4 -95t-4 -84
zM229 330l-3 -120v-84l-1 -70q22 0 34 1t32 6q46 13 67 51q18 32 18 83q0 37 -10 67t-35 50q-13 10 -28 13.5t-38 3.5q-10 0 -19 -0.5t-17 -0.5z" />
    <glyph glyph-name="Udieresis" unicode="&#x42c;" 
d="M230 386l61 2q27 0 54 -0.5t54 -6.5q62 -14 99 -58.5t37 -107.5q0 -46 -11.5 -81.5t-41.5 -65.5q-33 -35 -80 -51.5t-102 -16.5l-137 3l-87 -3q4 32 4.5 76.5t0.5 61.5l3 275q0 12 -3.5 105t-3.5 147l-1 19q17 0 46 -2.5t35 -2.5q18 0 47 2.5t35 2.5q0 -30 -4 -95t-4 -84
zM229 330l-3 -120v-84l-1 -70q22 0 34 1t32 6q46 13 67 51q18 32 18 83q0 37 -10 67t-35 50q-13 10 -28 13.5t-38 3.5q-10 0 -19 -0.5t-17 -0.5z" />
    <glyph glyph-name="Yacute" unicode="&#xdd;" horiz-adv-x="667" 
d="M634 362q0 -93 -30 -165.5t-83.5 -120t-123.5 -71t-150 -23.5q-60 0 -103.5 11t-94.5 38l-11 80l13 6q35 -33 84.5 -54t97.5 -21q113 0 177 88q57 79 57 195h-227q-55 0 -93 -7q5 23 5 42q0 20 -5 40q23 -3 44 -5t49 -2h226q-5 51 -19.5 91t-38.5 71q-32 42 -76 63
t-93 21q-55 0 -100 -24t-70 -68h-14q0 21 -1.5 37.5t-10.5 70.5q42 21 97.5 32.5t106.5 11.5q72 0 135 -16.5t112.5 -49.5t79.5 -75q60 -82 60 -196z" />
    <glyph glyph-name="Yacute" unicode="&#x42d;" horiz-adv-x="667" 
d="M634 362q0 -93 -30 -165.5t-83.5 -120t-123.5 -71t-150 -23.5q-60 0 -103.5 11t-94.5 38l-11 80l13 6q35 -33 84.5 -54t97.5 -21q113 0 177 88q57 79 57 195h-227q-55 0 -93 -7q5 23 5 42q0 20 -5 40q23 -3 44 -5t49 -2h226q-5 51 -19.5 91t-38.5 71q-32 42 -76 63
t-93 21q-55 0 -100 -24t-70 -68h-14q0 21 -1.5 37.5t-10.5 70.5q42 21 97.5 32.5t106.5 11.5q72 0 135 -16.5t112.5 -49.5t79.5 -75q60 -82 60 -196z" />
    <glyph glyph-name="Thorn" unicode="&#xde;" horiz-adv-x="1054" 
d="M650 41q54 0 95 30t69 85q21 44 30 95.5t9 110.5q0 110 -44 187q-52 91 -147 91q-34 0 -55.5 -6.5t-46.5 -27.5q-18 -15 -35.5 -37t-28.5 -46q-19 -42 -27.5 -99.5t-8.5 -113.5q0 -109 44 -183q51 -86 146 -86zM296 329h-29t-31 1h-10v-121q0 -41 3.5 -114.5t3.5 -94.5
q-16 0 -44.5 2.5t-34.5 2.5q-19 0 -50.5 -2.5t-37.5 -2.5q0 56 4 137q9 183 9 230q0 66 -2 119q-7 186 -7 198q17 0 46 -2.5t35 -2.5q18 0 47 2.5t35 2.5q0 -27 -3.5 -76t-3.5 -63v-43l-1 -92q18 0 37 -0.5t38 -0.5q11 57 38 108t69 89q54 48 119.5 70t141.5 22
q63 0 118.5 -16t101.5 -51q38 -28 62.5 -58t39.5 -68t22 -80t7 -82q0 -77 -28.5 -147t-83.5 -120t-119.5 -72t-142.5 -22q-71 0 -141 25t-117.5 74t-69 110t-21.5 138z" />
    <glyph glyph-name="Thorn" unicode="&#x42e;" horiz-adv-x="1054" 
d="M650 41q54 0 95 30t69 85q21 44 30 95.5t9 110.5q0 110 -44 187q-52 91 -147 91q-34 0 -55.5 -6.5t-46.5 -27.5q-18 -15 -35.5 -37t-28.5 -46q-19 -42 -27.5 -99.5t-8.5 -113.5q0 -109 44 -183q51 -86 146 -86zM296 329h-29t-31 1h-10v-121q0 -41 3.5 -114.5t3.5 -94.5
q-16 0 -44.5 2.5t-34.5 2.5q-19 0 -50.5 -2.5t-37.5 -2.5q0 56 4 137q9 183 9 230q0 66 -2 119q-7 186 -7 198q17 0 46 -2.5t35 -2.5q18 0 47 2.5t35 2.5q0 -27 -3.5 -76t-3.5 -63v-43l-1 -92q18 0 37 -0.5t38 -0.5q11 57 38 108t69 89q54 48 119.5 70t141.5 22
q63 0 118.5 -16t101.5 -51q38 -28 62.5 -58t39.5 -68t22 -80t7 -82q0 -77 -28.5 -147t-83.5 -120t-119.5 -72t-142.5 -22q-71 0 -141 25t-117.5 74t-69 110t-21.5 138z" />
    <glyph glyph-name="germandbls" unicode="&#xdf;" horiz-adv-x="611" 
d="M543 0q-17 0 -46 2.5t-35 2.5q-17 0 -46 -2.5t-35 -2.5q0 20 3.5 57t3.5 48l1 27l2 178h-22q-32 -52 -77 -136t-89 -174q-50 5 -90 5q-19 0 -51.5 -2.5t-39.5 -2.5l36 57q59 90 87 134q49 76 84 137q-67 15 -107 60q-43 48 -43 120q0 45 24.5 82.5t66.5 60.5
q32 17 74.5 25.5t83.5 8.5q36 0 72 -1l72 -2l69 2q0 -38 -2 -82q-5 -111 -5 -139l-1 -181q0 -42 2.5 -113t2.5 -84l4 -66zM391 627q-9 1 -25 1q-131 0 -131 -144q0 -24 5 -50q11 -50 55 -66q28 -10 94 -10v119l1 78z" />
    <glyph glyph-name="germandbls" unicode="&#x42f;" horiz-adv-x="611" 
d="M543 0q-17 0 -46 2.5t-35 2.5q-17 0 -46 -2.5t-35 -2.5q0 20 3.5 57t3.5 48l1 27l2 178h-22q-32 -52 -77 -136t-89 -174q-50 5 -90 5q-19 0 -51.5 -2.5t-39.5 -2.5l36 57q59 90 87 134q49 76 84 137q-67 15 -107 60q-43 48 -43 120q0 45 24.5 82.5t66.5 60.5
q32 17 74.5 25.5t83.5 8.5q36 0 72 -1l72 -2l69 2q0 -38 -2 -82q-5 -111 -5 -139l-1 -181q0 -42 2.5 -113t2.5 -84l4 -66zM391 627q-9 1 -25 1q-131 0 -131 -144q0 -24 5 -50q11 -50 55 -66q28 -10 94 -10v119l1 78z" />
    <glyph glyph-name="agrave" unicode="&#xe0;" horiz-adv-x="500" 
d="M205 214q-18 -15 -25 -34.5t-7 -47.5q0 -33 12.5 -54.5t42.5 -21.5q42 0 60 33q14 26 14 72q0 16 1 48t1 48l-40 -17q-20 -8 -30 -11q-19 -7 -29 -15zM87 361h-7l-13 60q35 32 84.5 49.5t100.5 17.5q74 0 123 -29q61 -36 61 -105l1 -67l-3 -146l1 -57q0 -11 7 -24.5
t17 -17.5q4 -1 10 -2t11 -1h11q2 -1 2 -14v-10q-10 -6 -25 -11.5t-23 -8.5q-10 -2 -21.5 -4t-20.5 -2q-35 0 -61 19t-38 52q-19 -33 -53.5 -52.5t-74.5 -19.5q-64 0 -103.5 34t-39.5 97q0 34 15.5 63.5t43.5 46t61 26.5q4 1 63 16q23 6 37 10q22 7 36 16q8 7 10.5 15.5
t2.5 22.5q0 34 -28.5 58.5t-64.5 24.5q-30 0 -58 -11.5t-53 -33.5z" />
    <glyph glyph-name="agrave" unicode="&#x430;" horiz-adv-x="500" 
d="M205 214q-18 -15 -25 -34.5t-7 -47.5q0 -33 12.5 -54.5t42.5 -21.5q42 0 60 33q14 26 14 72q0 16 1 48t1 48l-40 -17q-20 -8 -30 -11q-19 -7 -29 -15zM87 361h-7l-13 60q35 32 84.5 49.5t100.5 17.5q74 0 123 -29q61 -36 61 -105l1 -67l-3 -146l1 -57q0 -11 7 -24.5
t17 -17.5q4 -1 10 -2t11 -1h11q2 -1 2 -14v-10q-10 -6 -25 -11.5t-23 -8.5q-10 -2 -21.5 -4t-20.5 -2q-35 0 -61 19t-38 52q-19 -33 -53.5 -52.5t-74.5 -19.5q-64 0 -103.5 34t-39.5 97q0 34 15.5 63.5t43.5 46t61 26.5q4 1 63 16q23 6 37 10q22 7 36 16q8 7 10.5 15.5
t2.5 22.5q0 34 -28.5 58.5t-64.5 24.5q-30 0 -58 -11.5t-53 -33.5z" />
    <glyph glyph-name="aacute" unicode="&#xe1;" 
d="M284 448q-46 0 -72 -50q-20 -38 -25 -92q0 -13 -2 -38t-2 -38q0 -77 14 -124q23 -76 80 -76q38 0 60 32q15 22 26 68q5 20 9 64.5t4 70.5q0 12 -1.5 27t-2.5 23q0 48 -19 85q-24 48 -69 48zM455 755q0 -42 3.5 -68t12.5 -46q-163 -43 -260 -95q-103 -56 -116 -154
q32 45 85 72t98 27q51 0 101 -16.5t81 -50t47.5 -80t16.5 -95.5q0 -117 -64 -188q-68 -75 -183 -75q-111 0 -177 65t-66 176q0 195 41 290.5t137 147.5q63 35 243 90z" />
    <glyph glyph-name="aacute" unicode="&#x431;" 
d="M284 448q-46 0 -72 -50q-20 -38 -25 -92q0 -13 -2 -38t-2 -38q0 -77 14 -124q23 -76 80 -76q38 0 60 32q15 22 26 68q5 20 9 64.5t4 70.5q0 12 -1.5 27t-2.5 23q0 48 -19 85q-24 48 -69 48zM455 755q0 -42 3.5 -68t12.5 -46q-163 -43 -260 -95q-103 -56 -116 -154
q32 45 85 72t98 27q51 0 101 -16.5t81 -50t47.5 -80t16.5 -95.5q0 -117 -64 -188q-68 -75 -183 -75q-111 0 -177 65t-66 176q0 195 41 290.5t137 147.5q63 35 243 90z" />
    <glyph glyph-name="acircumflex" unicode="&#xe2;" horiz-adv-x="500" 
d="M325 137q0 50 -33.5 70t-99.5 20v-91q0 -20 1 -42.5t3 -41.5h37q35 0 63.5 23.5t28.5 61.5zM307 359q0 33 -20 51t-54 18l-37 -2q-2 -16 -3 -34.5t-1 -35.5v-78h23q22 0 35 2.5t28 14t22 28t7 36.5zM170 3l-118 -3l3 66l3 96l3 152q0 27 -3 82t-3 83q20 0 60 -2t63 -2
q19 0 54.5 2.5t44.5 2.5q69 0 112 -22q55 -28 55 -85q0 -47 -34.5 -76.5t-87.5 -35.5v-7q51 0 92 -25q52 -32 52 -91q0 -67 -66 -105q-57 -33 -137 -33z" />
    <glyph glyph-name="acircumflex" unicode="&#x432;" horiz-adv-x="500" 
d="M325 137q0 50 -33.5 70t-99.5 20v-91q0 -20 1 -42.5t3 -41.5h37q35 0 63.5 23.5t28.5 61.5zM307 359q0 33 -20 51t-54 18l-37 -2q-2 -16 -3 -34.5t-1 -35.5v-78h23q22 0 35 2.5t28 14t22 28t7 36.5zM170 3l-118 -3l3 66l3 96l3 152q0 27 -3 82t-3 83q20 0 60 -2t63 -2
q19 0 54.5 2.5t44.5 2.5q69 0 112 -22q55 -28 55 -85q0 -47 -34.5 -76.5t-87.5 -35.5v-7q51 0 92 -25q52 -32 52 -91q0 -67 -66 -105q-57 -33 -137 -33z" />
    <glyph glyph-name="atilde" unicode="&#xe3;" horiz-adv-x="370" 
d="M364 479q-5 -18 -5 -33q0 -18 5 -35q-36 4 -69 7t-70 3h-27l-2 -71v-194q0 -52 1 -83t7 -73q-17 0 -46.5 2.5t-35.5 2.5q-15 0 -40.5 -2.5t-30.5 -2.5l3 66l4 96l1 152q0 27 -3 82t-3 83q33 -2 72 -4t75 -2h21q75 0 143 6z" />
    <glyph glyph-name="atilde" unicode="&#x433;" horiz-adv-x="370" 
d="M364 479q-5 -18 -5 -33q0 -18 5 -35q-36 4 -69 7t-70 3h-27l-2 -71v-194q0 -52 1 -83t7 -73q-17 0 -46.5 2.5t-35.5 2.5q-15 0 -40.5 -2.5t-30.5 -2.5l3 66l4 96l1 152q0 27 -3 82t-3 83q33 -2 72 -4t75 -2h21q75 0 143 6z" />
    <glyph glyph-name="adieresis" unicode="&#xe4;" horiz-adv-x="500" 
d="M495 -39h-10q-25 28 -75.5 36.5t-124.5 8.5h-35q-102 0 -136 -4q-70 -8 -100 -41h-9q5 23 5 54q0 23 -5 43h37q99 211 181 424l34 -3l34 3q76 -207 169 -424h35q-5 -20 -5 -43q0 -12 1 -26t4 -28zM311 62q-21 69 -42 126q-8 20 -51 129q-29 -66 -53 -127
q-27 -67 -48 -128q18 0 65 -2t54 -2q15 0 33.5 0.5t41.5 3.5z" />
    <glyph glyph-name="adieresis" unicode="&#x434;" horiz-adv-x="500" 
d="M495 -39h-10q-25 28 -75.5 36.5t-124.5 8.5h-35q-102 0 -136 -4q-70 -8 -100 -41h-9q5 23 5 54q0 23 -5 43h37q99 211 181 424l34 -3l34 3q76 -207 169 -424h35q-5 -20 -5 -43q0 -12 1 -26t4 -28zM311 62q-21 69 -42 126q-8 20 -51 129q-29 -66 -53 -127
q-27 -67 -48 -128q18 0 65 -2t54 -2q15 0 33.5 0.5t41.5 3.5z" />
    <glyph glyph-name="aring" unicode="&#xe5;" horiz-adv-x="500" 
d="M181 286h155q-1 3 -1 6.5v4.5q0 8 -1 12q0 48 -12 85q-18 55 -57 55q-48 0 -69 -61q-15 -43 -15 -102zM469 238h-288l4 -57q0 -22 15 -52.5t33.5 -46.5t40 -23t48.5 -7q31 0 61 12t56 33l12 -9l-22 -56q-64 -45 -143 -45q-64 0 -109 16t-84 60q-32 35 -45 82.5t-13 104.5
q0 107 61.5 174.5t167.5 67.5q110 0 161 -73q44 -63 44 -181z" />
    <glyph glyph-name="aring" unicode="&#x435;" horiz-adv-x="500" 
d="M181 286h155q-1 3 -1 6.5v4.5q0 8 -1 12q0 48 -12 85q-18 55 -57 55q-48 0 -69 -61q-15 -43 -15 -102zM469 238h-288l4 -57q0 -22 15 -52.5t33.5 -46.5t40 -23t48.5 -7q31 0 61 12t56 33l12 -9l-22 -56q-64 -45 -143 -45q-64 0 -109 16t-84 60q-32 35 -45 82.5t-13 104.5
q0 107 61.5 174.5t167.5 67.5q110 0 161 -73q44 -63 44 -181z" />
    <glyph glyph-name="ae" unicode="&#xe6;" horiz-adv-x="741" 
d="M371 5q-18 0 -43 -2.5t-27 -2.5q0 15 2.5 45t2.5 38l1 62l-1 52l-3 26q-9 -1 -17 -10q-2 -2 -12 -18l-54 -86l-34 -60l-27 -49q-18 0 -29 1q-45 4 -49 4q-16 0 -43.5 -2.5t-32.5 -2.5v8l98 161l80 128q-84 86 -167 173v8l45 -2l48 2q46 -59 89 -109q49 -57 95 -104
q6 -2 9 1l3 42q0 27 -2 93t-2 79q16 -3 33.5 -4t40.5 -1q12 0 23.5 0.5t42.5 4.5q0 -42 -2.5 -100.5t-2.5 -64.5v-21t3 -28q3 -3 9 -1q46 47 95 104q43 50 89 109l48 -2l45 2v-8q-27 -33 -83 -87q-60 -58 -84 -86l80 -128l98 -161v-8q-16 0 -43.5 2.5t-32.5 2.5
q-18 0 -46 -2.5t-32 -2.5l-27 49l-34 60l-54 86q-10 16 -11 17q-8 10 -18 11l-3 -26l-1 -52l1 -62q0 -15 2.5 -45t2.5 -38q-14 0 -37.5 2.5t-31.5 2.5z" />
    <glyph glyph-name="ae" unicode="&#x436;" horiz-adv-x="741" 
d="M371 5q-18 0 -43 -2.5t-27 -2.5q0 15 2.5 45t2.5 38l1 62l-1 52l-3 26q-9 -1 -17 -10q-2 -2 -12 -18l-54 -86l-34 -60l-27 -49q-18 0 -29 1q-45 4 -49 4q-16 0 -43.5 -2.5t-32.5 -2.5v8l98 161l80 128q-84 86 -167 173v8l45 -2l48 2q46 -59 89 -109q49 -57 95 -104
q6 -2 9 1l3 42q0 27 -2 93t-2 79q16 -3 33.5 -4t40.5 -1q12 0 23.5 0.5t42.5 4.5q0 -42 -2.5 -100.5t-2.5 -64.5v-21t3 -28q3 -3 9 -1q46 47 95 104q43 50 89 109l48 -2l45 2v-8q-27 -33 -83 -87q-60 -58 -84 -86l80 -128l98 -161v-8q-16 0 -43.5 2.5t-32.5 2.5
q-18 0 -46 -2.5t-32 -2.5l-27 49l-34 60l-54 86q-10 16 -11 17q-8 10 -18 11l-3 -26l-1 -52l1 -62q0 -15 2.5 -45t2.5 -38q-14 0 -37.5 2.5t-31.5 2.5z" />
    <glyph glyph-name="ccedilla" unicode="&#xe7;" horiz-adv-x="426" 
d="M391 129q0 -70 -62 -109q-54 -34 -134 -34q-49 0 -90 12.5t-65 35.5l-12 50l17 14q20 -25 51.5 -38t64.5 -13q47 0 72.5 25.5t25.5 60.5q0 36 -24 63t-65 27l-44 -2v56l28 -1q41 0 64 27t23 64q0 38 -18.5 58t-46.5 20q-32 0 -61 -25t-38 -68h-26l-17 104q28 15 72 24
t94 9q76 0 123 -24q55 -28 55 -87q0 -51 -34.5 -82t-87.5 -37v-7q51 0 88 -26q47 -33 47 -97z" />
    <glyph glyph-name="ccedilla" unicode="&#x437;" horiz-adv-x="426" 
d="M391 129q0 -70 -62 -109q-54 -34 -134 -34q-49 0 -90 12.5t-65 35.5l-12 50l17 14q20 -25 51.5 -38t64.5 -13q47 0 72.5 25.5t25.5 60.5q0 36 -24 63t-65 27l-44 -2v56l28 -1q41 0 64 27t23 64q0 38 -18.5 58t-46.5 20q-32 0 -61 -25t-38 -68h-26l-17 104q28 15 72 24
t94 9q76 0 123 -24q55 -28 55 -87q0 -51 -34.5 -82t-87.5 -37v-7q51 0 88 -26q47 -33 47 -97z" />
    <glyph glyph-name="egrave" unicode="&#xe8;" 
d="M51 0l3 66l4 96l3 152q0 27 -3 82t-3 83l9 -1l72 -3q11 0 35 2t36 2l-7 -129q0 -33 -2 -97.5t-2 -66.5q63 69 118 138t117 155q13 0 26 -0.5t26 -0.5h16q7 1 11 1l-7 -129q0 -33 -2 -110.5t-2 -83.5q0 -52 1 -83t7 -73q-17 0 -46.5 2.5t-35.5 2.5q-15 0 -40.5 -2.5
t-30.5 -2.5l3 66l4 96l1 135q-65 -69 -123.5 -143.5t-113.5 -155.5q-13 0 -37.5 1t-36.5 1z" />
    <glyph glyph-name="egrave" unicode="&#x438;" 
d="M51 0l3 66l4 96l3 152q0 27 -3 82t-3 83l9 -1l72 -3q11 0 35 2t36 2l-7 -129q0 -33 -2 -97.5t-2 -66.5q63 69 118 138t117 155q13 0 26 -0.5t26 -0.5h16q7 1 11 1l-7 -129q0 -33 -2 -110.5t-2 -83.5q0 -52 1 -83t7 -73q-17 0 -46.5 2.5t-35.5 2.5q-15 0 -40.5 -2.5
t-30.5 -2.5l3 66l4 96l1 135q-65 -69 -123.5 -143.5t-113.5 -155.5q-13 0 -37.5 1t-36.5 1z" />
    <glyph glyph-name="eacute" unicode="&#xe9;" 
d="M438 630q-20 -47 -61 -76t-99 -29q-57 0 -98 29t-62 76l32 17q42 -63 129 -63q42 0 74.5 15.5t52.5 47.5zM51 0l3 66l4 96l3 152q0 27 -3 82t-3 83l9 -1l72 -3q11 0 35 2t36 2l-7 -129q0 -33 -2 -97.5t-2 -66.5q63 69 118 138t117 155q13 0 26 -0.5t26 -0.5h16q7 1 11 1
l-7 -129q0 -33 -2 -110.5t-2 -83.5q0 -52 1 -83t7 -73q-17 0 -46.5 2.5t-35.5 2.5q-15 0 -40.5 -2.5t-30.5 -2.5l3 66l4 96l1 135q-65 -69 -123.5 -143.5t-113.5 -155.5q-13 0 -37.5 1t-36.5 1z" />
    <glyph glyph-name="eacute" unicode="&#x439;" 
d="M438 630q-20 -47 -61 -76t-99 -29q-57 0 -98 29t-62 76l32 17q42 -63 129 -63q42 0 74.5 15.5t52.5 47.5zM51 0l3 66l4 96l3 152q0 27 -3 82t-3 83l9 -1l72 -3q11 0 35 2t36 2l-7 -129q0 -33 -2 -97.5t-2 -66.5q63 69 118 138t117 155q13 0 26 -0.5t26 -0.5h16q7 1 11 1
l-7 -129q0 -33 -2 -110.5t-2 -83.5q0 -52 1 -83t7 -73q-17 0 -46.5 2.5t-35.5 2.5q-15 0 -40.5 -2.5t-30.5 -2.5l3 66l4 96l1 135q-65 -69 -123.5 -143.5t-113.5 -155.5q-13 0 -37.5 1t-36.5 1z" />
    <glyph glyph-name="ecircumflex" unicode="&#xea;" horiz-adv-x="500" 
d="M316 297l80 -128l98 -161v-8q-16 0 -43.5 2.5t-32.5 2.5q-18 0 -46 -2.5t-32 -2.5l-27 49l-34 60l-54 86q-10 16 -11 17q-8 10 -18 11l-3 -26l-1 -52l1 -62q0 -15 2.5 -45t2.5 -38q-15 0 -41 2.5t-31 2.5q-15 0 -41 -2.5t-31 -2.5v25q0 27 3.5 83t3.5 76v181l-7 115
q18 -3 46.5 -4t32.5 -1q22 0 33.5 1t37.5 4q-3 -34 -6.5 -81.5t-3.5 -83.5v-21t3 -28q3 -3 9 -1q46 47 95 104q43 50 89 109l48 -2l45 2v-8q-27 -33 -83 -87q-60 -58 -84 -86z" />
    <glyph glyph-name="ecircumflex" unicode="&#x43a;" horiz-adv-x="500" 
d="M316 297l80 -128l98 -161v-8q-16 0 -43.5 2.5t-32.5 2.5q-18 0 -46 -2.5t-32 -2.5l-27 49l-34 60l-54 86q-10 16 -11 17q-8 10 -18 11l-3 -26l-1 -52l1 -62q0 -15 2.5 -45t2.5 -38q-15 0 -41 2.5t-31 2.5q-15 0 -41 -2.5t-31 -2.5v25q0 27 3.5 83t3.5 76v181l-7 115
q18 -3 46.5 -4t32.5 -1q22 0 33.5 1t37.5 4q-3 -34 -6.5 -81.5t-3.5 -83.5v-21t3 -28q3 -3 9 -1q46 47 95 104q43 50 89 109l48 -2l45 2v-8q-27 -33 -83 -87q-60 -58 -84 -86z" />
    <glyph glyph-name="edieresis" unicode="&#xeb;" horiz-adv-x="481" 
d="M476 0q-17 0 -28 1q-44 4 -49 4q-17 0 -44.5 -2.5t-31.5 -2.5q-23 78 -68 198q-20 52 -46 119q-35 -75 -64 -149q-32 -82 -58 -168l-41 3l-39 -3q54 118 108 242q61 140 99 240q11 -2 19 -3.5t15 -1.5q6 0 17 2t17 3q43 -114 94 -241q45 -111 100 -241z" />
    <glyph glyph-name="edieresis" unicode="&#x43b;" horiz-adv-x="481" 
d="M476 0q-17 0 -28 1q-44 4 -49 4q-17 0 -44.5 -2.5t-31.5 -2.5q-23 78 -68 198q-20 52 -46 119q-35 -75 -64 -149q-32 -82 -58 -168l-41 3l-39 -3q54 118 108 242q61 140 99 240q11 -2 19 -3.5t15 -1.5q6 0 17 2t17 3q43 -114 94 -241q45 -111 100 -241z" />
    <glyph glyph-name="igrave" unicode="&#xec;" horiz-adv-x="647" 
d="M629 0q-16 0 -27 1q-45 4 -48 4q-24 0 -43.5 -2t-30.5 -3q0 73 -13 183q-7 54 -13 109q-41 -68 -78.5 -140.5t-73.5 -152.5q-7 1 -20 1q-7 0 -11 -1q-39 84 -69 142q-33 63 -82 147q-14 -83 -20 -150.5t-6 -136.5l-40 3l-37 -3q39 207 80 478q7 -2 14 -3t18 -1q16 0 34 4
q82 -156 164 -311q44 76 82 146q43 80 85 165q15 -4 32 -4q9 0 19.5 1.5t15.5 2.5q30 -259 68 -479z" />
    <glyph glyph-name="igrave" unicode="&#x43c;" horiz-adv-x="647" 
d="M629 0q-16 0 -27 1q-45 4 -48 4q-24 0 -43.5 -2t-30.5 -3q0 73 -13 183q-7 54 -13 109q-41 -68 -78.5 -140.5t-73.5 -152.5q-7 1 -20 1q-7 0 -11 -1q-39 84 -69 142q-33 63 -82 147q-14 -83 -20 -150.5t-6 -136.5l-40 3l-37 -3q39 207 80 478q7 -2 14 -3t18 -1q16 0 34 4
q82 -156 164 -311q44 76 82 146q43 80 85 165q15 -4 32 -4q9 0 19.5 1.5t15.5 2.5q30 -259 68 -479z" />
    <glyph glyph-name="iacute" unicode="&#xed;" 
d="M196 280l81 -3l84 3v34q0 27 -3 82t-3 83l9 -1l72 -3q11 0 35 2t36 2l-7 -129q0 -33 -2 -110.5t-2 -83.5q0 -52 1 -83t7 -73q-17 0 -46.5 2.5t-35.5 2.5q-15 0 -40.5 -2.5t-30.5 -2.5l3 66l4 96l1 57l-81 3l-82 -3v-63q0 -52 1 -83t7 -73q-17 0 -46.5 2.5t-35.5 2.5
q-15 0 -40.5 -2.5t-30.5 -2.5l3 66l4 96l3 152q0 27 -3 82t-3 83l9 -1l72 -3q11 0 35 2t36 2l-8 -129z" />
    <glyph glyph-name="iacute" unicode="&#x43d;" 
d="M196 280l81 -3l84 3v34q0 27 -3 82t-3 83l9 -1l72 -3q11 0 35 2t36 2l-7 -129q0 -33 -2 -110.5t-2 -83.5q0 -52 1 -83t7 -73q-17 0 -46.5 2.5t-35.5 2.5q-15 0 -40.5 -2.5t-30.5 -2.5l3 66l4 96l1 57l-81 3l-82 -3v-63q0 -52 1 -83t7 -73q-17 0 -46.5 2.5t-35.5 2.5
q-15 0 -40.5 -2.5t-30.5 -2.5l3 66l4 96l3 152q0 27 -3 82t-3 83l9 -1l72 -3q11 0 35 2t36 2l-8 -129z" />
    <glyph glyph-name="icircumflex" unicode="&#xee;" 
d="M274 -14q-111 0 -177 65t-66 176q0 57 15.5 104t51.5 86q30 33 80 53.5t97 20.5q51 0 101 -16.5t81 -50t47.5 -80t16.5 -95.5q0 -117 -64 -188q-68 -75 -183 -75zM281 448q-46 0 -72 -50q-20 -38 -25 -92q0 -13 -2 -38t-2 -38q0 -77 14 -124q23 -76 80 -76q38 0 60 32
q15 22 26 68q5 20 9 64.5t4 70.5q0 12 -1.5 27t-2.5 23q0 48 -19 85q-24 48 -69 48z" />
    <glyph glyph-name="icircumflex" unicode="&#x43e;" 
d="M274 -14q-111 0 -177 65t-66 176q0 57 15.5 104t51.5 86q30 33 80 53.5t97 20.5q51 0 101 -16.5t81 -50t47.5 -80t16.5 -95.5q0 -117 -64 -188q-68 -75 -183 -75zM281 448q-46 0 -72 -50q-20 -38 -25 -92q0 -13 -2 -38t-2 -38q0 -77 14 -124q23 -76 80 -76q38 0 60 32
q15 22 26 68q5 20 9 64.5t4 70.5q0 12 -1.5 27t-2.5 23q0 48 -19 85q-24 48 -69 48z" />
    <glyph glyph-name="idieresis" unicode="&#xef;" 
d="M509 479l-9 -129q0 -33 -2 -110.5t-2 -83.5q0 -52 1 -83t7 -73q-17 0 -46.5 2.5t-35.5 2.5q-15 0 -40.5 -2.5t-30.5 -2.5l3 66l4 96l3 152l-3 99q-20 0 -53 1t-49 1h-23t-30 -2l-4 -63q0 -47 -1.5 -120t-1.5 -74q0 -52 1 -83t7 -73q-17 0 -46.5 2.5t-35.5 2.5
q-15 0 -40.5 -2.5t-30.5 -2.5l3 66l4 96l3 152q0 27 -3 82t-3 83q40 0 119.5 -3.5t105.5 -3.5q52 0 134 3.5t95 3.5z" />
    <glyph glyph-name="idieresis" unicode="&#x43f;" 
d="M509 479l-9 -129q0 -33 -2 -110.5t-2 -83.5q0 -52 1 -83t7 -73q-17 0 -46.5 2.5t-35.5 2.5q-15 0 -40.5 -2.5t-30.5 -2.5l3 66l4 96l3 152l-3 99q-20 0 -53 1t-49 1h-23t-30 -2l-4 -63q0 -47 -1.5 -120t-1.5 -74q0 -52 1 -83t7 -73q-17 0 -46.5 2.5t-35.5 2.5
q-15 0 -40.5 -2.5t-30.5 -2.5l3 66l4 96l3 152q0 27 -3 82t-3 83q40 0 119.5 -3.5t105.5 -3.5q52 0 134 3.5t95 3.5z" />
    <glyph glyph-name="eth" unicode="&#xf0;" 
d="M282 54q31 0 51 24q14 17 28 52q7 20 10.5 50.5t3.5 57.5q0 37 -2.5 62t-10 54.5t-25.5 50.5q-22 25 -49 25q-57 0 -81 -75q-16 -50 -16 -122q0 -69 14 -112q22 -67 77 -67zM185 395q21 46 56.5 72t84.5 26q101 0 152 -74q45 -65 45 -170q0 -64 -12 -109.5t-49 -88.5
q-55 -62 -139 -62q-20 0 -42.5 5.5t-37 15t-28 23t-21.5 28.5q0 -27 1 -82t1 -83q0 -36 2.5 -91.5t2.5 -63.5q-33 4 -75 4h-31.5t-43.5 -4q0 74 2 133q7 208 7 223l2 154l-2 98q0 22 -2 74t-2 56q17 -2 32.5 -3t35.5 -1q28 0 42 1q18 3 26 3q0 -17 -3.5 -46.5t-3.5 -37.5z
" />
    <glyph glyph-name="eth" unicode="&#x440;" 
d="M282 54q31 0 51 24q14 17 28 52q7 20 10.5 50.5t3.5 57.5q0 37 -2.5 62t-10 54.5t-25.5 50.5q-22 25 -49 25q-57 0 -81 -75q-16 -50 -16 -122q0 -69 14 -112q22 -67 77 -67zM185 395q21 46 56.5 72t84.5 26q101 0 152 -74q45 -65 45 -170q0 -64 -12 -109.5t-49 -88.5
q-55 -62 -139 -62q-20 0 -42.5 5.5t-37 15t-28 23t-21.5 28.5q0 -27 1 -82t1 -83q0 -36 2.5 -91.5t2.5 -63.5q-33 4 -75 4h-31.5t-43.5 -4q0 74 2 133q7 208 7 223l2 154l-2 98q0 22 -2 74t-2 56q17 -2 32.5 -3t35.5 -1q28 0 42 1q18 3 26 3q0 -17 -3.5 -46.5t-3.5 -37.5z
" />
    <glyph glyph-name="ntilde" unicode="&#xf1;" horiz-adv-x="481" 
d="M467 444l-38 -103h-24q-6 44 -32 72t-70 28q-63 0 -95 -68q-25 -53 -25 -124q0 -47 6 -79t26.5 -61.5t49.5 -42.5t67 -13q28 0 57 13t47 34l17 -14l-24 -59q-18 -16 -61 -27t-74 -11q-56 0 -101 13q-55 16 -89 50q-72 73 -72 179q0 119 72 189t191 70q45 0 91 -11.5
t81 -34.5z" />
    <glyph glyph-name="ntilde" unicode="&#x441;" horiz-adv-x="481" 
d="M467 444l-38 -103h-24q-6 44 -32 72t-70 28q-63 0 -95 -68q-25 -53 -25 -124q0 -47 6 -79t26.5 -61.5t49.5 -42.5t67 -13q28 0 57 13t47 34l17 -14l-24 -59q-18 -16 -61 -27t-74 -11q-56 0 -101 13q-55 16 -89 50q-72 73 -72 179q0 119 72 189t191 70q45 0 91 -11.5
t81 -34.5z" />
    <glyph glyph-name="ograve" unicode="&#xf2;" horiz-adv-x="425" 
d="M143 421q-47 0 -66 -1.5t-72 -8.5q5 15 5 35q0 15 -5 33q10 0 122 -5q45 -2 89 -2q39 0 108 3.5t96 3.5q-5 -18 -5 -33q0 -18 5 -35q-33 4 -67 7t-70 3l-1 -71l-2 -194q0 -52 1 -83t7 -73q-17 0 -46.5 2.5t-35.5 2.5q-15 0 -40.5 -2.5t-30.5 -2.5l3 66l4 96l2 152z" />
    <glyph glyph-name="ograve" unicode="&#x442;" horiz-adv-x="425" 
d="M143 421q-47 0 -66 -1.5t-72 -8.5q5 15 5 35q0 15 -5 33q10 0 122 -5q45 -2 89 -2q39 0 108 3.5t96 3.5q-5 -18 -5 -33q0 -18 5 -35q-33 4 -67 7t-70 3l-1 -71l-2 -194q0 -52 1 -83t7 -73q-17 0 -46.5 2.5t-35.5 2.5q-15 0 -40.5 -2.5t-30.5 -2.5l3 66l4 96l2 152z" />
    <glyph glyph-name="oacute" unicode="&#xf3;" horiz-adv-x="481" 
d="M84 -257l127 256l-200 473l1 7q12 0 37 -2t38 -2q12 0 42 2t32 2q20 -56 43 -117q28 -74 77 -193l38 102q1 3 48 129q18 47 28 79q9 -2 18 -3t21 -1q16 0 25.5 2t13.5 2v-7l-97 -221q-64 -146 -108 -252q-49 -118 -100 -256l-11 2q-14 3 -27 3q-15 0 -27 -2t-19 -3z" />
    <glyph glyph-name="oacute" unicode="&#x443;" horiz-adv-x="481" 
d="M84 -257l127 256l-200 473l1 7q12 0 37 -2t38 -2q12 0 42 2t32 2q20 -56 43 -117q28 -74 77 -193l38 102q1 3 48 129q18 47 28 79q9 -2 18 -3t21 -1q16 0 25.5 2t13.5 2v-7l-97 -221q-64 -146 -108 -252q-49 -118 -100 -256l-11 2q-14 3 -27 3q-15 0 -27 -2t-19 -3z" />
    <glyph glyph-name="ocircumflex" unicode="&#xf4;" horiz-adv-x="834" 
d="M353 245q0 72 -12 112q-20 67 -72 67q-44 -5 -65.5 -53.5t-21.5 -130.5q0 -90 19 -139.5t62 -49.5q53 0 75 73q15 49 15 121zM652 235q0 92 -17 137q-20 52 -64 52q-53 0 -75 -73q-15 -49 -15 -121t12 -112q20 -67 72 -67q44 5 65.5 53.5t21.5 130.5zM486 -104
q0 -36 2.5 -91.5t2.5 -63.5q-33 4 -75 4h-31.5t-43.5 -4q0 45 2 81q7 125 7 145l1 108q-18 -42 -50 -65.5t-77 -23.5q-97 0 -146 74q-43 65 -43 169q0 126 59 197q53 63 133 63q46 0 78 -21q25 -17 46 -51v21v18v16v14v12v11q0 17 -0.5 35.5t-0.5 37.5v11v23v19q0 61 -6 120
q16 -2 37.5 -4t36.5 -2q14 0 36 2t36 4q-4 -31 -5 -73t-1 -62v-23v-28v-24v-20v-17v-14v-13q0 -21 -0.5 -40.5t-0.5 -38.5q18 41 50.5 64t76.5 23q97 0 146 -74q43 -65 43 -169q0 -126 -59 -197q-53 -63 -133 -63q-46 0 -78 21q-26 17 -46 51z" />
    <glyph glyph-name="ocircumflex" unicode="&#x444;" horiz-adv-x="834" 
d="M353 245q0 72 -12 112q-20 67 -72 67q-44 -5 -65.5 -53.5t-21.5 -130.5q0 -90 19 -139.5t62 -49.5q53 0 75 73q15 49 15 121zM652 235q0 92 -17 137q-20 52 -64 52q-53 0 -75 -73q-15 -49 -15 -121t12 -112q20 -67 72 -67q44 5 65.5 53.5t21.5 130.5zM486 -104
q0 -36 2.5 -91.5t2.5 -63.5q-33 4 -75 4h-31.5t-43.5 -4q0 45 2 81q7 125 7 145l1 108q-18 -42 -50 -65.5t-77 -23.5q-97 0 -146 74q-43 65 -43 169q0 126 59 197q53 63 133 63q46 0 78 -21q25 -17 46 -51v21v18v16v14v12v11q0 17 -0.5 35.5t-0.5 37.5v11v23v19q0 61 -6 120
q16 -2 37.5 -4t36.5 -2q14 0 36 2t36 4q-4 -31 -5 -73t-1 -62v-23v-28v-24v-20v-17v-14v-13q0 -21 -0.5 -40.5t-0.5 -38.5q18 41 50.5 64t76.5 23q97 0 146 -74q43 -65 43 -169q0 -126 -59 -197q-53 -63 -133 -63q-46 0 -78 21q-26 17 -46 51z" />
    <glyph glyph-name="otilde" unicode="&#xf5;" horiz-adv-x="500" 
d="M30 0v8q38 50 78 104q34 46 76 106q-34 60 -75 128q-35 59 -79 126v7q14 0 46.5 -2t34.5 -2q20 0 40.5 1t40.5 4q21 -39 43.5 -80.5t42.5 -76.5q25 36 53 77q24 36 51 79l12 -2q8 -1 15.5 -1.5t17.5 -0.5q7 0 15.5 0.5t23.5 3.5v-7q-29 -35 -60 -73q-36 -45 -97 -125
l55 -94l108 -180q-17 0 -46.5 2.5t-35.5 2.5q-17 0 -46 -2.5t-35 -2.5l-93 169q-28 -42 -55 -84q-33 -51 -53 -85q-16 2 -26.5 3.5t-12.5 1.5q-12 0 -22.5 -2t-16.5 -3z" />
    <glyph glyph-name="otilde" unicode="&#x445;" horiz-adv-x="500" 
d="M30 0v8q38 50 78 104q34 46 76 106q-34 60 -75 128q-35 59 -79 126v7q14 0 46.5 -2t34.5 -2q20 0 40.5 1t40.5 4q21 -39 43.5 -80.5t42.5 -76.5q25 36 53 77q24 36 51 79l12 -2q8 -1 15.5 -1.5t17.5 -0.5q7 0 15.5 0.5t23.5 3.5v-7q-29 -35 -60 -73q-36 -45 -97 -125
l55 -94l108 -180q-17 0 -46.5 2.5t-35.5 2.5q-17 0 -46 -2.5t-35 -2.5l-93 169q-28 -42 -55 -84q-33 -51 -53 -85q-16 2 -26.5 3.5t-12.5 1.5q-12 0 -22.5 -2t-16.5 -3z" />
    <glyph glyph-name="odieresis" unicode="&#xf6;" 
d="M276 6q-67 0 -114.5 -2t-110.5 -4l3 66l4 96l3 152q0 27 -3 82t-3 83l9 -1l72 -3q11 0 35 2t36 2l-8 -129q0 -47 -1.5 -120t-1.5 -74q0 -15 1 -47.5t1 -49.5h156l4 103l3 152q0 27 -3 82t-3 83l9 -1l72 -3q11 0 35 2t36 2l-7 -129q0 -33 -2 -110.5t-2 -83.5q0 -16 1 -49
t1 -49h53q-5 -20 -5 -43q0 -12 1 -26t4 -28h-10q-25 28 -82 36.5t-137 8.5h-46z" />
    <glyph glyph-name="odieresis" unicode="&#x446;" 
d="M276 6q-67 0 -114.5 -2t-110.5 -4l3 66l4 96l3 152q0 27 -3 82t-3 83l9 -1l72 -3q11 0 35 2t36 2l-8 -129q0 -47 -1.5 -120t-1.5 -74q0 -15 1 -47.5t1 -49.5h156l4 103l3 152q0 27 -3 82t-3 83l9 -1l72 -3q11 0 35 2t36 2l-7 -129q0 -33 -2 -110.5t-2 -83.5q0 -16 1 -49
t1 -49h53q-5 -20 -5 -43q0 -12 1 -26t4 -28h-10q-25 28 -82 36.5t-137 8.5h-46z" />
    <glyph glyph-name="divide" unicode="&#xf7;" horiz-adv-x="519" 
d="M39 316q0 28 -2 93t-2 70l9 -1l72 -3q11 0 35 2t36 2q-5 -46 -7 -69.5t-2 -57.5l-1 -35q0 -34 18.5 -50t48.5 -16q19 0 41.5 7t39.5 18q0 2 1 9.5t1 28.5q0 28 -2 94t-2 71l9 -1l72 -3q11 0 35 2t36 2l-7 -129q0 -33 -2 -110.5t-2 -83.5q0 -52 1 -83t7 -73
q-17 0 -46.5 2.5t-35.5 2.5q-15 0 -40.5 -2.5t-30.5 -2.5l3 66l4 96l-1 63q-33 -22 -71 -33.5t-73 -11.5q-61 0 -100 31q-42 34 -42 91v14z" />
    <glyph glyph-name="divide" unicode="&#x447;" horiz-adv-x="519" 
d="M39 316q0 28 -2 93t-2 70l9 -1l72 -3q11 0 35 2t36 2q-5 -46 -7 -69.5t-2 -57.5l-1 -35q0 -34 18.5 -50t48.5 -16q19 0 41.5 7t39.5 18q0 2 1 9.5t1 28.5q0 28 -2 94t-2 71l9 -1l72 -3q11 0 35 2t36 2l-7 -129q0 -33 -2 -110.5t-2 -83.5q0 -52 1 -83t7 -73
q-17 0 -46.5 2.5t-35.5 2.5q-15 0 -40.5 -2.5t-30.5 -2.5l3 66l4 96l-1 63q-33 -22 -71 -33.5t-73 -11.5q-61 0 -100 31q-42 34 -42 91v14z" />
    <glyph glyph-name="oslash" unicode="&#xf8;" horiz-adv-x="722" 
d="M51 0l3 66l4 96l3 152q0 27 -3 82t-3 83l9 -1l69 -3q11 0 35 2t36 2l-7 -129v-24v-21v-18v-16v-15v-13q0 -19 -0.5 -38t-0.5 -38v-11q0 -16 1 -48t1 -48h90v6l4 96l3 152q0 27 -3 82t-3 83l9 -1l69 -3q11 0 35 2t36 2l-6 -129q0 -31 -1 -96t-1 -98l3 -96h89v6l4 96l3 152
q0 27 -3 82t-3 83l9 -1l71 -3q12 0 36 2t36 2l-7 -129q0 -33 -2 -110.5t-2 -83.5q0 -52 1 -83t7 -73q-61 0 -99 1q-189 5 -211 5q-90 0 -156 -2t-155 -4z" />
    <glyph glyph-name="oslash" unicode="&#x448;" horiz-adv-x="722" 
d="M51 0l3 66l4 96l3 152q0 27 -3 82t-3 83l9 -1l69 -3q11 0 35 2t36 2l-7 -129v-24v-21v-18v-16v-15v-13q0 -19 -0.5 -38t-0.5 -38v-11q0 -16 1 -48t1 -48h90v6l4 96l3 152q0 27 -3 82t-3 83l9 -1l69 -3q11 0 35 2t36 2l-6 -129q0 -31 -1 -96t-1 -98l3 -96h89v6l4 96l3 152
q0 27 -3 82t-3 83l9 -1l71 -3q12 0 36 2t36 2l-7 -129q0 -33 -2 -110.5t-2 -83.5q0 -52 1 -83t7 -73q-61 0 -99 1q-189 5 -211 5q-90 0 -156 -2t-155 -4z" />
    <glyph glyph-name="ugrave" unicode="&#xf9;" horiz-adv-x="722" 
d="M362 6q-90 0 -156 -2t-155 -4l3 66l4 96l3 152q0 27 -3 82t-3 83l9 -1l69 -3q11 0 35 2t36 2l-7 -129v-24v-21v-18v-16v-15v-13q0 -19 -0.5 -38t-0.5 -38v-11q0 -16 1 -48t1 -48h90v6l4 96l3 152q0 27 -3 82t-3 83l9 -1l69 -3q11 0 35 2t36 2l-6 -129q0 -31 -1 -96
t-1 -98l3 -96h89v6l4 96l3 152q0 27 -3 82t-3 83l9 -1l71 -3q12 0 36 2t36 2l-7 -129q0 -38 -0.5 -74.5t-0.5 -72.5q0 -47 1 -77t6 -68h43q-5 -20 -5 -43q0 -12 1 -26t4 -28h-10q-25 28 -75.5 36.5t-124.5 8.5h-35h-110z" />
    <glyph glyph-name="ugrave" unicode="&#x449;" horiz-adv-x="722" 
d="M362 6q-90 0 -156 -2t-155 -4l3 66l4 96l3 152q0 27 -3 82t-3 83l9 -1l69 -3q11 0 35 2t36 2l-7 -129v-24v-21v-18v-16v-15v-13q0 -19 -0.5 -38t-0.5 -38v-11q0 -16 1 -48t1 -48h90v6l4 96l3 152q0 27 -3 82t-3 83l9 -1l69 -3q11 0 35 2t36 2l-6 -129q0 -31 -1 -96
t-1 -98l3 -96h89v6l4 96l3 152q0 27 -3 82t-3 83l9 -1l71 -3q12 0 36 2t36 2l-7 -129q0 -38 -0.5 -74.5t-0.5 -72.5q0 -47 1 -77t6 -68h43q-5 -20 -5 -43q0 -12 1 -26t4 -28h-10q-25 28 -75.5 36.5t-124.5 8.5h-35h-110z" />
    <glyph glyph-name="uacute" unicode="&#xfa;" horiz-adv-x="518" 
d="M343 144q0 38 -16.5 58.5t-36 23t-32.5 2.5q-21 -1 -29 -1l-2 -93l2 -82q13 0 23.5 0.5t27.5 3.5q33 9 48 32t15 56zM90 422q-20 0 -46 -3.5t-39 -5.5q5 17 5 34q0 15 -5 33l93 -4q40 0 74 1l68 2l-8 -129l-3 -73l82 1q175 0 175 -122q0 -88 -66 -126q-52 -30 -146 -30
l-99 2l-90 -2l3 66l3 96l3 152q0 19 -2 62.5t-2 45.5z" />
    <glyph glyph-name="uacute" unicode="&#x44a;" horiz-adv-x="518" 
d="M343 144q0 38 -16.5 58.5t-36 23t-32.5 2.5q-21 -1 -29 -1l-2 -93l2 -82q13 0 23.5 0.5t27.5 3.5q33 9 48 32t15 56zM90 422q-20 0 -46 -3.5t-39 -5.5q5 17 5 34q0 15 -5 33l93 -4q40 0 74 1l68 2l-8 -129l-3 -73l82 1q175 0 175 -122q0 -88 -66 -126q-52 -30 -146 -30
l-99 2l-90 -2l3 66l3 96l3 152q0 19 -2 62.5t-2 45.5z" />
    <glyph glyph-name="ucircumflex" unicode="&#xfb;" horiz-adv-x="722" 
d="M520 0l3 66l3 96l3 152q0 27 -3 82t-3 83l9 -1l72 -3q11 0 35 2t36 2l-7 -129q0 -33 -2 -110.5t-2 -83.5q0 -39 0.5 -78t5.5 -78q-17 0 -45.5 2.5t-34.5 2.5q-16 0 -41 -2.5t-29 -2.5zM308 144q0 38 -16.5 58.5t-36 23t-32.5 2.5q-21 -1 -29 -1l-2 -93l2 -82
q13 0 23.5 0.5t27.5 3.5q33 9 48 32t15 56zM50 0l3 66l3 96l3 152q0 27 -3 82t-3 83l9 -1l72 -3q11 0 35 2t36 2q-4 -44 -7 -91q0 -15 -2 -38l-3 -73l83 1q175 0 175 -122q0 -88 -66 -126q-52 -30 -146 -30l-99 2z" />
    <glyph glyph-name="ucircumflex" unicode="&#x44b;" horiz-adv-x="722" 
d="M520 0l3 66l3 96l3 152q0 27 -3 82t-3 83l9 -1l72 -3q11 0 35 2t36 2l-7 -129q0 -33 -2 -110.5t-2 -83.5q0 -39 0.5 -78t5.5 -78q-17 0 -45.5 2.5t-34.5 2.5q-16 0 -41 -2.5t-29 -2.5zM308 144q0 38 -16.5 58.5t-36 23t-32.5 2.5q-21 -1 -29 -1l-2 -93l2 -82
q13 0 23.5 0.5t27.5 3.5q33 9 48 32t15 56zM50 0l3 66l3 96l3 152q0 27 -3 82t-3 83l9 -1l72 -3q11 0 35 2t36 2q-4 -44 -7 -91q0 -15 -2 -38l-3 -73l83 1q175 0 175 -122q0 -88 -66 -126q-52 -30 -146 -30l-99 2z" />
    <glyph glyph-name="udieresis" unicode="&#xfc;" horiz-adv-x="481" 
d="M308 144q0 38 -16.5 58.5t-36 23t-32.5 2.5q-21 -1 -29 -1l-2 -93l2 -82q13 0 23.5 0.5t27.5 3.5q33 9 48 32t15 56zM50 0l3 66l3 96l3 152q0 27 -3 82t-3 83l9 -1l72 -3q11 0 35 2t36 2q-4 -44 -7 -91q0 -15 -2 -38l-3 -73l83 1q175 0 175 -122q0 -88 -66 -126
q-52 -30 -146 -30l-99 2z" />
    <glyph glyph-name="udieresis" unicode="&#x44c;" horiz-adv-x="481" 
d="M308 144q0 38 -16.5 58.5t-36 23t-32.5 2.5q-21 -1 -29 -1l-2 -93l2 -82q13 0 23.5 0.5t27.5 3.5q33 9 48 32t15 56zM50 0l3 66l3 96l3 152q0 27 -3 82t-3 83l9 -1l72 -3q11 0 35 2t36 2q-4 -44 -7 -91q0 -15 -2 -38l-3 -73l83 1q175 0 175 -122q0 -88 -66 -126
q-52 -30 -146 -30l-99 2z" />
    <glyph glyph-name="yacute" unicode="&#xfd;" horiz-adv-x="481" 
d="M449 247q0 -120 -71.5 -190.5t-191.5 -70.5q-41 0 -80.5 12t-65.5 36l-12 50l17 14q17 -21 46.5 -34t58.5 -13q74 0 112.5 45.5t38.5 125.5h-113q-21 0 -31 -1t-31 -4q3 17 3 33q0 15 -3 32q29 -4 39 -4.5t23 -0.5h112q-6 68 -32 112q-33 56 -89 56q-40 0 -67 -26
t-35 -67h-26l-17 104q32 16 73.5 24.5t79.5 8.5q119 0 190.5 -63.5t71.5 -178.5z" />
    <glyph glyph-name="yacute" unicode="&#x44d;" horiz-adv-x="481" 
d="M449 247q0 -120 -71.5 -190.5t-191.5 -70.5q-41 0 -80.5 12t-65.5 36l-12 50l17 14q17 -21 46.5 -34t58.5 -13q74 0 112.5 45.5t38.5 125.5h-113q-21 0 -31 -1t-31 -4q3 17 3 33q0 15 -3 32q29 -4 39 -4.5t23 -0.5h112q-6 68 -32 112q-33 56 -89 56q-40 0 -67 -26
t-35 -67h-26l-17 104q32 16 73.5 24.5t79.5 8.5q119 0 190.5 -63.5t71.5 -178.5z" />
    <glyph glyph-name="thorn" unicode="&#xfe;" horiz-adv-x="759" 
d="M500 448q-39 0 -62 -50q-17 -38 -22 -92l-3 -76q0 -77 12 -124q20 -76 69 -76q34 0 53 32q13 22 23 68q4 21 7 64t3 71l-3 50q0 49 -16 85q-21 48 -61 48zM264 221l-68 -1v-64q0 -52 1 -83t7 -73q-17 0 -46.5 2.5t-35.5 2.5q-15 0 -40.5 -2.5t-30.5 -2.5l3 66l4 96l3 152
q0 27 -3 82t-3 83l9 -1l72 -3q11 0 35 2t36 2l-8 -129l-3 -70q17 0 34.5 -0.5t35.5 -0.5q6 40 20.5 74.5t39.5 63.5q29 33 76 53.5t92 20.5q49 0 96.5 -16t77 -50t45 -80.5t15.5 -95.5q0 -117 -61 -188q-64 -75 -174 -75q-104 0 -166.5 63.5t-62.5 171.5z" />
    <glyph glyph-name="thorn" unicode="&#x44e;" horiz-adv-x="759" 
d="M500 448q-39 0 -62 -50q-17 -38 -22 -92l-3 -76q0 -77 12 -124q20 -76 69 -76q34 0 53 32q13 22 23 68q4 21 7 64t3 71l-3 50q0 49 -16 85q-21 48 -61 48zM264 221l-68 -1v-64q0 -52 1 -83t7 -73q-17 0 -46.5 2.5t-35.5 2.5q-15 0 -40.5 -2.5t-30.5 -2.5l3 66l4 96l3 152
q0 27 -3 82t-3 83l9 -1l72 -3q11 0 35 2t36 2l-8 -129l-3 -70q17 0 34.5 -0.5t35.5 -0.5q6 40 20.5 74.5t39.5 63.5q29 33 76 53.5t92 20.5q49 0 96.5 -16t77 -50t45 -80.5t15.5 -95.5q0 -117 -61 -188q-64 -75 -174 -75q-104 0 -166.5 63.5t-62.5 171.5z" />
    <glyph glyph-name="ydieresis" unicode="&#xff;" horiz-adv-x="500" 
d="M306 380l-4 45h-21q-44 0 -72 -21.5t-28 -60.5q0 -43 31 -69q28 -23 69 -23h25v66v63zM340 476h16h15h12q48 0 68 3l-7 -129q0 -33 -2 -110.5t-2 -83.5q0 -39 0.5 -78t5.5 -78q-17 0 -45.5 2.5t-34.5 2.5q-16 0 -41 -2.5t-29 -2.5l5 66l5 96l1 37h-16q-30 -33 -55 -70
q-19 -29 -72 -129q-27 2 -47 3.5t-26 1.5q-20 0 -50.5 -2.5t-33.5 -2.5v7q39 58 71 104q43 61 80 108q-47 14 -75 40q-39 36 -39 88q0 68 51 100t138 32z" />
    <glyph glyph-name="ydieresis" unicode="&#x44f;" horiz-adv-x="500" 
d="M306 380l-4 45h-21q-44 0 -72 -21.5t-28 -60.5q0 -43 31 -69q28 -23 69 -23h25v66v63zM340 476h16h15h12q48 0 68 3l-7 -129q0 -33 -2 -110.5t-2 -83.5q0 -39 0.5 -78t5.5 -78q-17 0 -45.5 2.5t-34.5 2.5q-16 0 -41 -2.5t-29 -2.5l5 66l5 96l1 37h-16q-30 -33 -55 -70
q-19 -29 -72 -129q-27 2 -47 3.5t-26 1.5q-20 0 -50.5 -2.5t-33.5 -2.5v7q39 58 71 104q43 61 80 108q-47 14 -75 40q-39 36 -39 88q0 68 51 100t138 32z" />
    </font>
</defs>
</svg>
